<?xml version="1.0" standalone="no"?><!DOCTYPE svg PUBLIC "-//W3C//DTD SVG 1.1//EN" "http://www.w3.org/Graphics/SVG/1.1/DTD/svg11.dtd"><svg class="icon" width="200px" height="200.00px" viewBox="0 0 1024 1024" version="1.1" xmlns="http://www.w3.org/2000/svg"><path fill="#ec6c25" d="M39.485124 132.77055l0 731.704488 157.485628 155.064044 0-1003.066062L39.485124 132.77055zM71.948058 816.889561c-5.034796 0-9.122542-5.24357-9.122542-11.698437s4.087746-11.660111 9.122542-11.660111c5.016641 0 9.085224 5.205245 9.085224 11.660111S76.9647 816.889561 71.948058 816.889561zM71.948058 775.303076c-5.034796 0-9.122542-5.242562-9.122542-11.698437 0-6.452849 4.087746-11.640948 9.122542-11.640948 5.016641 0 9.085224 5.188099 9.085224 11.640948C81.033283 770.060514 76.9647 775.303076 71.948058 775.303076zM71.948058 733.735754c-5.034796 0-9.122542-5.24357-9.122542-11.698437s4.087746-11.660111 9.122542-11.660111c5.016641 0 9.085224 5.205245 9.085224 11.660111S76.9647 733.735754 71.948058 733.735754zM71.948058 692.130106c-5.034796 0-9.122542-5.241553-9.122542-11.697428 0-6.435703 4.087746-11.641957 9.122542-11.641957 5.016641 0 9.085224 5.206253 9.085224 11.641957C81.033283 686.888553 76.9647 692.130106 71.948058 692.130106zM71.948058 650.562784c-5.034796 0-9.122542-5.241553-9.122542-11.698437 0-6.435703 4.087746-11.640948 9.122542-11.640948 5.016641 0 9.085224 5.205245 9.085224 11.640948C81.033283 645.32123 76.9647 650.562784 71.948058 650.562784zM71.948058 608.978316c-5.034796 0-9.122542-5.244579-9.122542-11.680282 0-6.453858 4.087746-11.677257 9.122542-11.677257 5.016641 0 9.085224 5.223399 9.085224 11.677257C81.033283 603.733737 76.9647 608.978316 71.948058 608.978316zM71.948058 567.390822c-5.034796 0-9.122542-5.225416-9.122542-11.66112 0-6.452849 4.087746-11.678265 9.122542-11.678265 5.016641 0 9.085224 5.225416 9.085224 11.678265C81.033283 562.166415 76.9647 567.390822 71.948058 567.390822zM71.948058 525.805345c-5.034796 0-9.122542-5.24357-9.122542-11.679274 0-6.454866 4.087746-11.660111 9.122542-11.660111 5.016641 0 9.085224 5.205245 9.085224 11.660111C81.033283 520.561775 76.9647 525.805345 71.948058 525.805345zM71.948058 484.21886c-5.034796 0-9.122542-5.224407-9.122542-11.679274 0-6.453858 4.087746-11.679274 9.122542-11.679274 5.016641 0 9.085224 5.225416 9.085224 11.679274C81.033283 478.994453 76.9647 484.21886 71.948058 484.21886zM71.948058 442.670701c-5.034796 0-9.122542-5.24357-9.122542-11.697428 0-6.454866 4.087746-11.680282 9.122542-11.680282 5.016641 0 9.085224 5.224407 9.085224 11.680282C81.033283 437.427131 76.9647 442.670701 71.948058 442.670701zM71.948058 401.065053c-5.034796 0-9.122542-5.24357-9.122542-11.698437 0-6.453858 4.087746-11.659102 9.122542-11.659102 5.016641 0 9.085224 5.205245 9.085224 11.659102C81.033283 395.822491 76.9647 401.065053 71.948058 401.065053zM71.948058 359.497731c-5.034796 0-9.122542-5.24357-9.122542-11.698437s4.087746-11.679274 9.122542-11.679274c5.016641 0 9.085224 5.224407 9.085224 11.679274S76.9647 359.497731 71.948058 359.497731zM71.948058 317.912254c-5.034796 0-9.122542-5.242562-9.122542-11.697428 0-6.454866 4.087746-11.680282 9.122542-11.680282 5.016641 0 9.085224 5.224407 9.085224 11.680282C81.033283 312.669692 76.9647 317.912254 71.948058 317.912254zM71.948058 276.325769c-5.034796 0-9.122542-5.24357-9.122542-11.698437 0-6.453858 4.087746-11.640948 9.122542-11.640948 5.016641 0 9.085224 5.186082 9.085224 11.640948C81.033283 271.082199 76.9647 276.325769 71.948058 276.325769zM71.948058 234.740292c-5.034796 0-9.122542-5.24357-9.122542-11.697428 0-6.454866 4.087746-11.641957 9.122542-11.641957 5.016641 0 9.085224 5.18709 9.085224 11.641957C81.033283 229.495714 76.9647 234.740292 71.948058 234.740292zM100.549168 835.06001c-5.015633 0-9.086233-5.242562-9.086233-11.678265 0-6.453858 4.0706-11.66112 9.086233-11.66112 5.016641 0 9.085224 5.206253 9.085224 11.66112C109.634392 829.817448 105.565809 835.06001 100.549168 835.06001zM100.549168 793.513868c-5.015633 0-9.086233-5.225416-9.086233-11.679274 0-6.454866 4.0706-11.678265 9.086233-11.678265 5.016641 0 9.085224 5.223399 9.085224 11.678265C109.634392 788.288452 105.565809 793.513868 100.549168 793.513868zM100.549168 751.926374c-5.015633 0-9.086233-5.242562-9.086233-11.697428 0-6.455875 4.0706-11.66112 9.086233-11.66112 5.016641 0 9.085224 5.204236 9.085224 11.66112C109.634392 746.683812 105.565809 751.926374 100.549168 751.926374zM100.549168 710.359052c-5.015633 0-9.086233-5.24357-9.086233-11.698437s4.0706-11.660111 9.086233-11.660111c5.016641 0 9.085224 5.205245 9.085224 11.660111S105.565809 710.359052 100.549168 710.359052zM100.549168 668.773575c-5.015633 0-9.086233-5.24357-9.086233-11.698437 0-6.454866 4.0706-11.679274 9.086233-11.679274 5.016641 0 9.085224 5.224407 9.085224 11.679274C109.634392 663.530005 105.565809 668.773575 100.549168 668.773575zM100.549168 627.188099c-5.015633 0-9.086233-5.24357-9.086233-11.699445 0-6.453858 4.0706-11.660111 9.086233-11.660111 5.016641 0 9.085224 5.205245 9.085224 11.660111C109.634392 621.94352 105.565809 627.188099 100.549168 627.188099zM100.549168 585.599597c-5.015633 0-9.086233-5.241553-9.086233-11.697428s4.0706-11.641957 9.086233-11.641957c5.016641 0 9.085224 5.18709 9.085224 11.641957S105.565809 585.599597 100.549168 585.599597zM100.549168 544.032274c-5.015633 0-9.086233-5.241553-9.086233-11.698437 0-6.452849 4.0706-11.659102 9.086233-11.659102 5.016641 0 9.085224 5.205245 9.085224 11.659102C109.634392 538.790721 105.565809 544.032274 100.549168 544.032274zM100.549168 502.428643c-5.015633 0-9.086233-5.24357-9.086233-11.698437 0-6.435703 4.0706-11.640948 9.086233-11.640948 5.016641 0 9.085224 5.205245 9.085224 11.640948C109.634392 497.185073 105.565809 502.428643 100.549168 502.428643zM100.549168 460.842158c-5.015633 0-9.086233-5.224407-9.086233-11.680282 0-6.435703 4.0706-11.659102 9.086233-11.659102 5.016641 0 9.085224 5.223399 9.085224 11.659102C109.634392 455.617751 105.565809 460.842158 100.549168 460.842158zM100.549168 419.274836c-5.015633 0-9.086233-5.24357-9.086233-11.697428 0-6.435703 4.0706-11.660111 9.086233-11.660111 5.016641 0 9.085224 5.224407 9.085224 11.660111C109.634392 414.031266 105.565809 419.274836 100.549168 419.274836zM100.549168 377.669188c-5.015633 0-9.086233-5.242562-9.086233-11.678265 0-6.454866 4.0706-11.66112 9.086233-11.66112 5.016641 0 9.085224 5.205245 9.085224 11.66112C109.634392 372.426626 105.565809 377.669188 100.549168 377.669188zM100.549168 336.101866c-5.015633 0-9.086233-5.223399-9.086233-11.659102 0-6.454866 4.0706-11.680282 9.086233-11.680282 5.016641 0 9.085224 5.224407 9.085224 11.680282C109.634392 330.878467 105.565809 336.101866 100.549168 336.101866zM100.549168 294.517398c-5.015633 0-9.086233-5.225416-9.086233-11.680282 0-6.454866 4.0706-11.679274 9.086233-11.679274 5.016641 0 9.085224 5.224407 9.085224 11.679274C109.634392 289.291982 105.565809 294.517398 100.549168 294.517398zM100.549168 252.949067c-5.015633 0-9.086233-5.244579-9.086233-11.697428 0-6.454866 4.0706-11.66112 9.086233-11.66112 5.016641 0 9.085224 5.206253 9.085224 11.66112C109.634392 247.705497 105.565809 252.949067 100.549168 252.949067zM100.549168 211.381745c-5.015633 0-9.086233-5.242562-9.086233-11.697428 0-6.454866 4.0706-11.680282 9.086233-11.680282 5.016641 0 9.085224 5.224407 9.085224 11.680282C109.634392 206.139183 105.565809 211.381745 100.549168 211.381745zM129.11296 846.739284c-5.016641 0-9.105396-5.24357-9.105396-11.69642 0-6.436712 4.088754-11.662128 9.105396-11.662128 5.034796 0 9.105396 5.225416 9.105396 11.662128C138.218356 841.495714 134.147756 846.739284 129.11296 846.739284zM129.11296 805.133636c-5.016641 0-9.105396-5.242562-9.105396-11.697428 0-6.416541 4.088754-11.621785 9.105396-11.621785 5.034796 0 9.105396 5.205245 9.105396 11.621785C138.218356 799.891074 134.147756 805.133636 129.11296 805.133636zM129.11296 763.587494c-5.016641 0-9.105396-5.24357-9.105396-11.699445 0-6.435703 4.088754-11.659102 9.105396-11.659102 5.034796 0 9.105396 5.223399 9.105396 11.659102C138.218356 758.343923 134.147756 763.587494 129.11296 763.587494zM129.11296 721.981846c-5.016641 0-9.105396-5.242562-9.105396-11.678265 0-6.454866 4.088754-11.66112 9.105396-11.66112 5.034796 0 9.105396 5.205245 9.105396 11.66112C138.218356 716.739284 134.147756 721.981846 129.11296 721.981846zM129.11296 680.413515c-5.016641 0-9.105396-5.223399-9.105396-11.660111 0-6.453858 4.088754-11.678265 9.105396-11.678265 5.034796 0 9.105396 5.224407 9.105396 11.678265C138.218356 675.190116 134.147756 680.413515 129.11296 680.413515zM129.11296 638.829047c-5.016641 0-9.105396-5.225416-9.105396-11.680282 0-6.453858 4.088754-11.678265 9.105396-11.678265 5.034796 0 9.105396 5.224407 9.105396 11.678265C138.218356 633.603631 134.147756 638.829047 129.11296 638.829047zM129.11296 597.261725c-5.016641 0-9.105396-5.24357-9.105396-11.698437 0-6.454866 4.088754-11.66112 9.105396-11.66112 5.034796 0 9.105396 5.205245 9.105396 11.66112C138.218356 592.017146 134.147756 597.261725 129.11296 597.261725zM129.11296 555.694402c-5.016641 0-9.105396-5.24357-9.105396-11.698437 0-6.454866 4.088754-11.679274 9.105396-11.679274 5.034796 0 9.105396 5.224407 9.105396 11.679274C138.218356 550.450832 134.147756 555.694402 129.11296 555.694402zM129.11296 514.107917c-5.016641 0-9.105396-5.24357-9.105396-11.699445 0-6.452849 4.088754-11.678265 9.105396-11.678265 5.034796 0 9.105396 5.224407 9.105396 11.678265C138.218356 508.864347 134.147756 514.107917 129.11296 514.107917zM129.11296 472.502269c-5.016641 0-9.105396-5.24357-9.105396-11.698437 0-6.454866 4.088754-11.641957 9.105396-11.641957 5.034796 0 9.105396 5.18709 9.105396 11.641957C138.218356 467.258699 134.147756 472.502269 129.11296 472.502269zM129.11296 430.934947c-5.016641 0-9.105396-5.242562-9.105396-11.697428 0-6.454866 4.088754-11.660111 9.105396-11.660111 5.034796 0 9.105396 5.205245 9.105396 11.660111C138.218356 425.692385 134.147756 430.934947 129.11296 430.934947zM129.11296 389.348462c-5.016641 0-9.105396-5.24357-9.105396-11.698437s4.088754-11.660111 9.105396-11.660111c5.034796 0 9.105396 5.205245 9.105396 11.660111S134.147756 389.348462 129.11296 389.348462zM129.11296 347.742814c-5.016641 0-9.105396-5.242562-9.105396-11.697428 0-6.435703 4.088754-11.621785 9.105396-11.621785 5.034796 0 9.105396 5.186082 9.105396 11.621785C138.218356 342.500252 134.147756 347.742814 129.11296 347.742814zM129.11296 306.194655c-5.016641 0-9.105396-5.242562-9.105396-11.697428 0-6.435703 4.088754-11.660111 9.105396-11.660111 5.034796 0 9.105396 5.224407 9.105396 11.660111C138.218356 300.953101 134.147756 306.194655 129.11296 306.194655zM129.11296 264.590015c-5.016641 0-9.105396-5.24357-9.105396-11.697428 0-6.435703 4.088754-11.66112 9.105396-11.66112 5.034796 0 9.105396 5.225416 9.105396 11.66112C138.218356 259.346445 134.147756 264.590015 129.11296 264.590015zM129.11296 223.00353c-5.016641 0-9.105396-5.242562-9.105396-11.678265s4.088754-11.640948 9.105396-11.640948c5.034796 0 9.105396 5.206253 9.105396 11.640948S134.147756 223.00353 129.11296 223.00353zM129.11296 181.436208c-5.016641 0-9.105396-5.242562-9.105396-11.678265 0-6.454866 4.088754-11.680282 9.105396-11.680282 5.034796 0 9.105396 5.224407 9.105396 11.680282C138.218356 176.193646 134.147756 181.436208 129.11296 181.436208zM596.742814 210.30358 596.742814 35.855774 226.04589 16.474029l0 1003.066062 370.696924-19.383762L596.742814 245.831568l-315.784165 0 0-35.527988L596.742814 210.30358zM526.481594 92.395361c18.738275 0 33.920323 15.181039 33.920323 33.921331 0 18.738275-15.182047 33.919314-33.920323 33.919314-18.739284 0-33.921331-15.181039-33.921331-33.919314C492.560262 107.577408 507.74231 92.395361 526.481594 92.395361zM815.616238 257.510842 815.616238 104.339889 634.695411 87.324256l0 880.729198 180.920827-17.01765L815.616238 288.704992 661.499244 288.704992l0-31.19415L815.616238 257.510842zM781.336863 153.989914c9.122542 0 16.542612 13.324256 16.542612 29.793243 0 16.431669-7.420071 29.77408-16.542612 29.77408-9.162885 0-16.561775-13.343419-16.561775-29.77408C764.775088 167.315179 772.173979 153.989914 781.336863 153.989914zM996.536056 313.76702 996.536056 182.477055l-155.082199-14.594049 0 754.949067 155.082199-14.594049 0-567.725668L864.433182 340.512355l0-26.745335L996.536056 313.76702zM967.158346 225.028744c7.81644 0 14.178517 11.414019 14.178517 25.535048 0 14.082703-6.362078 25.515885-14.178517 25.515885-7.854766 0-14.196672-11.433182-14.196672-25.515885C952.961674 236.443772 959.30358 225.028744 967.158346 225.028744z" /></svg>