<?xml version="1.0" standalone="no"?><!DOCTYPE svg PUBLIC "-//W3C//DTD SVG 1.1//EN" "http://www.w3.org/Graphics/SVG/1.1/DTD/svg11.dtd"><svg class="icon" width="200px" height="200.00px" viewBox="0 0 1024 1024" version="1.1" xmlns="http://www.w3.org/2000/svg"><path fill="#ec6c25" d="M768 1024v-85.333333h170.666667V768h85.333333v256H768z m170.666667-938.666667H768V0h256v256h-85.333333V85.333333zM781.576533 721.237333l68.4032 68.394667-60.347733 60.3392-68.394667-68.394667A339.7376 339.7376 0 0 1 512 853.333333c-188.509867 0-341.333333-152.823467-341.333333-341.333333s152.823467-341.333333 341.333333-341.333333 341.333333 152.823467 341.333333 341.333333a339.7376 339.7376 0 0 1-71.7568 209.237333zM512 256c-141.3888 0-256 114.6112-256 256 0 141.380267 114.6112 256 256 256 141.380267 0 256-114.619733 256-256 0-141.3888-114.619733-256-256-256z m-426.666667 0H0V0h256v85.333333H85.333333v170.666667z m0 682.666667h170.666667v85.333333H0V768h85.333333v170.666667z" /></svg>