<?xml version="1.0" standalone="no"?><!DOCTYPE svg PUBLIC "-//W3C//DTD SVG 1.1//EN" "http://www.w3.org/Graphics/SVG/1.1/DTD/svg11.dtd"><svg class="icon" width="200px" height="200.00px" viewBox="0 0 1024 1024" version="1.1" xmlns="http://www.w3.org/2000/svg"><path fill="#0099FF" d="M987.410295 430.888556h-105.931035c-18.934533 0-38.892554-14.84058-45.033483-32.23988l-14.328835-34.286857c-8.69965-16.887556-4.605697-41.451274 8.69965-54.756622L906.042979 234.378811c13.305347-13.305347 13.305347-35.310345 0-48.615693l-67.550225-67.550224c-13.305347-13.305347-35.310345-13.305347-48.103948 0l-76.249875 75.73813c-13.305347 13.305347-37.869065 17.3993-54.756622 8.699651l-33.775113-13.817092c-17.911044-5.629185-32.751624-26.098951-32.751624-44.521739V36.333833c0-18.934533-15.352324-34.286857-34.286856-34.286856H462.872564c-18.934533 0-34.286857 15.352324-34.286857 34.286856v107.978011c0 18.934533-14.84058 38.892554-32.751624 44.521739l-33.775112 13.817092c-16.887556 8.69965-41.451274 4.605697-54.756622-8.699651L232.075962 118.212894c-13.305347-13.305347-35.310345-13.305347-48.103948 0L115.910045 185.763118c-13.305347 13.305347-13.305347 35.310345 0 48.615693l75.226387 75.226386c13.305347 13.305347 16.887556 37.869065 8.69965 54.756622l-14.328836 34.286857c-6.14093 17.911044-26.098951 32.23988-45.033483 32.23988H34.542729c-18.934533 0-34.286857 15.352324-34.286857 34.286856v95.696152c0 18.934533 15.352324 34.286857 34.286857 34.286857h104.907546c18.934533 0 38.892554 14.84058 44.521739 32.751624l14.328836 35.822089c8.187906 16.887556 4.605697 41.451274-8.699651 54.756622l-73.691154 73.691154a33.97981 33.97981 0 0 0 0 48.103948l67.550225 67.550225c13.305347 13.305347 35.310345 13.305347 48.103948 0l73.17941-73.17941c13.305347-13.305347 37.869065-17.3993 54.756622-8.699651l36.333833 15.352324c17.911044 5.629185 32.23988 26.098951 32.23988 45.033484v103.372313c0 18.934533 15.352324 34.286857 34.286857 34.286857H558.056972c18.934533 0 34.286857-15.352324 34.286856-34.286857v-103.372313c0-18.934533 14.84058-38.892554 32.23988-45.033484l26.610695-11.25837-51.686157-51.686157c-28.657671 9.723138-58.850575 14.84058-89.555223 14.840579-74.202899 0-144.311844-29.169415-196.509745-81.367316-52.709645-52.709645-81.367316-122.306847-81.367316-196.509745S261.245377 371.014493 313.443278 318.816592c53.221389-52.709645 123.330335-81.87906 197.533234-81.879061S655.288356 266.106947 707.486257 318.304848c52.709645 52.709645 81.367316 122.306847 81.367316 196.509745 0 30.192904-4.605697 59.874063-13.817091 87.508246l51.686157 51.686157 11.25837-27.122439c5.629185-17.911044 25.587206-32.751624 44.52174-32.751624h104.907546c18.934533 0 34.286857-15.352324 34.286856-34.286857V465.175412c0-18.934533-15.352324-34.286857-34.286856-34.286856z"  /><path fill="#0099FF" d="M703.392304 665.267366l236.937531 242.054973-48.103948 48.103948-236.937531-242.054973v-25.587206l-9.211394-9.211394c-38.38081 33.263368-83.414293 49.63918-135.612194 49.63918-58.338831 0-107.978011-19.958021-148.405797-60.385807-40.93953-40.427786-60.897551-89.555222-60.897552-147.894053s20.469765-107.978011 60.897552-148.405797c40.93953-40.93953 90.066967-60.897551 148.405797-60.897551s107.466267 20.469765 147.894053 60.897551c40.427786 40.93953 60.385807 90.066967 60.385807 148.405797 0 52.197901-16.375812 97.743128-49.639181 135.612194l9.211395 9.211394 25.075462 0.511744z m-192.927536 0c40.427786 0 74.202899-13.817091 102.860569-42.474762 28.145927-28.145927 42.474763-62.432784 42.474763-102.86057s-14.328836-74.202899-42.474763-102.86057c-28.145927-28.145927-62.432784-42.474763-102.860569-42.474762S436.261869 388.925537 407.604198 417.071464c-28.145927 28.145927-42.474763 62.432784-42.474763 102.86057s14.328836 74.202899 42.474763 102.86057c28.145927 28.145927 62.432784 42.474763 102.86057 42.474762z"  /></svg>