<?xml version="1.0" standalone="no"?><!DOCTYPE svg PUBLIC "-//W3C//DTD SVG 1.1//EN" "http://www.w3.org/Graphics/SVG/1.1/DTD/svg11.dtd"><svg t="1560154430899" class="icon" style="" viewBox="0 0 1024 1024" version="1.1" xmlns="http://www.w3.org/2000/svg" p-id="2989" xmlns:xlink="http://www.w3.org/1999/xlink" width="200" height="200"><defs><style type="text/css"></style></defs><path d="M512 219.428571 473.572571 193.570743 370.143086 297.000229 318.429257 245.2864 266.715429 297.000229 370.143086 400.427886Z" p-id="2990" fill="#1296db"></path><path d="M548.571429 292.571429l219.428571 0 0 36.571429-219.428571 0 0-36.571429Z" p-id="2991" fill="#1296db"></path><path d="M512 438.857143 473.572571 412.999314 370.143086 516.4288 318.429257 464.714971 266.715429 516.4288 370.143086 619.856457Z" p-id="2992" fill="#1296db"></path><path d="M548.571429 512l219.428571 0 0 36.571429-219.428571 0 0-36.571429Z" p-id="2993" fill="#1296db"></path><path d="M877.714286 36.571429 146.285714 36.571429c-20.214857 0-36.571429 16.374857-36.571429 36.571429l0 877.714286c0 20.214857 16.356571 36.571429 36.571429 36.571429l475.428571 0 292.571429-256L914.285714 73.142857C914.285714 52.946286 897.929143 36.571429 877.714286 36.571429zM658.285714 858.2144 658.285714 731.428571l144.928914 0L658.285714 858.2144zM841.142857 658.285714 621.714286 658.285714c-20.214857 0-36.571429 16.356571-36.571429 36.571429l0 219.428571L182.857143 914.285714 182.857143 109.714286l658.285714 0L841.142857 658.285714z" p-id="2994" fill="#1296db"></path></svg>