<?xml version="1.0" standalone="no"?><!DOCTYPE svg PUBLIC "-//W3C//DTD SVG 1.1//EN" "http://www.w3.org/Graphics/SVG/1.1/DTD/svg11.dtd"><svg class="icon" width="50px" height="50px" viewBox="0 0 1024 1024" version="1.1" xmlns="http://www.w3.org/2000/svg"><path fill="#0ebcfb" d="M512 51.2C244.622222 51.2 28.444444 267.377778 28.444444 534.755556 28.444444 802.133333 244.622222 1018.311111 512 1018.311111 779.377778 1018.311111 995.555556 802.133333 995.555556 534.755556 995.555556 267.377778 779.377778 51.2 512 51.2L512 51.2ZM512 961.422222C278.755556 961.422222 85.333333 768 85.333333 534.755556 85.333333 301.511111 278.755556 108.088889 512 108.088889 745.244444 108.088889 938.666667 301.511111 938.666667 534.755556 938.666667 768 745.244444 961.422222 512 961.422222L512 961.422222ZM540.444444 506.311111 540.444444 335.644444C540.444444 318.577778 529.066667 307.2 512 307.2 494.933333 307.2 483.555556 318.577778 483.555556 335.644444L483.555556 506.311111 312.888889 506.311111C295.822222 506.311111 284.444444 517.688889 284.444444 534.755556 284.444444 551.822222 295.822222 563.2 312.888889 563.2L483.555556 563.2 483.555556 733.866667C483.555556 750.933333 494.933333 762.311111 512 762.311111 529.066667 762.311111 540.444444 750.933333 540.444444 733.866667L540.444444 563.2 711.111111 563.2C728.177778 563.2 739.555556 551.822222 739.555556 534.755556 739.555556 517.688889 728.177778 506.311111 711.111111 506.311111L540.444444 506.311111 540.444444 506.311111Z" /></svg>