<?xml version="1.0" standalone="no"?><!DOCTYPE svg PUBLIC "-//W3C//DTD SVG 1.1//EN" "http://www.w3.org/Graphics/SVG/1.1/DTD/svg11.dtd"><svg class="icon" width="200px" height="200.00px" viewBox="0 0 1024 1024" version="1.1" xmlns="http://www.w3.org/2000/svg"><path d="M555.707317 555.707317m-449.560976 0a449.560976 449.560976 0 1 0 899.121952 0 449.560976 449.560976 0 1 0-899.121952 0Z" fill="transparent" /><path d="M493.268293 18.731707c-262.243902 0-474.536585 212.292683-474.536586 474.536586s212.292683 474.536585 474.536586 474.536585c89.912195 0 177.326829-24.97561 253.502439-72.429268 6.243902-3.746341 7.492683-11.239024 3.746341-17.482927-3.746341-6.243902-11.239024-7.492683-17.482927-3.746342-71.180488 44.956098-154.84878 68.682927-239.765853 68.682927-248.507317 0-449.560976-201.053659-449.560976-449.560975s201.053659-449.560976 449.560976-449.560976 449.560976 201.053659 449.560975 449.560976c0 84.917073-23.726829 168.585366-68.682927 239.765853-3.746341 6.243902-2.497561 13.736585 3.746342 17.482927 6.243902 3.746341 13.736585 2.497561 17.482927-3.746341 47.453659-76.17561 73.678049-163.590244 73.678049-253.502439-1.24878-262.243902-213.541463-474.536585-475.785366-474.536586z" fill="red" /><path d="M765.502439 524.487805h-237.268293V238.517073c0-7.492683-4.995122-12.487805-12.487805-12.487805s-12.487805 4.995122-12.487804 12.487805V536.97561c0 7.492683 4.995122 12.487805 12.487804 12.487805h248.507318c7.492683 0 12.487805-4.995122 12.487804-12.487805s-4.995122-12.487805-11.239024-12.487805z" fill="red" /></svg>