<?xml version="1.0" standalone="no"?><!DOCTYPE svg PUBLIC "-//W3C//DTD SVG 1.1//EN" "http://www.w3.org/Graphics/SVG/1.1/DTD/svg11.dtd"><svg class="icon" width="48px" height="48.00px" viewBox="0 0 1024 1024" version="1.1" xmlns="http://www.w3.org/2000/svg"><path fill="#0ebcfb" d="M847.490895 997.267429H176.510129c-82.586707 0-149.776534-67.189827-149.776534-149.778582V176.510129c0-82.587731 67.188803-149.776534 149.776534-149.776534h461.649357c14.987279 0 27.136027 12.147724 27.136027 27.136027 0 14.986255-12.148748 27.136027-27.136027 27.136027H176.510129c-52.661301 0-95.50448 42.842155-95.50448 95.50448v670.978718c0 52.662325 42.843179 95.506528 95.50448 95.506528h670.980766c52.661301 0 95.50448-42.844203 95.50448-95.506528V352.021856c0-14.988303 12.148748-27.136027 27.136027-27.136027s27.136027 12.147724 27.136027 27.136027v495.466991c0 82.587731-67.189827 149.778582-149.776534 149.778582z"  /><path fill="#0ebcfb" d="M444.163516 606.972511a27.052059 27.052059 0 0 1-19.187731-7.948296c-10.597387-10.598411-10.597387-27.780124 0-38.376486l525.967886-525.966862c10.598411-10.598411 27.780124-10.596363 38.376486 0 10.597387 10.596363 10.597387 27.778076 0 38.376486l-525.967886 525.966862a27.057179 27.057179 0 0 1-19.188755 7.948296z"  /></svg>