<?xml version="1.0" standalone="no"?><!DOCTYPE svg PUBLIC "-//W3C//DTD SVG 1.1//EN" "http://www.w3.org/Graphics/SVG/1.1/DTD/svg11.dtd"><svg class="icon" width="200px" height="200.00px" viewBox="0 0 1024 1024" version="1.1" xmlns="http://www.w3.org/2000/svg"><path d="M978.7392 1024H45.2608C20.2752 1024 0 1003.7248 0 978.7392V45.2608C0 20.2752 20.2752 0 45.2608 0h933.4784C1003.7248 0 1024 20.2752 1024 45.2608v933.4784c0 24.9856-20.2752 45.2608-45.2608 45.2608z" fill="white" /><path d="M723.3536 643.4816c-8.192-8.6016-16.7936-16.9984-25.8048-24.9856-7.5776-6.5536-19.0464-5.9392-25.8048 1.6384-6.5536 7.5776-5.9392 19.0464 1.6384 25.8048 8.192 7.168 15.7696 14.5408 23.1424 22.3232 8.3968 8.6016 15.9744 18.0224 23.1424 27.648 43.2128 57.344 66.1504 125.952 66.1504 198.0416 0 10.0352 8.192 18.432 18.432 18.432 10.0352 0 18.432-8.192 18.432-18.432 0-80.0768-25.3952-156.0576-73.3184-219.7504-8.3968-10.6496-16.9984-20.8896-26.0096-30.72zM867.5328 656.7936c-7.3728-9.6256-15.1552-18.8416-23.3472-27.648-7.3728-7.9872-15.36-15.36-23.3472-22.528-7.7824-6.7584-19.0464-5.9392-25.8048 1.6384-6.7584 7.5776-5.9392 19.0464 1.6384 25.8048 7.3728 6.3488 14.336 12.9024 20.8896 20.0704 7.3728 7.9872 14.336 15.9744 20.6848 24.7808 38.7072 51.4048 58.9824 112.64 58.9824 176.9472 0 10.0352 8.192 18.432 18.432 18.432 10.0352 0 18.432-8.192 18.432-18.432 0-72.4992-22.9376-141.312-66.56-199.0656zM824.5248 371.712c0-122.2656-99.5328-221.7984-221.7984-221.7984-5.12 0-9.6256 0.4096-14.7456 0.8192-38.0928-24.576-83.3536-39.1168-131.8912-39.1168-134.7584 0-244.3264 109.7728-244.3264 244.3264 0 82.7392 41.1648 155.4432 104.0384 199.8848-134.5536 56.32-225.8944 189.8496-225.8944 338.3296 0 10.0352 8.192 18.432 18.432 18.432 10.0352 0 18.432-8.192 18.432-18.432 0-143.36 94.6176-271.5648 231.0144-314.5728 30.1056 13.312 63.488 20.8896 98.5088 20.8896 30.1056 0 59.1872-5.7344 85.8112-15.7696 19.2512 5.5296 39.5264 8.8064 60.6208 8.8064 122.2656 0 221.7984-99.5328 221.7984-221.7984z m-368.4352 192.3072c-114.4832 0-207.872-93.3888-207.872-207.872S341.6064 148.2752 456.0896 148.2752 663.9616 241.664 663.9616 356.1472s-93.184 207.872-207.872 207.872z m146.432-6.9632c-2.2528 0-4.3008-0.6144-6.5536-0.6144 63.0784-44.2368 104.448-117.3504 104.448-200.0896 0-64.3072-25.1904-122.6752-65.9456-166.2976 86.8352 15.36 153.1904 90.7264 153.1904 182.0672 0.2048 101.5808-82.944 184.9344-185.1392 184.9344z" fill="#0099FF" /><path d="M382.976 805.0688l73.1136 73.1136 73.1136-73.1136-73.1136-183.0912-73.1136 183.0912z" fill="#0099FF" /></svg>