<?xml version="1.0" standalone="no"?><!DOCTYPE svg PUBLIC "-//W3C//DTD SVG 1.1//EN" "http://www.w3.org/Graphics/SVG/1.1/DTD/svg11.dtd"><svg class="icon" width="200px" height="200.00px" viewBox="0 0 1024 1024" version="1.1" xmlns="http://www.w3.org/2000/svg"><path fill="#ec6c25" d="M273.066667 307.2m-34.133334 0a34.133333 34.133333 0 1 0 68.266667 0 34.133333 34.133333 0 1 0-68.266667 0Z"  /><path fill="#ec6c25" d="M273.066667 512m-34.133334 0a34.133333 34.133333 0 1 0 68.266667 0 34.133333 34.133333 0 1 0-68.266667 0Z"  /><path fill="#ec6c25" d="M887.466667 0H136.533333a34.133333 34.133333 0 0 0-34.133333 34.133333v955.733334a34.133333 34.133333 0 0 0 34.133333 34.133333h750.933334a34.133333 34.133333 0 0 0 34.133333-34.133333V34.133333a34.133333 34.133333 0 0 0-34.133333-34.133333zM853.333333 955.733333H170.666667V68.266667h682.666666z"  /><path fill="#ec6c25" d="M375.466667 341.333333h341.333333a34.133333 34.133333 0 0 0 0-68.266666H375.466667a34.133333 34.133333 0 0 0 0 68.266666zM375.466667 546.133333h341.333333a34.133333 34.133333 0 0 0 0-68.266666H375.466667a34.133333 34.133333 0 0 0 0 68.266666zM375.466667 750.933333h341.333333a34.133333 34.133333 0 0 0 0-68.266666H375.466667a34.133333 34.133333 0 0 0 0 68.266666z"  /><path fill="#ec6c25" d="M273.066667 716.8m-34.133334 0a34.133333 34.133333 0 1 0 68.266667 0 34.133333 34.133333 0 1 0-68.266667 0Z"  /></svg>