<?xml version="1.0" standalone="no"?><!DOCTYPE svg PUBLIC "-//W3C//DTD SVG 1.1//EN" "http://www.w3.org/Graphics/SVG/1.1/DTD/svg11.dtd"><svg class="icon" width="200px" height="200.00px" viewBox="0 0 1024 1024" version="1.1" xmlns="http://www.w3.org/2000/svg"><path fill="#ec6c25" d="M928.176081 66.981674 774.854945 66.981674c-21.12717 0-38.313399 17.187252-38.313399 38.313399l0 824.590012c0 21.12717 17.187252 38.314422 38.313399 38.314422l153.321136 0c21.12717 0 38.313399-17.188275 38.313399-38.314422L966.48948 105.296095C966.490503 84.169949 949.303251 66.981674 928.176081 66.981674zM922.281555 111.190622l0 812.799936L780.749472 923.990558l0-812.799936L922.281555 111.190622zM804.237522 188.111122l94.557005 0 0 27.01658-94.557005 0 0-27.01658ZM804.237522 268.963353l94.557005 0 0 27.01658-94.557005 0 0-27.01658ZM804.237522 349.815584l94.557005 0 0 27.01658-94.557005 0 0-27.01658ZM804.237522 430.667815l94.557005 0 0 27.01658-94.557005 0 0-27.01658ZM654.264805 66.981674 500.943669 66.981674c-21.12717 0-38.314422 17.187252-38.314422 38.313399l0 824.590012c0 21.12717 17.188275 38.314422 38.314422 38.314422l153.321136 0c21.12717 0 38.313399-17.188275 38.313399-38.314422L692.578204 105.296095C692.579227 84.169949 675.391975 66.981674 654.264805 66.981674zM648.370279 111.190622l0 812.799936L506.838196 923.990558l0-812.799936L648.370279 111.190622zM530.325223 188.111122l94.557005 0 0 27.01658-94.557005 0 0-27.01658ZM530.325223 268.963353l94.557005 0 0 27.01658-94.557005 0 0-27.01658ZM530.325223 349.815584l94.557005 0 0 27.01658-94.557005 0 0-27.01658ZM530.325223 430.667815l94.557005 0 0 27.01658-94.557005 0 0-27.01658ZM482.718735 112.396134c-5.223205-8.800855-13.560481-15.041276-23.476794-17.57101L310.679408 56.922091c-9.919383-2.531781-20.224571-1.047916-29.025426 4.176313-8.800855 5.223205-15.040253 13.560481-17.57101 23.476794L60.232645 883.570071c-5.223205 20.471199 7.182931 41.375278 27.652083 46.59746l148.562534 37.903033c3.167285 0.807427 6.339686 1.193232 9.46706 1.193232 17.09208 0 32.715645-11.541401 37.1304-28.846339l203.84828-798.99692C489.424782 131.505248 487.941941 121.19699 482.718735 112.396134zM442.601161 136.204495 241.666374 923.7777l-137.140865-34.988517L305.461319 101.215978 442.601161 136.204495zM309.219285 181.557662l91.625738 23.374492-6.678498 26.179066-91.625738-23.374492 6.678498-26.179066ZM289.231413 259.903885l91.625738 23.374492-6.678498 26.179066-91.625738-23.374492 6.678498-26.179066ZM269.244429 338.250259l91.625738 23.374492-6.678498 26.179066-91.625738-23.374492 6.678498-26.179066ZM249.256455 416.596482l91.625738 23.374492-6.678498 26.179066-91.625738-23.374492 6.678498-26.179066Z" /></svg>