<?xml version="1.0" standalone="no"?><!DOCTYPE svg PUBLIC "-//W3C//DTD SVG 1.1//EN" "http://www.w3.org/Graphics/SVG/1.1/DTD/svg11.dtd"><svg class="icon" width="200px" height="200.00px" viewBox="0 0 1024 1024" version="1.1" xmlns="http://www.w3.org/2000/svg"><path fill="#ec6c25" d="M783.753846 347.648H213.779692a24.300308 24.300308 0 0 0-24.024615 24.024615 23.630769 23.630769 0 0 0 24.024615 24.024616h570.052923c12.524308 0 24.024615-10.436923 24.024616-24.024616a24.300308 24.300308 0 0 0-24.024616-24.024615M579.859692 517.316923H205.508923c-8.270769 0-15.753846 10.436923-15.753846 24.024615 0 13.548308 6.813538 24.024615 15.753846 24.024616h374.350769c8.231385 0 15.753846-10.476308 15.753846-24.024616 0-13.587692-7.522462-24.024615-15.753846-24.024615M671.901538 624.246154l112.443077 197.947077h-81.604923v27.569231h97.043693v54.035692h-97.043693v27.569231h97.043693v86.567384h48.521846v-86.567384h97.595077v-27.569231H848.344615v-54.035692h97.595077v-27.569231h-82.156307l112.482461-197.947077h-54.587077l-97.595077 180.854154-97.595077-180.854154z"  /><path fill="#ec6c25" d="M936.211692 140.957538C936.211692 62.621538 872.526769 0 796.356923 0H39.384615v876.977231c0 78.336 60.573538 140.996923 138.870154 140.996923H604.16a24.300308 24.300308 0 0 0 22.961231-25.088 25.088 25.088 0 0 0-22.961231-25.048616H176.167385c-48.049231 0-88.772923-41.747692-88.772923-91.884307V50.097231h708.923076c48.049231 0 88.733538 41.747692 88.733539 91.884307V556.504615c0 13.587692 11.500308 25.048615 25.048615 25.048616a25.403077 25.403077 0 0 0 25.088-25.048616V140.996923h1.024z"  /><path fill="#ec6c25" d="M785.880615 198.380308H215.827692a24.300308 24.300308 0 0 0-24.024615 24.024615 23.630769 23.630769 0 0 0 24.024615 24.024615h570.052923c12.524308 0 24.024615-10.476308 24.024616-24.024615 2.087385-13.587692-8.388923-24.024615-24.024616-24.024615"  /></svg>