<?xml version="1.0" standalone="no"?><!DOCTYPE svg PUBLIC "-//W3C//DTD SVG 1.1//EN" "http://www.w3.org/Graphics/SVG/1.1/DTD/svg11.dtd"><svg class="icon" width="200px" height="200.00px" viewBox="0 0 1024 1024" version="1.1" xmlns="http://www.w3.org/2000/svg"><path fill="#0099FF" d="M401.408 106.496 180.224 106.496c-40.96 0-73.728 32.768-73.728 73.728l0 221.184c-4.096 40.96 32.768 73.728 73.728 73.728l221.184 0c40.96 0 73.728-32.768 73.728-73.728L475.136 180.224C475.136 139.264 442.368 106.496 401.408 106.496zM434.176 401.408c0 20.48-16.384 36.864-36.864 36.864L180.224 438.272c-20.48 0-36.864-16.384-36.864-36.864L143.36 180.224 139.264 180.224c0-20.48 16.384-36.864 36.864-36.864l221.184 0c20.48 0 36.864 16.384 36.864 36.864L434.176 401.408z"  /><path fill="#0099FF" d="M843.776 548.864l-221.184 0c-40.96 0-73.728 32.768-73.728 73.728l0 221.184c0 40.96 32.768 73.728 73.728 73.728l221.184 0c40.96 0 73.728-32.768 73.728-73.728l0-221.184C917.504 581.632 884.736 548.864 843.776 548.864zM880.64 843.776c0 20.48-16.384 36.864-36.864 36.864l-221.184 0c-20.48 0-36.864-16.384-36.864-36.864l0-221.184c0-20.48 16.384-36.864 36.864-36.864l221.184 0c20.48 0 36.864 16.384 36.864 36.864L880.64 843.776z"  /><path fill="#0099FF" d="M843.776 106.496l-221.184 0c-40.96 0-73.728 32.768-73.728 73.728l0 221.184c0 40.96 32.768 73.728 73.728 73.728l221.184 0c40.96 0 73.728-32.768 73.728-73.728L917.504 180.224C917.504 139.264 884.736 106.496 843.776 106.496zM880.64 401.408c0 20.48-16.384 36.864-36.864 36.864l-221.184 0c-20.48 0-36.864-16.384-36.864-36.864L585.728 180.224c0-20.48 16.384-36.864 36.864-36.864l221.184 0c20.48 0 36.864 16.384 36.864 36.864L880.64 401.408z"  /><path fill="#0099FF" d="M397.312 548.864 180.224 548.864c-40.96 0-73.728 32.768-73.728 73.728l0 221.184L102.4 843.776c0 40.96 32.768 73.728 73.728 73.728l221.184 0c40.96 0 73.728-32.768 73.728-73.728l0-221.184C471.04 581.632 438.272 548.864 397.312 548.864zM434.176 843.776c0 20.48-16.384 36.864-36.864 36.864L180.224 880.64c-20.48 0-36.864-16.384-36.864-36.864l0-221.184L139.264 622.592c0-20.48 16.384-36.864 36.864-36.864l221.184 0c20.48 0 36.864 16.384 36.864 36.864L434.176 843.776z"  /></svg>