<?xml version="1.0" standalone="no"?><!DOCTYPE svg PUBLIC "-//W3C//DTD SVG 1.1//EN" "http://www.w3.org/Graphics/SVG/1.1/DTD/svg11.dtd"><svg t="1501156237735" class="icon" style="" viewBox="0 0 1024 1024" version="1.1" xmlns="http://www.w3.org/2000/svg" p-id="3820" xmlns:xlink="http://www.w3.org/1999/xlink" width="200" height="200"><defs><style type="text/css"></style></defs><path fill="#13227a" d="M441.685333 205.312c-97.621333 0-141.824 58.197333-141.824 141.824h47.274667c1.536-59.221333 40.106667-93.013333 94.549333-94.549333 47.786667 1.536 68.778667 27.477333 70.485334 71.509333 0 22.869333-16.384 49.493333-49.493334 79.872-37.888 33.450667-44.714667 57.685333-44.714666 84.992v47.274667h47.274666v-47.274667c0-15.189333 8.192-35.669333 34.474667-59.904 39.594667-34.986667 59.221333-69.973333 59.221333-104.96 0.341333-69.802667-41.301333-118.784-117.248-118.784zM418.133333 630.954667h47.274667V583.68H418.133333v47.274667z m401.92-151.04V152.576S811.178667 87.04 749.056 87.04H87.04v676.693333s8.874667 55.125333 94.549333 56.32c85.674667 1.365333 260.096 0 260.096 0-10.24 1.365333 378.368-340.138667 378.368-340.138666zM418.133333 772.778667s-218.794667-0.682667-236.373333 0c-54.613333 2.048-47.274667-52.736-47.274667-52.736V130.901333H749.226667c31.061333 0 23.722667 25.941333 23.722666 43.690667v283.648L418.133333 772.778667z m505.685334-159.914667l-82.261334-76.629333-14.677333-13.482667-14.506667 13.482667-292.010666 272.384-1.194667 5.632-30.037333 124.074666 142.677333-25.941333 4.437333-4.096L938.496 626.346667l-14.677333-13.482667zM611.328 877.056l-66.389333 12.458667 13.141333-61.952 207.189333-193.194667 53.077334 49.664-207.018667 193.024z m236.202667-220.330667l-53.077334-49.664 32.597334-30.378666 53.248 49.664-32.768 30.378666z"  p-id="3821"></path></svg>