<?xml version="1.0" standalone="no"?><!DOCTYPE svg PUBLIC "-//W3C//DTD SVG 1.1//EN" "http://www.w3.org/Graphics/SVG/1.1/DTD/svg11.dtd"><svg t="1513231997424" class="icon" style="" viewBox="0 0 1024 1024" version="1.1" xmlns="http://www.w3.org/2000/svg" p-id="1944" xmlns:xlink="http://www.w3.org/1999/xlink" width="200" height="200"><defs><style type="text/css"></style></defs><path d="M438.756 471.174H63.584C28.522 471.174 0 442.652 0 407.592V65.568C0 30.508 28.522 1.984 63.584 1.984h342.028c35.06 0 63.584 28.522 63.584 63.584v232.36c0 16.81-13.626 30.438-30.438 30.438-16.81 0-30.438-13.626-30.438-30.438V65.568c0-1.494-1.214-2.708-2.708-2.708H63.584c-1.494 0-2.708 1.214-2.708 2.708v342.028c0 1.494 1.214 2.708 2.708 2.708h375.174c16.81 0 30.438 13.626 30.438 30.438-0.002 16.81-13.63 30.432-30.44 30.432z" fill="#2D527C" p-id="1945"></path><path d="M152.186 154.17h164.816v164.816H152.186z" fill="#CEE8FA" p-id="1946"></path><path d="M317.008 349.426H152.186c-16.81 0-30.438-13.626-30.438-30.438v-164.82c0-16.81 13.626-30.438 30.438-30.438h164.822c16.81 0 30.438 13.626 30.438 30.438v164.82c0 16.812-13.628 30.438-30.438 30.438z m-134.386-60.874h103.948V184.606H182.622v103.946z" fill="#2D527C" p-id="1947"></path><path d="M960.416 440.738H618.39c-18.304 0-33.146-14.842-33.146-33.146V65.568c0-18.304 14.842-33.146 33.146-33.146h342.028c18.304 0 33.146 14.842 33.146 33.146v342.028c-0.002 18.304-14.842 33.142-33.148 33.142z" fill="#CEE8FA" p-id="1948"></path><path d="M960.416 471.174H618.39c-35.06 0-63.584-28.522-63.584-63.584V65.568c0-35.06 28.522-63.584 63.584-63.584h342.028c35.06 0 63.584 28.522 63.584 63.584v342.028c-0.002 35.056-28.524 63.578-63.586 63.578zM618.39 62.858c-1.494 0-2.708 1.214-2.708 2.708v342.028c0 1.494 1.214 2.708 2.708 2.708h342.028c1.494 0 2.708-1.214 2.708-2.708V65.568c0-1.494-1.214-2.708-2.708-2.708H618.39z" fill="#2D527C" p-id="1949"></path><path d="M405.61 991.578H63.584c-18.304 0-33.146-14.842-33.146-33.146V616.406c0-18.304 14.842-33.146 33.146-33.146h342.028c18.304 0 33.146 14.842 33.146 33.146v342.028c-0.002 18.304-14.842 33.144-33.148 33.144z" fill="#CEE8FA" p-id="1950"></path><path d="M405.61 1022.016H63.584C28.522 1022.016 0 993.492 0 958.432V616.406c0-35.06 28.522-63.584 63.584-63.584h342.028c35.06 0 63.584 28.522 63.584 63.584v342.028c-0.002 35.058-28.526 63.582-63.586 63.582zM63.584 613.696c-1.494 0-2.708 1.214-2.708 2.708v342.028c0 1.494 1.214 2.708 2.708 2.708h342.028c1.494 0 2.708-1.214 2.708-2.708V616.406c0-1.494-1.214-2.708-2.708-2.708H63.584zM993.562 1022.016H618.39c-35.06 0-63.584-28.522-63.584-63.582V616.406c0-35.06 28.522-63.584 63.584-63.584h342.028c35.06 0 63.584 28.522 63.584 63.584v231.416c0 16.81-13.626 30.438-30.438 30.438-16.81 0-30.438-13.626-30.438-30.438V616.406c0-1.494-1.214-2.708-2.708-2.708H618.39c-1.494 0-2.708 1.214-2.708 2.708v342.028c0 1.494 1.214 2.708 2.708 2.708h375.174c16.81 0 30.438 13.626 30.438 30.438s-13.628 30.436-30.44 30.436z" fill="#2D527C" p-id="1951"></path><path d="M706.992 705.014h164.816v164.816h-164.816z" fill="#CEE8FA" p-id="1952"></path><path d="M871.814 900.268h-164.822c-16.81 0-30.438-13.626-30.438-30.438v-164.82c0-16.81 13.626-30.438 30.438-30.438h164.822c16.81 0 30.438 13.626 30.438 30.438v164.82c0 16.81-13.626 30.438-30.438 30.438z m-134.384-60.874h103.948v-103.946h-103.948v103.946z" fill="#2D527C" p-id="1953"></path></svg>