<?xml version="1.0" standalone="no"?><!DOCTYPE svg PUBLIC "-//W3C//DTD SVG 1.1//EN" "http://www.w3.org/Graphics/SVG/1.1/DTD/svg11.dtd"><svg class="icon" width="200px" height="200.00px" viewBox="0 0 1024 1024" version="1.1" xmlns="http://www.w3.org/2000/svg"><path fill="#ffffff" d="M499.3751698151348 729.1470827698673h50.49932073946073c100.99864285976228 0 184.32252318454513-83.32388032478289 184.322524565386-184.32252318454513v-328.2455903298581c0-10.099864700228473 0-20.19972801961613-2.524966865477531-30.299592719844604-2.524965484636708-12.624830184865182-15.149797050342713-22.72469488509366-30.299592719844604-20.199729400456945-12.624830184865182 2.524965484636708-22.72469488509366 15.149797050342713-20.19972801961613 30.299592719844604 0 7.574897834750944 2.524965484636708 15.149797050342713 2.524965484636708 22.72469488509366v328.2455903298581c0 73.2240156245544-60.59918543968921 133.8232024450844-133.8232024450844 133.8232024450844h-50.49932073946073c-73.2240156245544 0-133.8232024450844-60.59918543968921-133.8232024450844-133.8232024450844v-328.2455903298581c0-73.2240156245544 60.59918543968921-133.8232024450844 133.8232024450844-133.82320106424362h50.49932073946073c30.299592719844604 0 60.59918543968921 10.099864700228473 85.8488471902604 30.299592719844604 10.099864700228473 10.099864700228473 27.774627235207902 7.574897834750944 35.34952506995885-2.524966865477531s7.574897834750944-27.774627235207902-2.524965484636708-35.34952506995885c-32.82455958532214-27.774627235207902-75.74898249003193-42.92442290470979-118.67340677558252-42.92442290470979h-50.49932073946073c-100.99864285976228 0-184.32252318454513 83.32388032478289-184.32252318454513 184.32252318454513v328.2455903298581c0 100.99864285976228 83.32388032478289 181.7975576999084 184.32252318454513 181.7975576999084z"  /><path fill="#ffffff" d="M860.4453183494741 469.07557709529016c-15.149797050342713 0-25.249660369730364 10.099864700228473-25.249660369730364 25.249660369730364 0 171.69769299967996-138.87313479519864 310.57082779487865-310.57082779487865 310.57082779487865S214.05400238998652 663.4979649800639 214.05400238998652 494.3252374650206c0-15.149797050342713-10.099864700228473-25.249660369730364-25.249660369730364-25.249660369730364s-25.249660369730364 10.099864700228473-25.249660369730364 25.249660369730364c0 189.37245553465942 148.97299811458626 345.9203528648375 335.82048816460895 358.5451830497027v121.19837087937842c0 15.149797050342713 10.099864700228473 25.249660369730364 25.249660369730364 25.24966175057119s25.249660369730364-10.099864700228473 25.249660369730364-25.24966175057119v-121.19837087937842c186.84749005002274-12.624830184865182 335.82048816460895-169.17272751504333 335.82048816460895-358.5451830497027 0-15.149797050342713-12.624830184865182-25.249660369730364-25.249660369730364-25.249660369730364z"  /></svg>