<?xml version="1.0" standalone="no"?><!DOCTYPE svg PUBLIC "-//W3C//DTD SVG 1.1//EN" "http://www.w3.org/Graphics/SVG/1.1/DTD/svg11.dtd"><svg t="1501207743382" class="icon" style="" viewBox="0 0 1024 1024" version="1.1" xmlns="http://www.w3.org/2000/svg" p-id="10771" xmlns:xlink="http://www.w3.org/1999/xlink" width="200" height="200"><defs><style type="text/css"></style></defs><path fill="white" d="M991 361.851c0-23.141-18.781-41.902-41.948-41.902-11.836 0-22.521 4.906-30.15 12.785-0.45 0.411-0.888 0.85-1.298 1.338l-275.372 337.04-178.484-145.173a12.101 12.101 0 0 0-2.395-1.552 41.771 41.771 0 0 0-25.874-8.937c-23.167 0-41.95 18.762-41.95 41.898 0 12.679 5.645 24.035 14.555 31.722a13.158 13.158 0 0 0 2.122 2.238l184.43 150.27c0.85 0.85 0.85 1.698 1.696 1.698l47.602 39.051c5.097 4.243 11.896 3.396 16.147-1.696l316.86-387.491c8.621-7.671 14.059-18.844 14.059-31.289z" p-id="10772"></path><path fill="white" d="M746.609 167.009v13.051h29.562c13.465 0 23.491 9.985 23.491 23.32v181.907l51.622-51.307v-130.6c0-40.888-33.977-74.625-75.113-74.625h-48.013c11.231 8.953 18.451 22.774 18.451 38.254zM261.789 266.62h409.708c27.328 0 49.331-21.805 49.331-48.99v-39.917c0-27.156-22.002-48.958-49.331-48.958h-72.706a102.655 102.655 0 0 0 2.003-20.234c0-57.799-46.807-104.355-104.96-104.355H437.45c-58.153 0-104.96 46.557-104.96 104.355 0 6.927 0.686 13.653 2.003 20.234h-72.704c-27.303 0-49.273 21.803-49.273 48.958v39.917c0 27.185 21.97 48.99 49.273 48.99zM466.67 30.348c27.33 0 49.272 22.259 49.272 49.904 0 23.723-16.184 43.321-37.985 48.503h-22.603c-21.8-5.182-38.042-24.78-38.042-48.503 0.001-27.645 22.03-49.904 49.358-49.904z" p-id="10773"></path><path d="M799.662 944.479c0 13.392-10.026 23.352-23.491 23.352H157.112c-13.464 0-23.489-9.96-23.489-23.352v-741.1c0-13.335 10.025-23.32 23.489-23.32h29.563v-13.051c0-15.537 7.163-29.301 18.392-38.255h-47.955C115.919 128.754 82 162.492 82 203.38v741.1c0 40.947 33.919 74.686 75.112 74.686h619.059c41.136 0 75.113-33.738 75.113-74.686V683.883l-51.622 51.334v209.262z" fill="white"  p-id="10774"></path></svg>