<?xml version="1.0" standalone="no"?><!DOCTYPE svg PUBLIC "-//W3C//DTD SVG 1.1//EN" "http://www.w3.org/Graphics/SVG/1.1/DTD/svg11.dtd"><svg t="1501208665289" class="icon" style="" viewBox="0 0 1024 1024" version="1.1" xmlns="http://www.w3.org/2000/svg" p-id="14218" xmlns:xlink="http://www.w3.org/1999/xlink" width="200" height="200"><defs><style type="text/css"></style></defs><path fill="#fff" d="M874.56 864.768c10.496-10.944 20.224-22.432 28.896-34.624 27.296-38.496 45.12-82.688 52.096-129.824 2.176-14.752 3.68-29.696 3.68-44.928 0-15.2-1.504-30.112-3.68-44.864-10.016-67.36-41.952-128.928-92.064-176-7.616-7.168-15.552-14.112-24-20.608-2.56-1.952-5.376-3.456-7.968-5.344-8-5.728-16-11.424-24.384-16.288-46.24-26.784-98.784-40.928-151.904-40.928-60.288 0-116.384 17.856-163.68 48.224-11.2 7.168-21.888 14.944-32 23.456-66.112 55.808-108.32 139.232-108.32 232.288 0 27.552 3.904 54.496 11.008 80.448 3.008 10.88 6.4 21.568 10.56 32 9.6 24 22.496 46.56 38.016 67.552 7.552 10.176 15.584 20.064 24.448 29.376 0.448 0.512 0.768 1.056 1.248 1.504 0.384 0.448 0.8 0.736 1.184 1.12 10.176 10.368 21.504 20.192 33.504 29.376 0.736 0.576 1.376 1.312 2.112 1.888 53.152 39.744 116.032 60.736 181.952 60.736s128.768-20.992 181.952-60.736l0.096-0.128 2.208-1.632c0.064 0 0.096-0.064 0.128-0.128 11.808-8.992 22.56-19.008 32.736-29.376C873.184 866.592 873.792 865.6 874.56 864.768zM655.264 931.776c-48.64 0-94.112-12.864-133.824-35.008-10.976-6.112-21.568-12.8-31.552-20.256-3.648-2.816-6.784-6.176-10.304-9.12-1.024-0.8-1.984-1.76-3.008-2.624-6.912-5.696-13.92-11.264-20.128-17.696-3.456-3.616-6.144-7.872-9.408-11.68-17.568-20.32-32.768-42.752-43.904-67.552-4.672-10.368-8.896-20.992-12.288-32-7.744-25.44-11.936-52.448-11.936-80.448 0-76.128 30.816-145.12 80.672-195.104 9.888-9.92 20.672-18.848 32-27.2 45.856-33.824 102.304-54.048 163.68-54.048 50.336 0 97.44 13.696 138.08 37.216 10.176 5.92 20.032 12.48 29.344 19.616 3.072 2.336 5.824 5.056 8.8 7.52 11.424 9.504 22.176 19.84 31.936 31.04 42.304 48.48 68.192 111.552 68.192 180.928 0 68.928-25.504 131.68-67.264 180-9.184 10.688-19.456 20.256-30.144 29.376-0.96 0.8-1.76 1.824-2.72 2.624-3.008 2.496-5.76 5.184-8.8 7.552-0.704 0.512-1.44 0.992-2.048 1.568-10.016 7.424-20.608 14.112-31.552 20.256C749.408 918.912 703.904 931.776 655.264 931.776z" p-id="14219"></path><path fill="#fff" d="M904.928 896.768c-1.824 0.8-3.52 1.888-4.992 3.328-6.24 6.24-6.24 16.384 0 22.624l96 96c3.136 3.136 7.232 4.672 11.328 4.672s8.192-1.568 11.328-4.672c6.24-6.24 6.24-16.384 0-22.624l-96-96c-1.952-1.952-4.288-3.072-6.72-3.744C912.256 895.232 908.448 895.296 904.928 896.768z" p-id="14220"></path><path d="M355.264 710.656c-6.656-7.616-10.816-17.44-10.816-28.32 0-7.68 2.176-14.816 5.696-21.12 0-1.184-0.256-2.368-0.256-3.616 0-12.448 0.864-24.672 2.304-36.672L80.16 620.928l0-17.824c0-8.512-3.488-16.192-9.056-21.824l-0.032-0.064c-1.216-1.184-2.464-2.24-3.84-3.264l307.264-157.472c6.432 5.024 13.696 8.416 21.12 10.176 8.416 2.016 17.056 1.984 25.056 0 3.712-0.896 7.328-2.208 10.72-3.968l16.352 7.872c3.616-3.456 7.2-7.008 10.976-10.304l-14.592-6.976c12.128-12.608 17.792-32.192 9.184-57.312-3.36-9.76-7.872-18.752-11.488-26.016-2.048-4.064-3.744-7.488-4.224-8.864-0.608-1.792-1.056-3.744-1.376-5.792l18.784-50.784 41.12 0L496.128 56.64l-25.504 0 0-56-25.6 0 0 56-63.168 0 0-56-25.632 0 0 56-26.112 0 0 211.904 49.248 0 18.816 54.784c0.576 5.152 1.696 9.664 3.008 13.792 1.376 4 3.616 8.544 6.304 13.952 3.136 6.272 7.008 14.048 9.504 21.376 3.328 9.568 2.336 15.616-0.64 18.592-1.248 1.216-2.912 2.048-4.8 2.464l-3.2-6.272-8.512 4.352c-4.256-2.656-7.808-7.52-9.28-14.88l-37.472 7.424c2.048 10.304 5.984 18.848 11.072 25.728l-316.672 162.4c-7.776 0.384-14.88 3.744-20.128 8.992-5.568 5.568-9.056 13.376-9.056 21.888l0 17.824L0.736 620.96l0 120 361.056 0c-0.256-0.992-0.672-1.952-0.928-2.88C358.432 729.024 356.896 719.84 355.264 710.656zM39.648 603.104c0-2.624 1.056-4.992 2.816-6.752s4.096-2.816 6.752-2.816 5.024 1.056 6.752 2.752l0.032 0.064c1.728 1.696 2.784 4.128 2.784 6.752l0 17.824L39.648 620.928 39.648 603.104zM85.472 725.6c-23.904 0-43.328-19.36-43.328-43.264 0-23.936 19.392-43.36 43.328-43.36 23.936 0 43.36 19.424 43.36 43.36C128.832 706.208 109.408 725.6 85.472 725.6zM241.152 725.6c-23.904 0-43.328-19.36-43.328-43.264 0-23.936 19.392-43.36 43.328-43.36 23.936 0 43.328 19.424 43.328 43.36C284.48 706.208 265.088 725.6 241.152 725.6z" p-id="14221" fill="#fff"></path></svg>