<?xml version="1.0" standalone="no"?><!DOCTYPE svg PUBLIC "-//W3C//DTD SVG 1.1//EN" "http://www.w3.org/Graphics/SVG/1.1/DTD/svg11.dtd"><svg class="icon" width="200px" height="200.00px" viewBox="0 0 1024 1024" version="1.1" xmlns="http://www.w3.org/2000/svg"><path fill="#dbdbdb" d="M508.972723 720.679828c121.712439 0 220.731137-99.018698 220.731136-220.738362V221.301912c0-121.712439-99.018698-220.731137-220.731136-220.731137C387.260284 0.570775 288.234361 99.589473 288.234361 221.301912v278.639554c0.007225 121.719664 99.025923 220.738362 220.738362 220.738362zM374.94165 221.301912c0-73.904579 60.126494-134.031073 134.038298-134.031073 73.904579 0 134.031073 60.126494 134.031073 134.031073v278.639554c0 73.904579-60.126494 134.038298-134.031073 134.038298s-134.038298-60.126494-134.038298-134.038298V221.301912z"  /><path fill="#dbdbdb" d="M552.322755 877.216792c188.399238-21.588316 335.225796-181.940083 335.225795-376.0254h-86.700063c0 160.944218-130.938771 291.882989-291.890214 291.882989-160.936993 0-291.868539-130.938771-291.868539-291.882989h-86.700063c0 194.092542 146.833783 354.44431 335.23302 376.0254v58.515318H173.739702v86.700064h670.458816v-86.700064H552.322755v-58.515318z"  /></svg>