<?xml version="1.0" standalone="no"?><!DOCTYPE svg PUBLIC "-//W3C//DTD SVG 1.1//EN" "http://www.w3.org/Graphics/SVG/1.1/DTD/svg11.dtd"><svg t="1505097517313" class="icon" style="" viewBox="0 0 1024 1024" version="1.1" xmlns="http://www.w3.org/2000/svg" p-id="3043" xmlns:xlink="http://www.w3.org/1999/xlink" width="200" height="200"><defs><style type="text/css"></style></defs><path d="M538.3821537011789 606.6454732589408l-15.044278732159665-15.045366611162645c22.8606893685446-19.5611523525174 37.402368001329215-48.56944596688123 37.402368001329215-81.02087662566515 0-30.914257627578383-13.234048071207052-58.66931463051349-34.24643101369489-78.14343666279277L541.5750785749145 417.3545267410593c24.862386734021047 23.336092492845253 40.47888982174626 56.40761418332573 40.47888982174626 93.19424266897032 0 38.34011970189482-16.951330624377185 72.64747193975633-43.67181469548179 96.09670384891113z" fill="#108ee9" p-id="3044"></path><path d="M445.08672 766.35648l-72.93952-72.92928c66.28352-36.64384 111.19104-107.16672 111.19104-188.25728 0-73.61536-37.04832-138.5216-93.47072-177.29024l71.62368-71.61344C535.72096 313.97376 583.68 403.88096 583.68 505.16992c0 108.65664-54.95808 204.44672-138.59328 261.18656zM253.96736 591.18592c-39.5776 0-71.66976-32.08192-71.66976-71.67488 0-39.59808 32.08704-71.67488 71.66976-71.67488 39.60832 0 71.68 32.0768 71.68 71.67488 0 39.59296-32.07168 71.67488-71.68 71.67488z" fill="#108ee9" p-id="3045"></path></svg>