<?xml version="1.0" standalone="no"?><!DOCTYPE svg PUBLIC "-//W3C//DTD SVG 1.1//EN" "http://www.w3.org/Graphics/SVG/1.1/DTD/svg11.dtd"><svg class="icon" width="200px" height="200.00px" viewBox="0 0 1024 1024" version="1.1" xmlns="http://www.w3.org/2000/svg"><path fill="#fff" d="M868.6 96H720c-7.6 0-15.2 2.9-21 8.7s-8.7 13.4-8.7 21 2.9 15.2 8.7 21 13.4 8.7 21 8.7h148.6V304c0 7.6 2.9 15.2 8.7 21s13.4 8.7 21 8.7 15.2-2.9 21-8.7 8.7-13.4 8.7-21V155.4c0-32.8-26.6-59.4-59.4-59.4zM928 868.6V720c0-7.6-2.9-15.2-8.7-21s-13.4-8.7-21-8.7-15.2 2.9-21 8.7-8.7 13.4-8.7 21v148.6H720c-7.6 0-15.2 2.9-21 8.7s-8.7 13.4-8.7 21 2.9 15.2 8.7 21 13.4 8.7 21 8.7h148.6c32.8 0 59.4-26.6 59.4-59.4zM155.4 928H304c7.6 0 15.2-2.9 21-8.7s8.7-13.4 8.7-21-2.9-15.2-8.7-21-13.4-8.7-21-8.7H155.4V720c0-7.6-2.9-15.2-8.7-21-5.8-5.8-13.4-8.7-21-8.7s-15.2 2.9-21 8.7-8.7 13.4-8.7 21v148.6c0 32.8 26.6 59.4 59.4 59.4zM96 155.4V304c0 7.6 2.9 15.2 8.7 21 5.8 5.8 13.4 8.7 21 8.7s15.2-2.9 21-8.7c5.8-5.8 8.7-13.4 8.7-21V155.4H304c7.6 0 15.2-2.9 21-8.7s8.7-13.4 8.7-21-2.9-15.2-8.7-21-13.4-8.7-21-8.7H155.4C122.6 96 96 122.6 96 155.4zM898.3 541.7H125.7c-16.4 0-29.7-13.3-29.7-29.7s13.3-29.7 29.7-29.7h772.6c16.4 0 29.7 13.3 29.7 29.7s-13.3 29.7-29.7 29.7z" /></svg>