<?xml version="1.0" standalone="no"?><!DOCTYPE svg PUBLIC "-//W3C//DTD SVG 1.1//EN" "http://www.w3.org/Graphics/SVG/1.1/DTD/svg11.dtd"><svg t="1532512921787" class="icon" style="" viewBox="0 0 1024 1024" version="1.1" xmlns="http://www.w3.org/2000/svg" p-id="6036" xmlns:xlink="http://www.w3.org/1999/xlink" width="200" height="200"><defs><style type="text/css"></style></defs><path d="M837.922513 480.249879c-14.369266 0-26.061562 11.691273-26.061562 26.062586l0 286.321074c0 52.686966-39.423895 95.55224-87.88563 95.55224l-504.295528 0c-48.458665 0-87.88256-42.865273-87.88256-95.55224L131.797233 275.609105c0-52.699246 39.423895-95.572706 87.88256-95.572706l347.403245 0c14.371312 0 26.062586-11.691273 26.062586-26.061562 0-14.369266-11.691273-26.060539-26.062586-26.060539l-347.402221 0c-77.19822 0-140.004661 66.256006-140.004661 147.694807l0 517.022387c0 81.427544 62.805418 147.676387 140.004661 147.676387l504.295528 0c77.165474 0 139.972938-66.243727 140.007731-147.676387l0-286.321074C863.985098 491.941152 852.293825 480.249879 837.922513 480.249879z" p-id="6037" fill="#13227a"></path><path d="M243.583203 405.189346l275.630594 0c14.369266 0 26.060539-11.692297 26.060539-26.061562 0-14.370289-11.691273-26.061562-26.060539-26.061562L243.583203 353.066221c-14.369266 0-26.060539 11.691273-26.060539 26.061562C217.522664 393.497049 229.212914 405.189346 243.583203 405.189346z" p-id="6038" fill="#13227a"></path><path d="M243.583203 590.211293l275.630594 0c14.369266 0 26.060539-11.691273 26.060539-26.061562s-11.691273-26.062586-26.060539-26.062586L243.583203 538.087145c-14.369266 0-26.060539 11.692297-26.060539 26.062586S229.212914 590.211293 243.583203 590.211293z" p-id="6039" fill="#13227a"></path><path d="M973.192336 191.666274 786.577101 42.008766c-6.497994-5.223978-13.771655-7.984858-21.036106-7.984858-6.202259 0-10.970866 1.939165-13.892405 3.577478-4.146437 2.297322-17.120936 11.227716-14.852266 31.709189l5.834892 53.446259c-0.031722 1.319042-0.929162 4.403287-1.610684 5.538133l-30.612205 38.142715c-0.969071 0.912789-3.803629 2.445702-5.077645 2.746554l-53.253878 5.851265c-13.984503 1.532913-29.870308 10.270924-38.575574 21.176298l-7.141654 8.810666c-6.42841 8.051373-9.331529 18.137079-8.175193 28.3947 1.154289 10.247388 6.215562 19.421328 14.224979 25.807782l74.712609 59.904345-113.992217 142.208862c-4.224208 5.240351-6.15007 11.811-5.420453 18.499329 0.725524 6.667863 4.001127 12.646018 9.224082 16.844643 4.445242 3.605108 10.04068 5.591345 15.760962 5.591345 7.705496 0 14.869662-3.463891 19.609617-9.44614L742.107283 330.967924c8.66945-10.828626 6.925736-26.692942-3.850701-35.332716l-84.7318-68.517513c1.279133-0.86981 3.196809-1.851161 4.190439-2.080382l53.31323-5.856381c14.080693-1.567705 29.971615-10.32209 38.591947-21.218254l30.803563-38.35761c8.835226-11.042497 13.872962-28.440749 12.263301-42.335201l-0.705058-6.471388 112.889093 90.534969-6.474458 0.714268c-13.865799 1.533936-29.741371 10.224876-38.667671 21.210068l-30.670533 38.327934c-8.78099 10.876722-13.876032 28.28316-12.385075 42.36897l5.830799 53.324486c-0.010233 1.322112-0.918929 4.457522-1.61887 5.574972l-1.372254 1.709945c-1.562589-0.302899-3.157923-0.458441-4.76042-0.458441-7.679913 0-14.833847 3.434216-19.639293 9.438976-8.648984 10.840906-6.898107 26.698059 3.943822 35.381835 6.830569 5.424546 15.384385 8.411577 24.085558 8.410554 11.789511-0.001023 22.776749-5.265934 30.16195-14.46648l6.864338-8.587586c8.837272-10.895141 13.933337-28.316929 12.395308-42.377156l-5.880941-53.284577c0.00307-1.329275 0.917906-4.504594 1.627057-5.64865l30.516014-38.0762c0.962931-0.941442 3.882424-2.540869 5.200442-2.850931l53.298903-5.853311c20.568455-2.276856 26.451442-16.98586 27.788903-21.525246C988.531696 212.749452 984.07929 200.414519 973.192336 191.666274z" p-id="6040" fill="#13227a"></path><path d="M243.583203 775.229147 657.024489 775.229147c14.369266 0 26.060539-11.691273 26.060539-26.060539 0-14.371312-11.691273-26.062586-26.060539-26.062586L243.583203 723.106022c-14.369266 0-26.060539 11.691273-26.060539 26.062586C217.522664 763.53992 229.212914 775.229147 243.583203 775.229147z" p-id="6041" fill="#13227a"></path></svg>