<?xml version="1.0" standalone="no"?><!DOCTYPE svg PUBLIC "-//W3C//DTD SVG 1.1//EN" "http://www.w3.org/Graphics/SVG/1.1/DTD/svg11.dtd"><svg class="icon" width="200px" height="200.00px" viewBox="0 0 1024 1024" version="1.1" xmlns="http://www.w3.org/2000/svg"><path d="M605 898.78H205.32a80.16 80.16 0 0 1-80.07-80.07v-675a18.48 18.48 0 0 1 18.48-18.48H605a18.48 18.48 0 0 1 18.48 18.48V880.3A18.48 18.48 0 0 1 605 898.78zM162.21 162.17v656.54a43.17 43.17 0 0 0 43.11 43.11h381.17V162.17z" fill="#ffffff" /><path d="M880.27 898.78H605a18.48 18.48 0 0 1 0-37h256.79V484.51a43.17 43.17 0 0 0-43.11-43.11H666.6a18.48 18.48 0 0 1 0-37h152.08a80.16 80.16 0 0 1 80.07 80.07V880.3a18.48 18.48 0 0 1-18.48 18.48z" fill="#ffffff" /><path d="M527.84 274.08H224a18.48 18.48 0 0 1 0-37h303.84a18.48 18.48 0 0 1 0 37zM527.84 390.07H224a18.48 18.48 0 0 1 0-37h303.84a18.48 18.48 0 0 1 0 37zM812.18 551.11h-139.6a18.48 18.48 0 0 1 0-37h139.6a18.48 18.48 0 0 1 0 37z" fill="#ffffff" /></svg>