<?xml version="1.0" standalone="no"?><!DOCTYPE svg PUBLIC "-//W3C//DTD SVG 1.1//EN" "http://www.w3.org/Graphics/SVG/1.1/DTD/svg11.dtd"><svg t="1552630977718" class="icon" style="" viewBox="0 0 1024 1024" version="1.1" xmlns="http://www.w3.org/2000/svg" p-id="27700" xmlns:xlink="http://www.w3.org/1999/xlink" width="200" height="200"><defs><style type="text/css"></style></defs><path d="M863.635096 133.112509v809.657466H160.359809V133.112509h703.275287" p-id="27701"></path><path d="M883.549002 51.884737H139.921853A60.789816 60.789816 0 0 0 79.132037 112.674553v850.533377a60.789816 60.789816 0 0 0 60.789816 60.789817h743.627149a60.789816 60.789816 0 0 0 61.313866-60.789817V112.674553a60.789816 60.789816 0 0 0-61.313866-60.789816z" fill="#2588C4" p-id="27702"></path><path d="M296.088795 308.669306a8.384802 8.384802 0 0 0-7.336702 4.716451l-14.673404 29.346808a7.336702 7.336702 0 0 1-6.288602 4.716451l-32.491108 4.716451a8.908852 8.908852 0 0 0-5.240502 14.673404l23.582256 23.058206a8.908852 8.908852 0 0 1 2.620251 7.860752L250.496433 429.724888a9.432903 9.432903 0 0 0 8.908852 10.481003l3.668351-1.048101 29.346808-15.197454a5.764552 5.764552 0 0 1 4.192401-1.0481 5.240501 5.240501 0 0 1 3.668351 1.0481l29.346808 15.197454 4.192401 1.048101a8.908852 8.908852 0 0 0 8.384802-10.481003l-5.764551-31.967059a8.908852 8.908852 0 0 1 2.62025-7.860752l23.582257-23.058206a8.908852 8.908852 0 0 0-4.716452-14.673404l-32.491108-4.716451a7.860752 7.860752 0 0 1-6.812652-4.716451L304.473597 313.385757a9.432903 9.432903 0 0 0-8.384802-4.716451zM296.088795 501.519757a8.384802 8.384802 0 0 0-7.336702 4.716451l-14.673404 29.870858a8.384802 8.384802 0 0 1-6.288602 4.716452l-32.491108 4.716451a8.908852 8.908852 0 0 0-5.240502 14.673404l23.582256 23.058206a7.860752 7.860752 0 0 1 2.620251 7.336702l-5.764551 32.491109a8.908852 8.908852 0 0 0 8.908852 9.956952 5.240501 5.240501 0 0 0 3.668351-1.0481l29.346808-15.197454 4.192401-1.0481 3.668351 1.0481 29.346808 15.197454a5.764552 5.764552 0 0 0 4.192401 1.0481 8.908852 8.908852 0 0 0 8.384802-9.956952l-5.764551-32.491109a7.860752 7.860752 0 0 1 2.62025-7.336702l23.582257-23.058206a8.384802 8.384802 0 0 0-4.716452-14.673404l-32.491108-4.716451a9.432903 9.432903 0 0 1-6.812652-4.716452L304.473597 506.236208a9.432903 9.432903 0 0 0-8.384802-4.716451zM528.767057 0.003773a39.30376 39.30376 0 0 0-39.827811 38.25566v60.789817a39.827811 39.827811 0 0 0 79.131571 0V38.259433A38.77971 38.77971 0 0 0 528.767057 0.003773zM379.412767 0.003773a39.30376 39.30376 0 0 0-39.827811 38.25566v60.789817a39.827811 39.827811 0 0 0 79.655622 0V38.259433A39.30376 39.30376 0 0 0 379.412767 0.003773zM677.597297 0.003773a38.77971 38.77971 0 0 0-39.303761 38.25566v60.789817a39.827811 39.827811 0 0 0 79.131571 0V38.259433a39.30376 39.30376 0 0 0-39.82781-38.25566zM638.817586 615.762688h-167.696044a40.351861 40.351861 0 0 1-40.351861-40.875911 39.827811 39.827811 0 0 1 40.351861-40.351861h167.696044a40.351861 40.351861 0 0 1 40.875911 40.351861 40.875911 40.875911 0 0 1-40.875911 40.875911zM760.921269 420.816036H471.121542a40.351861 40.351861 0 0 1-40.351861-40.875911 39.827811 39.827811 0 0 1 40.351861-40.351861h289.799727a39.827811 39.827811 0 0 1 40.351861 40.351861 40.351861 40.351861 0 0 1-40.351861 40.875911z" fill="#C7E2F3" p-id="27703"></path></svg>