<?xml version="1.0" standalone="no"?><!DOCTYPE svg PUBLIC "-//W3C//DTD SVG 1.1//EN" "http://www.w3.org/Graphics/SVG/1.1/DTD/svg11.dtd"><svg t="1552631404544" class="icon" style="" viewBox="0 0 1129 1024" version="1.1" xmlns="http://www.w3.org/2000/svg" p-id="31215" xmlns:xlink="http://www.w3.org/1999/xlink" width="220.5078125" height="200"><defs><style type="text/css"></style></defs><path d="M466.449655 555.784828h-10.24a93.395862 93.395862 0 1 1 10.24 0z m0-151.128276a57.908966 57.908966 0 1 0 36.369655 103.106207 57.202759 57.202759 0 0 0 21.186207-38.84138 57.908966 57.908966 0 0 0-51.2-63.911724z" fill="#3164AF" p-id="31216"></path><path d="M466.626207 617.931034a141.241379 141.241379 0 0 1-17.655173 0 156.248276 156.248276 0 1 1 17.655173 0z m0-275.773793a120.231724 120.231724 0 1 0 119.878621 133.296552 120.408276 120.408276 0 0 0-105.931035-132.590345 110.874483 110.874483 0 0 0-14.477241-0.529655z" fill="#3164AF" p-id="31217"></path><path d="M331.211034 767.470345a66.56 66.56 0 0 1-10.24 0A93.21931 93.21931 0 1 1 423.724138 684.314483a93.395862 93.395862 0 0 1-92.336552 83.155862z m0-151.128276a57.908966 57.908966 0 0 0-35.310344 12.711724 58.085517 58.085517 0 0 0-8.827587 81.390345 57.908966 57.908966 0 0 0 101.34069-30.013793 58.085517 58.085517 0 0 0-51.376552-63.735173z" fill="#3164AF" p-id="31218"></path><path d="M331.211034 829.793103h-17.655172a155.718621 155.718621 0 0 1 2.295172-309.671724 17.655172 17.655172 0 0 1 3.177932 35.310345 120.408276 120.408276 0 0 0-108.049656 105.931035 120.231724 120.231724 0 0 0 224.573793 70.620689 17.655172 17.655172 0 0 1 30.896552 17.655173A155.542069 155.542069 0 0 1 331.211034 829.793103zM554.195862 586.504828a17.655172 17.655172 0 0 1-13.947586-6.885518 17.655172 17.655172 0 0 1 3.177931-24.717241l175.668965-136.474483 12.888276-9.886896a185.732414 185.732414 0 0 0 63.382069-66.206897 108.049655 108.049655 0 0 0-9.533793-110.168276 125.704828 125.704828 0 0 0-134.355862-45.020689c-40.253793 10.24-74.504828 39.017931-107.696552 66.736551-13.064828 10.946207-26.482759 22.068966-40.077241 32.132414l-105.931035 77.85931A17.655172 17.655172 0 1 1 376.937931 335.448276l105.931035-77.85931c12.888276-9.357241 25.246897-19.773793 38.488275-30.72 36.193103-30.366897 73.622069-61.793103 121.467587-73.975173a159.77931 159.77931 0 0 1 171.07862 57.732414 141.241379 141.241379 0 0 1 13.771035 146.537931 217.511724 217.511724 0 0 1-74.151724 79.448276c-4.237241 3.177931-8.474483 6.355862-12.535173 9.710345L564.965517 582.62069a17.655172 17.655172 0 0 1-10.769655 3.884138zM600.275862 776.827586h-10.24a93.21931 93.21931 0 0 1 20.303448-185.202758 92.16 92.16 0 0 1 62.499311 34.251034 93.21931 93.21931 0 0 1 19.950345 68.502069A93.042759 93.042759 0 0 1 600.275862 776.827586z m0-150.951724a57.908966 57.908966 0 0 0-36.193103 12.711724 58.085517 58.085517 0 1 0 42.548965-12.35862z" fill="#3164AF" p-id="31219"></path><path d="M600.275862 840.033103h-17.655172a155.718621 155.718621 0 0 1-137.710345-171.608275 152.717241 152.717241 0 0 1 17.655172-56.32 17.655172 17.655172 0 1 1 31.073104 17.655172A120.231724 120.231724 0 1 0 612.457931 564.965517a17.655172 17.655172 0 0 1-15.536552-19.420689 17.655172 17.655172 0 0 1 19.42069-15.536552A155.542069 155.542069 0 0 1 600.275862 840.033103z" fill="#3164AF" p-id="31220"></path><path d="M687.315862 808.253793a17.655172 17.655172 0 0 1-13.947586-6.708965 17.655172 17.655172 0 0 1 3.177931-24.717242l176.551724-136.474483 12.888276-9.710344A188.733793 188.733793 0 0 0 928.485517 564.965517a108.049655 108.049655 0 0 0-9.533793-110.168276 125.704828 125.704828 0 0 0-134.355862-45.197241 17.655172 17.655172 0 1 1-8.827586-34.074483 159.77931 159.77931 0 0 1 171.078621 57.732414 141.241379 141.241379 0 0 1 13.771034 146.361379 218.041379 218.041379 0 0 1-74.151724 79.624828l-12.535173 9.533793-176.551724 136.474483a17.655172 17.655172 0 0 1-10.063448 3.001379zM279.481379 563.906207a17.655172 17.655172 0 0 1-9.533793-32.485517l57.555862-37.075862a17.655172 17.655172 0 0 1 18.714483 30.013793l-57.37931 36.193103a17.655172 17.655172 0 0 1-9.357242 3.354483z" fill="#3164AF" p-id="31221"></path></svg>