<?xml version="1.0" standalone="no"?><!DOCTYPE svg PUBLIC "-//W3C//DTD SVG 1.1//EN" "http://www.w3.org/Graphics/SVG/1.1/DTD/svg11.dtd"><svg t="1552631502468" class="icon" style="" viewBox="0 0 1024 1024" version="1.1" xmlns="http://www.w3.org/2000/svg" p-id="31800" xmlns:xlink="http://www.w3.org/1999/xlink" width="200" height="200"><defs><style type="text/css"></style></defs><path d="M542 112h370v370H542V112z m98 87h174v-27H640v27z m41 312c2.49-1.43 21.89 20.84 22 38 0.12 17.87-11.43 48.91-17.6 80.63l-53.88-51.68c15.87-9.01 28.59-16.09 33.48-23.95 30.05-27.81 9.39-39.19 16-43z m98 139c-50.36-37.59-10.51-100.06-10-96 4.34 34.8 6.38 40.2 38 54 51.55 22.5 69 72.71 69 129a174.6 174.6 0 0 1-12.04 63.92l-86.56-83.03c21.47-17.13 29.06-47.39 1.6-67.89z m116 262L512 535l19-23 381 377zM112 542h370v370H112V542z m98 87h174v-27H210v27z m-98-517h370v370H112V112z m98 87h174v-27H210v27z m521.72 594.37C719.11 785.06 702.37 780 684 780c-39.21 0-71 23.06-71 51.5s31.79 51.5 71 51.5 71-23.06 71-51.5a39.867 39.867 0 0 0-6.6-21.68l63.46 62.59A174.3 174.3 0 0 1 701 912c-96.65 0-175.78-78.35-175-175 0.41-50.02 16.85-84.13 38.37-108.69z" fill="#4AD3FE" p-id="31801"></path></svg>