<?xml version="1.0" standalone="no"?><!DOCTYPE svg PUBLIC "-//W3C//DTD SVG 1.1//EN" "http://www.w3.org/Graphics/SVG/1.1/DTD/svg11.dtd"><svg t="1552631292641" class="icon" style="" viewBox="0 0 1024 1024" version="1.1" xmlns="http://www.w3.org/2000/svg" p-id="30662" xmlns:xlink="http://www.w3.org/1999/xlink" width="200" height="200"><defs><style type="text/css"></style></defs><path d="M108.8 562.56c-1.92 0-3.84-0.64-5.12-1.92-3.2-3.2-3.2-7.68 0-10.88l37.12-37.12c3.2-3.2 7.68-3.2 10.88 0s3.2 7.68 0 10.88l-37.12 37.12c-1.92 1.28-3.84 1.92-5.76 1.92zM114.56 595.2c-1.92 0-3.84-0.64-5.12-1.92-3.2-3.2-3.2-7.68 0-10.88L179.2 512.64c3.2-3.2 7.68-3.2 10.88 0s3.2 7.68 0 10.88l-70.4 69.76c-1.28 1.28-3.2 1.92-5.12 1.92zM147.2 678.4c-1.92 0-3.84-0.64-5.12-1.92-3.2-3.2-3.2-7.68 0-10.88L294.4 512.64c3.2-3.2 7.68-3.2 10.88 0s3.2 7.68 0 10.88l-152.96 152.96c-1.28 1.28-3.2 1.92-5.12 1.92zM161.92 702.08c-1.92 0-3.84-0.64-5.12-1.92-3.2-3.2-3.2-7.68 0-10.88L332.8 512.64c3.2-3.2 7.68-3.2 10.88 0s3.2 7.68 0 10.88l-176.64 176.64c-1.28 1.28-3.2 1.92-5.12 1.92zM133.76 653.44c-1.92 0-3.84-0.64-5.12-1.92-3.2-3.2-3.2-7.68 0-10.88l127.36-128c3.2-3.2 7.68-3.2 10.88 0s3.2 7.68 0 10.88l-127.36 127.36c-1.92 1.28-3.84 2.56-5.76 2.56zM122.88 625.28c-1.92 0-3.84-0.64-5.12-1.92-3.2-3.2-3.2-7.68 0-10.88L217.6 512.64c3.2-3.2 7.68-3.2 10.88 0s3.2 7.68 0 10.88L128.64 623.36c-1.92 1.28-3.84 1.92-5.76 1.92zM178.56 723.84c-1.92 0-3.84-0.64-5.12-1.92-3.2-3.2-3.2-7.68 0-10.88l198.4-198.4c3.2-3.2 7.68-3.2 10.88 0s3.2 7.68 0 10.88l-198.4 198.4c-1.92 1.28-3.84 1.92-5.76 1.92zM239.36 779.52c-1.92 0-3.84-0.64-5.12-1.92-3.2-3.2-3.2-7.68 0-10.88L409.6 590.08c3.2-3.2 7.68-3.2 10.88 0s3.2 7.68 0 10.88l-176 176c-1.28 1.92-3.2 2.56-5.12 2.56zM263.04 794.24c-1.92 0-3.84-0.64-5.12-1.92-3.2-3.2-3.2-7.68 0-10.88L409.6 629.12c3.2-3.2 7.68-3.2 10.88 0s3.2 7.68 0 10.88l-152.32 152.32c-1.28 1.28-3.2 1.92-5.12 1.92zM217.6 762.88c-1.92 0-3.84-0.64-5.12-1.92-3.2-3.2-3.2-7.68 0-10.88l197.12-198.4c3.2-3.2 7.68-3.2 10.88 0s3.2 7.68 0 10.88l-197.76 197.76c-1.28 1.28-3.2 2.56-5.12 2.56zM197.12 744.32c-1.92 0-3.84-0.64-5.12-1.92-3.2-3.2-3.2-7.68 0-10.88l218.24-218.88c3.2-3.2 7.68-3.2 10.88 0s3.2 7.68 0 10.88L202.88 742.4c-1.92 1.28-3.84 1.92-5.76 1.92zM346.24 826.24c-1.92 0-3.84-0.64-5.12-1.92-3.2-3.2-3.2-7.68 0-10.88l69.12-69.12c3.2-3.2 7.68-3.2 10.88 0s3.2 7.68 0 10.88L352 824.32c-1.92 1.28-3.84 1.92-5.76 1.92zM379.52 832c-1.92 0-3.84-0.64-5.12-1.92-3.2-3.2-3.2-7.68 0-10.88l35.84-35.84c3.2-3.2 7.68-3.2 10.88 0s3.2 7.68 0 10.88l-35.84 35.84c-1.92 1.28-3.84 1.92-5.76 1.92zM316.16 817.92c-1.92 0-3.84-0.64-5.12-1.92-3.2-3.2-3.2-7.68 0-10.88l99.2-99.2c3.2-3.2 7.68-3.2 10.88 0s3.2 7.68 0 10.88l-99.2 99.2c-1.92 1.28-3.84 1.92-5.76 1.92zM288.64 807.04c-1.92 0-3.84-0.64-5.12-1.92-3.2-3.2-3.2-7.68 0-10.88l126.72-126.72c3.2-3.2 7.68-3.2 10.88 0s3.2 7.68 0 10.88L294.4 805.12c-1.92 1.28-3.84 1.92-5.76 1.92z" fill="#00ABE0" p-id="30663"></path><path d="M415.36 833.92c-174.08 0-316.16-141.44-316.16-316.16 0-4.48 3.2-7.68 7.68-7.68h308.48c1.92 0 3.84 0.64 5.12 1.92 1.28 1.28 1.92 3.2 1.92 5.12V825.6c0 1.92-0.64 3.84-1.92 5.12-1.28 2.56-3.2 3.2-5.12 3.2zM113.92 525.44c3.84 160 133.76 289.28 293.76 293.12V524.8l-293.76 0.64z" fill="#00ABE0" p-id="30664"></path><path d="M515.2 734.08c-4.48 0-7.68-3.2-7.68-7.68s3.2-7.68 7.68-7.68c165.76 0 300.8-135.04 300.8-301.44 0-165.76-135.04-300.8-301.44-300.8-165.76 0-300.8 135.04-300.8 301.44 0 4.48-3.2 7.68-7.68 7.68S198.4 422.4 198.4 417.92C198.4 243.2 339.84 101.76 514.56 101.12c174.08 0 316.16 141.44 316.16 316.16 0 84.48-32.64 163.84-92.16 224-59.52 60.16-138.88 92.8-223.36 92.8z" fill="#211D1C" p-id="30665"></path><path d="M515.2 734.08c-4.48 0-7.68-3.2-7.68-7.68v-262.4h-224c-1.28 0-2.56 0-3.2-0.64l-77.44-39.04c-3.2-1.28-4.48-5.12-3.84-8.32 0.64-3.2 3.84-5.76 7.68-5.76h308.48c4.48 0 7.68 3.2 7.68 7.68v308.48c0 4.48-3.2 7.68-7.68 7.68zM238.08 425.6l47.36 23.68h222.08v-23.68H238.08z" fill="#211D1C" p-id="30666"></path><path d="M587.52 734.08H516.48c-4.48 0-7.68-3.2-7.68-7.68s3.2-7.68 7.68-7.68h71.04c80.64 0 156.16-31.36 213.12-88.32 56.96-56.96 88.32-132.48 88.32-213.12 0-80.64-31.36-156.16-88.32-213.12-56.96-56.96-132.48-88.32-212.48-88.32H517.12c-4.48 0-7.68-3.2-7.68-7.68s3.2-7.68 7.68-7.68h71.04c84.48 0 163.84 32.64 223.36 92.16 59.52 59.52 92.8 138.88 92.8 223.36s-32.64 163.84-92.16 224c-60.8 60.8-140.16 94.08-224.64 94.08z" fill="#211D1C" p-id="30667"></path><path d="M415.36 833.92c-4.48 0-7.68-3.2-7.68-7.68s3.2-7.68 7.68-7.68h31.36V596.48l-38.4-75.52c-1.92-3.84-0.64-8.32 3.2-10.24 3.84-1.92 8.32-0.64 10.24 3.2L460.8 591.36c0.64 1.28 0.64 1.92 0.64 3.2v231.68c0 4.48-3.2 7.68-7.68 7.68h-38.4z" fill="#00ABE0" p-id="30668"></path><path d="M530.56 849.28c-1.92 0-3.84-0.64-5.12-1.92-3.2-3.2-3.2-7.68 0-10.88l38.4-38.4c3.2-3.2 7.68-3.2 10.88 0s3.2 7.68 0 10.88l-38.4 38.4c-1.92 0.64-3.84 1.92-5.76 1.92zM569.6 887.68c-1.92 0-3.84-0.64-5.12-1.92-3.2-3.2-3.2-7.68 0-10.88l38.4-38.4c3.2-3.2 7.68-3.2 10.88 0s3.2 7.68 0 10.88l-38.4 38.4c-1.92 1.28-3.84 1.92-5.76 1.92zM530.56 887.68c-1.92 0-3.84-0.64-5.12-1.92-3.2-3.2-3.2-7.68 0-10.88l76.8-77.44c3.2-3.2 7.68-3.2 10.88 0s3.2 7.68 0 10.88l-76.8 77.44c-1.92 1.28-3.84 1.92-5.76 1.92z" fill="#211D1C" p-id="30669"></path><path d="M530.56 887.68c-4.48 0-7.68-3.2-7.68-7.68v-77.44c0-4.48 3.2-7.68 7.68-7.68H608c4.48 0 7.68 3.2 7.68 7.68v77.44c0 4.48-3.2 7.68-7.68 7.68H530.56z m7.68-77.44v62.08h62.08v-62.08h-62.08z" fill="#211D1C" p-id="30670"></path><path d="M661.76 820.48c-4.48 0-7.68-3.2-7.68-7.68s3.2-7.68 7.68-7.68h231.68c4.48 0 7.68 3.2 7.68 7.68s-3.2 7.68-7.68 7.68h-231.68zM661.76 849.28c-4.48 0-7.68-3.2-7.68-7.68s3.2-7.68 7.68-7.68h231.68c4.48 0 7.68 3.2 7.68 7.68s-3.2 7.68-7.68 7.68h-231.68zM661.76 878.08c-4.48 0-7.68-3.2-7.68-7.68s3.2-7.68 7.68-7.68h231.68c4.48 0 7.68 3.2 7.68 7.68s-3.2 7.68-7.68 7.68h-231.68z" fill="#211D1C" p-id="30671"></path><path d="M192 793.6c-1.92 0-3.84-0.64-5.12-1.92-3.2-2.56-3.2-7.68-0.64-10.88l1.28-1.28c2.56-3.2 7.68-3.2 10.88-0.64s3.2 7.68 0.64 10.88l-1.28 1.28c-1.92 1.28-3.84 2.56-5.76 2.56zM68.48 935.04c-1.92 0-3.84-0.64-5.12-1.92-3.2-2.56-3.2-7.68-0.64-10.88l1.92-1.92c2.56-3.2 7.68-3.2 10.88-0.64s3.2 7.68 0.64 10.88l-1.92 1.92c-1.28 1.92-3.2 2.56-5.76 2.56z m14.08-15.36c-1.92 0-3.84-0.64-5.12-1.92-3.2-2.56-3.2-7.68-0.64-10.88l1.92-1.92c2.56-3.2 7.68-3.2 10.88-0.64s3.2 7.68 0.64 10.88l-1.92 1.92c-1.92 1.28-3.84 2.56-5.76 2.56z m13.44-16c-1.92 0-3.84-0.64-5.12-1.92-3.2-2.56-3.2-7.68-0.64-10.88l1.92-1.92c2.56-3.2 7.68-3.2 10.88-0.64s3.2 7.68 0.64 10.88l-1.92 1.92c-1.28 1.92-3.84 2.56-5.76 2.56z m13.44-16c-1.92 0-3.84-0.64-5.12-1.92-3.2-2.56-3.2-7.68-0.64-10.88l1.92-1.92c2.56-3.2 7.68-3.2 10.88-0.64s3.2 7.68 0.64 10.88l-1.92 1.92c-1.28 1.92-3.2 2.56-5.76 2.56z m14.08-15.36c-1.92 0-3.84-0.64-5.12-1.92-3.2-2.56-3.2-7.68-0.64-10.88l1.92-1.92c2.56-3.2 7.68-3.2 10.88-0.64s3.2 7.68 0.64 10.88l-1.92 1.92c-1.92 1.28-3.84 2.56-5.76 2.56z m13.44-16c-1.92 0-3.84-0.64-5.12-1.92-3.2-2.56-3.2-7.68-0.64-10.88l1.92-1.92c2.56-3.2 7.68-3.2 10.88-0.64s3.2 7.68 0.64 10.88l-1.92 1.92c-1.28 1.92-3.84 2.56-5.76 2.56z m14.08-15.36c-1.92 0-3.84-0.64-5.12-1.92-3.2-2.56-3.2-7.68-0.64-10.88l1.92-1.92c2.56-3.2 7.68-3.2 10.88-0.64s3.2 7.68 0.64 10.88l-1.92 1.92c-1.92 1.28-3.84 2.56-5.76 2.56z m13.44-16c-1.92 0-3.84-0.64-5.12-1.92-3.2-2.56-3.2-7.68-0.64-10.88l1.92-1.92c2.56-3.2 7.68-3.2 10.88-0.64s3.2 7.68 0.64 10.88l-1.92 1.92c-1.28 1.92-3.84 2.56-5.76 2.56z m13.44-16c-1.92 0-3.84-0.64-5.12-1.92-3.2-2.56-3.2-7.68-0.64-10.88l1.92-1.92c2.56-3.2 7.68-3.2 10.88-0.64s3.2 7.68 0.64 10.88l-1.92 1.92c-1.28 1.92-3.2 2.56-5.76 2.56zM57.6 949.76h-1.92c-3.2 0-5.76-1.92-7.04-4.48-1.28-2.56-0.64-5.76 1.28-8.32l1.28-1.28c2.56-3.2 7.68-3.2 10.88-0.64 1.28 0.64 1.92 1.92 1.92 3.2 0.64 1.28 1.28 2.56 1.28 3.84-0.64 4.48-3.84 7.68-7.68 7.68zM76.16 949.76c-4.48 0-7.68-3.2-7.68-7.68s3.2-7.68 7.68-7.68h3.2c4.48 0 7.68 3.2 7.68 7.68s-3.2 7.68-7.68 7.68h-3.2z m24.96 0h-3.2c-4.48 0-7.68-3.2-7.68-7.68s3.2-7.68 7.68-7.68h3.2c4.48 0 7.68 3.2 7.68 7.68s-3.2 7.68-7.68 7.68z m19.2 0c-4.48 0-7.68-3.2-7.68-7.68s3.2-7.68 7.68-7.68h3.2c4.48 0 7.68 3.2 7.68 7.68s-3.2 7.68-7.68 7.68h-3.2z m21.76 0c-4.48 0-7.68-3.2-7.68-7.68s3.2-7.68 7.68-7.68h3.2c4.48 0 7.68 3.2 7.68 7.68s-3.2 7.68-7.68 7.68h-3.2z m24.96 0h-3.2c-4.48 0-7.68-3.2-7.68-7.68s3.2-7.68 7.68-7.68h3.2c4.48 0 7.68 3.2 7.68 7.68s-3.2 7.68-7.68 7.68z m19.2 0c-4.48 0-7.68-3.2-7.68-7.68s3.2-7.68 7.68-7.68h3.2c4.48 0 7.68 3.2 7.68 7.68s-3.2 7.68-7.68 7.68h-3.2z m24.96 0h-3.2c-4.48 0-7.68-3.2-7.68-7.68s3.2-7.68 7.68-7.68h3.2c4.48 0 7.68 3.2 7.68 7.68s-3.2 7.68-7.68 7.68z m21.76 0H230.4c-4.48 0-7.68-3.2-7.68-7.68s3.2-7.68 7.68-7.68h3.2c4.48 0 7.68 3.2 7.68 7.68s-3.84 7.68-8.32 7.68z m19.2 0c-4.48 0-7.68-3.2-7.68-7.68s3.2-7.68 7.68-7.68h3.2c4.48 0 7.68 3.2 7.68 7.68s-3.2 7.68-7.68 7.68h-3.2z m24.96 0h-3.2c-4.48 0-7.68-3.2-7.68-7.68s3.2-7.68 7.68-7.68h3.2c4.48 0 7.68 3.2 7.68 7.68s-3.2 7.68-7.68 7.68z m21.76 0h-3.2c-4.48 0-7.68-3.2-7.68-7.68s3.2-7.68 7.68-7.68h3.2c4.48 0 7.68 3.2 7.68 7.68 0 3.84-3.2 7.68-7.68 7.68z m19.2 0c-4.48 0-7.68-3.2-7.68-7.68s3.2-7.68 7.68-7.68h3.2c4.48 0 7.68 3.2 7.68 7.68s-3.2 7.68-7.68 7.68h-3.2z m24.96 0h-3.2c-4.48 0-7.68-3.2-7.68-7.68s3.2-7.68 7.68-7.68h3.2c4.48 0 7.68 3.2 7.68 7.68 0 3.84-3.2 7.68-7.68 7.68z m21.76 0h-3.2c-4.48 0-7.68-3.2-7.68-7.68s3.2-7.68 7.68-7.68h3.2c4.48 0 7.68 3.2 7.68 7.68 0 3.84-3.2 7.68-7.68 7.68z m19.2 0c-4.48 0-7.68-3.2-7.68-7.68s3.2-7.68 7.68-7.68h3.2c4.48 0 7.68 3.2 7.68 7.68s-3.2 7.68-7.68 7.68H384z m24.96 0h-3.2c-4.48 0-7.68-3.2-7.68-7.68s3.2-7.68 7.68-7.68h3.2c4.48 0 7.68 3.2 7.68 7.68 0 3.84-3.2 7.68-7.68 7.68z m22.4 0h-3.2c-4.48 0-7.68-3.2-7.68-7.68s3.2-7.68 7.68-7.68h3.2c4.48 0 7.68 3.2 7.68 7.68-0.64 3.84-3.84 7.68-7.68 7.68z m18.56 0c-4.48 0-7.68-3.2-7.68-7.68s3.2-7.68 7.68-7.68h3.2c4.48 0 7.68 3.2 7.68 7.68s-3.2 7.68-7.68 7.68h-3.2z m24.96 0h-3.2c-4.48 0-7.68-3.2-7.68-7.68s3.2-7.68 7.68-7.68h3.2c4.48 0 7.68 3.2 7.68 7.68 0 3.84-3.2 7.68-7.68 7.68z m22.4 0h-3.2c-4.48 0-7.68-3.2-7.68-7.68s3.2-7.68 7.68-7.68h3.2c4.48 0 7.68 3.2 7.68 7.68-0.64 3.84-3.84 7.68-7.68 7.68z m18.56-0.64c-4.48 0-7.68-3.2-7.68-7.68s3.2-7.68 7.68-7.68h3.2c4.48 0 7.68 3.2 7.68 7.68s-3.2 7.68-7.68 7.68h-3.2z m24.96 0H537.6c-4.48 0-7.68-3.2-7.68-7.68s3.2-7.68 7.68-7.68h3.2c4.48 0 7.68 3.2 7.68 7.68s-3.2 7.68-7.68 7.68z m22.4 0h-3.2c-4.48 0-7.68-3.2-7.68-7.68s3.2-7.68 7.68-7.68h3.2c4.48 0 7.68 3.2 7.68 7.68-0.64 4.48-3.84 7.68-7.68 7.68z m18.56 0c-4.48 0-7.68-3.2-7.68-7.68s3.2-7.68 7.68-7.68h3.2c4.48 0 7.68 3.2 7.68 7.68s-3.2 7.68-7.68 7.68h-3.2z m24.96 0h-3.2c-4.48 0-7.68-3.2-7.68-7.68s3.2-7.68 7.68-7.68h3.2c4.48 0 7.68 3.2 7.68 7.68s-3.2 7.68-7.68 7.68z m22.4 0h-3.2c-4.48 0-7.68-3.2-7.68-7.68s3.2-7.68 7.68-7.68h3.2c4.48 0 7.68 3.2 7.68 7.68-0.64 4.48-3.84 7.68-7.68 7.68z m18.56 0c-4.48 0-7.68-3.2-7.68-7.68s3.2-7.68 7.68-7.68h3.2c4.48 0 7.68 3.2 7.68 7.68s-3.2 7.68-7.68 7.68h-3.2z m24.96 0h-3.2c-4.48 0-7.68-3.2-7.68-7.68s3.2-7.68 7.68-7.68h3.2c4.48 0 7.68 3.2 7.68 7.68s-3.2 7.68-7.68 7.68z m22.4 0h-3.2c-4.48 0-7.68-3.2-7.68-7.68s3.2-7.68 7.68-7.68h3.2c4.48 0 7.68 3.2 7.68 7.68-0.64 4.48-3.84 7.68-7.68 7.68z m18.56 0c-4.48 0-7.68-3.2-7.68-7.68s3.2-7.68 7.68-7.68h3.2c4.48 0 7.68 3.2 7.68 7.68s-3.2 7.68-7.68 7.68h-3.2z m24.96 0h-2.56c-4.48 0-7.68-3.2-7.68-7.68s3.2-7.68 7.68-7.68h3.2c4.48 0 7.68 3.2 7.68 7.68-0.64 4.48-3.84 7.68-8.32 7.68z m22.4 0h-3.2c-4.48 0-7.68-3.2-7.68-7.68s3.2-7.68 7.68-7.68h3.2c4.48 0 7.68 3.2 7.68 7.68s-3.84 7.68-7.68 7.68z m18.56 0c-4.48 0-7.68-3.2-7.68-7.68s3.2-7.68 7.68-7.68h3.2c4.48 0 7.68 3.2 7.68 7.68s-3.2 7.68-7.68 7.68h-3.2z m24.96 0h-3.2c-4.48 0-7.68-3.2-7.68-7.68s3.2-7.68 7.68-7.68h3.2c4.48 0 7.68 3.2 7.68 7.68s-3.2 7.68-7.68 7.68z m22.4 0h-3.2c-4.48 0-7.68-3.2-7.68-7.68s3.2-7.68 7.68-7.68h3.2c4.48 0 7.68 3.2 7.68 7.68s-3.84 7.68-7.68 7.68z m18.56 0c-4.48 0-7.68-3.2-7.68-7.68s3.2-7.68 7.68-7.68h3.2c4.48 0 7.68 3.2 7.68 7.68s-3.2 7.68-7.68 7.68h-3.2z m24.96 0h-3.2c-4.48 0-7.68-3.2-7.68-7.68s3.2-7.68 7.68-7.68h3.2c4.48 0 7.68 3.2 7.68 7.68s-3.2 7.68-7.68 7.68z m22.4 0h-3.2c-4.48 0-7.68-3.2-7.68-7.68s3.2-7.68 7.68-7.68h3.2c4.48 0 7.68 3.2 7.68 7.68s-3.84 7.68-7.68 7.68z m18.56 0c-4.48 0-7.68-3.2-7.68-7.68s3.2-7.68 7.68-7.68h3.2c4.48 0 7.68 3.2 7.68 7.68s-3.2 7.68-7.68 7.68h-3.2z m24.96 0h-3.2c-4.48 0-7.68-3.2-7.68-7.68s3.2-7.68 7.68-7.68h3.2c4.48 0 7.68 3.2 7.68 7.68s-3.2 7.68-7.68 7.68zM956.8 949.12h-1.28c-4.48 0-7.68-3.2-7.68-7.68s3.2-7.68 7.68-7.68h1.28c4.48 0 7.68 3.2 7.68 7.68s-3.2 7.68-7.68 7.68z" fill="#211D1C" p-id="30672"></path></svg>