<?xml version="1.0" standalone="no"?><!DOCTYPE svg PUBLIC "-//W3C//DTD SVG 1.1//EN" "http://www.w3.org/Graphics/SVG/1.1/DTD/svg11.dtd"><svg t="1552630693487" class="icon" style="" viewBox="0 0 1024 1024" version="1.1" xmlns="http://www.w3.org/2000/svg" p-id="25922" xmlns:xlink="http://www.w3.org/1999/xlink" width="200" height="200"><defs><style type="text/css"></style></defs><path d="M909.56 803.78H869a18.48 18.48 0 0 1 0-37h22.11V279A43.17 43.17 0 0 0 848 235.91h-89.12a18.48 18.48 0 1 1 0-37H848A80.16 80.16 0 0 1 928 279v506.31a18.48 18.48 0 0 1-18.44 18.47z" fill="#0897EA" p-id="25923"></path><path d="M471.71 734.44C301.49 734.44 163 595.94 163 425.71c0-84.19 33.27-162.87 93.7-221.53a18.48 18.48 0 0 1 25.74 26.51 269.67 269.67 0 0 0-82.49 195c0 149.85 121.91 271.77 271.76 271.77s271.77-121.9 271.77-271.75a269.66 269.66 0 0 0-82.5-195 18.48 18.48 0 1 1 25.74-26.51c60.42 58.67 93.71 137.34 93.71 221.53 0.01 170.21-138.49 308.71-308.72 308.71z" fill="#0897EA" p-id="25924"></path><path d="M715 803.78H176a80.16 80.16 0 0 1-80-80.06V217.44A18.48 18.48 0 0 1 114.44 199h76a18.48 18.48 0 1 1 0 37h-57.52v487.8A43.17 43.17 0 0 0 176 766.83h539a18.48 18.48 0 1 1 0 37z" fill="#0897EA" p-id="25925"></path><path d="M603 350H331.93a18.48 18.48 0 0 1 0-37H603a18.48 18.48 0 0 1 0 37zM467.49 448.08H331.93a18.48 18.48 0 0 1 0-37h135.56a18.48 18.48 0 0 1 0 37z" fill="#FF4056" p-id="25926"></path><path d="M471.71 734.44C301.49 734.44 163 595.94 163 425.71c0-84.19 33.27-162.87 93.7-221.53a308.71 308.71 0 0 1 430 0c60.42 58.67 93.71 137.34 93.71 221.53 0.03 170.23-138.47 308.73-308.7 308.73zM282.44 230.69a269.67 269.67 0 0 0-82.49 195c0 149.85 121.91 271.77 271.76 271.77s271.77-121.9 271.77-271.75a271.77 271.77 0 0 0-461-195zM900.13 907a18.43 18.43 0 0 1-13.13-5.43L784.15 798.35a18.48 18.48 0 0 1 26.18-26.08l102.89 103.22A18.48 18.48 0 0 1 900.13 907z" fill="#0897EA" p-id="25927"></path><path d="M797.24 803.78a18.43 18.43 0 0 1-13.09-5.44L646.77 660.53a18.48 18.48 0 0 1 26.18-26.08l137.38 137.82a18.48 18.48 0 0 1-13.09 31.52z" fill="#0897EA" p-id="25928"></path></svg>