<?xml version="1.0" standalone="no"?><!DOCTYPE svg PUBLIC "-//W3C//DTD SVG 1.1//EN" "http://www.w3.org/Graphics/SVG/1.1/DTD/svg11.dtd"><svg t="1552631636847" class="icon" style="" viewBox="0 0 1024 1024" version="1.1" xmlns="http://www.w3.org/2000/svg" p-id="35615" xmlns:xlink="http://www.w3.org/1999/xlink" width="200" height="200"><defs><style type="text/css"></style></defs><path d="M929.251567 901.475456 929.251567 790.149974 762.264369 790.149974 762.264369 734.487234 790.096251 734.487234 790.096251 678.824493 678.769746 678.824493 678.769746 734.487234 706.600605 734.487234 706.600605 790.149974 539.613406 790.149974 539.613406 901.475456 511.782547 901.475456 511.782547 957.138196 623.107005 957.138196 623.107005 901.475456 595.276147 901.475456 595.276147 845.812715 706.600605 845.812715 706.600605 901.475456 678.769746 901.475456 678.769746 957.138196 790.096251 957.138196 790.096251 901.475456 762.264369 901.475456 762.264369 845.812715 873.588827 845.812715 873.588827 901.475456 845.757968 901.475456 845.757968 957.138196 957.082426 957.138196 957.082426 901.475456Z" p-id="35616" fill="#1296db"></path><path d="M666.918837 650.993634l83.711564 0c-20.11206-20.602224-41.963741-39.355333-66.099441-55.282071l0.325411-0.325411c-0.86981-0.598634-1.847068-0.979304-2.826372-1.52268-16.95823-11.088546-34.570353-21.144576-53.270251-29.569456l0 0.107447c-22.50455-10.328229-45.986357-19.025309-70.666456-25.004487 89.36533-36.745902 152.528905-124.534318 152.528905-226.998991 0-135.405923-110.129236-245.535159-245.590418-245.535159-135.351688 0-245.589394 110.129236-245.589394 245.535159 0 102.464673 63.273069 190.253088 152.637376 226.998991C197.266317 581.469188 66.915527 738.672556 66.915527 926.208766c0 15.328104 12.393261 27.830859 27.830859 27.830859 15.329127 0 27.831882-12.502755 27.831882-27.830859 0-188.894138 153.615657-342.565053 342.455559-342.565053 64.576761 0 124.805494 18.481933 176.337147 49.683563C650.287041 638.654608 658.549216 644.850727 666.918837 650.993634zM275.10615 312.396963c0-104.694457 85.234243-189.873442 189.927677-189.873442 104.693434 0 189.927677 85.178985 189.927677 189.873442 0 104.693434-85.234243 189.926654-189.927677 189.926654C360.340393 502.323617 275.10615 417.090397 275.10615 312.396963z" p-id="35617" fill="#1296db"></path></svg>