<?xml version="1.0" standalone="no"?><!DOCTYPE svg PUBLIC "-//W3C//DTD SVG 1.1//EN" "http://www.w3.org/Graphics/SVG/1.1/DTD/svg11.dtd"><svg t="1532517752743" class="icon" style="" viewBox="0 0 1024 1024" version="1.1" xmlns="http://www.w3.org/2000/svg" p-id="38060" xmlns:xlink="http://www.w3.org/1999/xlink" width="200" height="200"><defs><style type="text/css"></style></defs><path d="M537.659915 444.543655l225.127364 0c14.145162 0 25.611308-11.467169 25.611308-25.611308s-11.466146-25.611308-25.611308-25.611308l-225.127364 0c-14.145162 0-25.611308 11.467169-25.611308 25.611308S523.514753 444.543655 537.659915 444.543655zM844.651774 522.769274l-306.99186 0c-14.145162 0-25.611308 11.466146-25.611308 25.611308s11.466146 25.611308 25.611308 25.611308l306.99186 0c14.145162 0 25.611308-11.466146 25.611308-25.611308S858.796936 522.769274 844.651774 522.769274zM359.399975 556.052309c27.946492-18.036795 46.482661-49.427736 46.482661-85.064374 0-55.802934-45.447075-101.201913-101.308337-101.201913-55.861262 0-101.308337 45.398979-101.308337 101.201913 0 35.56603 18.463514 66.901713 46.316885 84.955904-56.063877 21.75549-95.872534 75.884294-95.872534 139.058103 0 2.553149 0.065492 5.135974 0.196475 7.673773l1.24434 24.301476 298.389948 0 1.24434-24.301476c0.130983-2.557242 0.197498-5.139044 0.197498-7.673773C454.983937 631.93558 415.312402 577.881476 359.399975 556.052309zM304.574299 421.008636c27.616988 0 50.085722 22.420639 50.085722 49.979298s-22.468734 49.978275-50.085722 49.978275c-27.616988 0-50.084699-22.420639-50.084699-49.978275S276.957311 421.008636 304.574299 421.008636zM206.857766 675.753551c9.094122-44.87914 49.350988-78.800717 97.488335-78.800717 48.13837 0 88.396259 33.920554 97.490382 78.800717L206.857766 675.753551zM871.604636 156.779719 713.512015 156.779719c-10.766205-34.936697-43.348274-60.399625-81.771375-60.399625L391.994324 96.380094c-38.423101 0-71.00517 25.462928-81.772398 60.399625L152.369781 156.779719c-47.172369 0-85.550445 38.376029-85.550445 85.547375l0 599.36272c0 47.172369 38.377052 85.549421 85.550445 85.549421L871.604636 927.239236c47.172369 0 85.550445-38.377052 85.550445-85.549421L957.155081 242.327094C957.154058 195.155748 918.777005 156.779719 871.604636 156.779719zM391.994324 147.602709l239.745293 0c18.927071 0 34.325783 15.397688 34.325783 34.32476 0 18.926048-15.398712 34.323737-34.325783 34.323737L391.994324 216.251206c-18.928095 0-34.326806-15.397688-34.326806-34.323737C357.667517 163.001421 373.067252 147.602709 391.994324 147.602709zM905.931442 841.689814c0 18.927071-15.399735 34.325783-34.326806 34.325783L152.369781 876.015597c-18.928095 0-34.326806-15.398712-34.326806-34.325783L118.042975 242.327094c0-18.926048 15.398712-34.323737 34.326806-34.323737l158.151973 0c11.054777 34.456766 43.391253 59.47251 81.47257 59.47251l239.745293 0c38.081317 0 70.416769-25.015743 81.470523-59.47251L871.604636 208.003358c18.927071 0 34.326806 15.397688 34.326806 34.323737L905.931442 841.689814zM844.651774 652.217509l-306.99186 0c-14.145162 0-25.611308 11.466146-25.611308 25.611308s11.466146 25.611308 25.611308 25.611308l306.99186 0c14.145162 0 25.611308-11.466146 25.611308-25.611308S858.796936 652.217509 844.651774 652.217509z" p-id="38061" fill="#13227a"></path></svg>