<?xml version="1.0" standalone="no"?><!DOCTYPE svg PUBLIC "-//W3C//DTD SVG 1.1//EN" "http://www.w3.org/Graphics/SVG/1.1/DTD/svg11.dtd"><svg t="1551318914745" class="icon" style="" viewBox="0 0 1024 1024" version="1.1" xmlns="http://www.w3.org/2000/svg" p-id="6065" xmlns:xlink="http://www.w3.org/1999/xlink" width="200" height="200"><defs><style type="text/css"></style></defs><path d="M907 99.85a18 18 0 0 1 18 18v580a18 18 0 0 1-18 18H117a18 18 0 0 1-18-18v-580a18 18 0 0 1 18-18h790m0-2H117a20.06 20.06 0 0 0-20 20v580a20.06 20.06 0 0 0 20 20h790a20.06 20.06 0 0 0 20-20v-580a20.06 20.06 0 0 0-20-20z" fill="#0E6EC5" p-id="6066"></path><path d="M907 98.85H117a19 19 0 0 0-19 19v580a19 19 0 0 0 19 19h790a19 19 0 0 0 19-19v-580a19 19 0 0 0-19-19z m-10 575a14 14 0 0 1-14 14H141a14 14 0 0 1-14-14v-532a14 14 0 0 1 14-14h742a14 14 0 0 1 14 14z" fill="#01B0F1" p-id="6067"></path><path d="M256.7 877.15l509.95 0 0 48-509.95 0 0-48Z" fill="#01B0F1" p-id="6068"></path><path d="M742.77 878.15A22.9 22.9 0 0 1 765.65 901v0.24a22.9 22.9 0 0 1-22.88 22.88H280.58a22.9 22.9 0 0 1-22.88-22.88V901a22.9 22.9 0 0 1 22.88-22.88h462.19m0-2H280.58A25 25 0 0 0 255.7 901v0.24a25 25 0 0 0 24.88 24.88h462.19a25 25 0 0 0 24.88-24.88V901a25 25 0 0 0-24.88-24.88zM415.19 688.15H267.41V504.71l147.78-127.26v310.7zM431.6 688.15h147.78V426.26L431.6 377.45v310.7zM742.09 688.15H594.31V426.26l147.78-148.33v410.22z" fill="#0E6EC5" p-id="6069"></path><path d="M267.41 469.92l147.78-116.47 164.19 57.81L731.6 247.18l22.61 19.12 2.38-67.68-67.66 13.5 23.5 19.33-151.67 121.48-151-38.66-142.35 155.65z" fill="#FFBE00" p-id="6070"></path><path d="M796.5 701.66m-130 0a130 130 0 1 0 260 0 130 130 0 1 0-260 0Z" fill="#0FCE9A" p-id="6071"></path><path d="M715.95 722.42a35 35 0 0 0 3.06 2.1 10.89 10.89 0 0 1 2.2 1.62 2.48 2.48 0 0 1 0.54 1.71 2.51 2.51 0 0 1-0.64 1.57 1.92 1.92 0 0 1-1.54 0.79 4.05 4.05 0 0 1-1.78-0.54 19.54 19.54 0 0 1-2.46-1.57q-1.41-1-3.09-2.41a15 15 0 0 1-7.67 1.82 15.67 15.67 0 0 1-6.61-1.34 13.1 13.1 0 0 1-4.91-3.86 17.37 17.37 0 0 1-3-6 27.08 27.08 0 0 1-1-7.55 26.33 26.33 0 0 1 1-7.63 17 17 0 0 1 3-5.9 13.17 13.17 0 0 1 4.83-3.73 15.49 15.49 0 0 1 6.47-1.29 15.23 15.23 0 0 1 8.44 2.28 14.14 14.14 0 0 1 5.34 6.47 24.7 24.7 0 0 1 1.81 9.85q0.06 8.59-3.99 13.61z m-5-4a11.64 11.64 0 0 0 2-4.13 21.6 21.6 0 0 0 0.64-5.53 19 19 0 0 0-1.12-6.86 9.36 9.36 0 0 0-3.2-4.39 8 8 0 0 0-4.78-1.49 7.74 7.74 0 0 0-3.55 0.82 8 8 0 0 0-2.8 2.4 12.08 12.08 0 0 0-1.85 4 20.59 20.59 0 0 0-0.68 5.5q0 6.22 2.54 9.58a7.75 7.75 0 0 0 6.42 3.36 7.91 7.91 0 0 0 3.28-0.76 16.5 16.5 0 0 0-2.53-1.72 15.83 15.83 0 0 1-2.08-1.33 1.63 1.63 0 0 1-0.56-1.33 1.83 1.83 0 0 1 0.54-1.3 1.62 1.62 0 0 1 1.19-0.57q1.9 0.02 6.51 3.76zM725.54 712v-17.36a5.3 5.3 0 0 1 0.87-3.32 2.78 2.78 0 0 1 2.3-1.11 2.85 2.85 0 0 1 2.36 1.11 5.3 5.3 0 0 1 0.87 3.32v17.74a18.32 18.32 0 0 0 0.59 5.06 5.8 5.8 0 0 0 2.1 3.15 7 7 0 0 0 4.23 1.12q3.75 0 5.3-2.28t1.55-6.9v-17.89a5.34 5.34 0 0 1 0.86-3.33 2.79 2.79 0 0 1 2.31-1.1 2.88 2.88 0 0 1 2.34 1.1 5.2 5.2 0 0 1 0.89 3.33V712a29.11 29.11 0 0 1-0.72 7.06 11.21 11.21 0 0 1-2.73 5 10.37 10.37 0 0 1-4 2.66 15.55 15.55 0 0 1-5.35 0.84 19.49 19.49 0 0 1-6.27-0.9 9.81 9.81 0 0 1-4.29-2.78 11.64 11.64 0 0 1-2.44-4.82 27.78 27.78 0 0 1-0.77-7.06zM777.07 722.81l-1.51-4.53h-12.85l-1.51 4.63a17.25 17.25 0 0 1-1.51 3.65 2.27 2.27 0 0 1-2 0.95 2.83 2.83 0 0 1-2.13-1 3.29 3.29 0 0 1-0.93-2.29 5.77 5.77 0 0 1 0.22-1.53q0.22-0.79 0.71-2.19l8.08-23.42 0.83-2.42a12.93 12.93 0 0 1 1-2.35 4.47 4.47 0 0 1 1.44-1.51 4 4 0 0 1 2.21-0.58 4 4 0 0 1 2.23 0.58 4.56 4.56 0 0 1 1.44 1.49 11 11 0 0 1 0.93 2q0.38 1 1 2.79l8.26 23.27a13 13 0 0 1 1 3.86 3.42 3.42 0 0 1-0.92 2.3 2.84 2.84 0 0 1-2.21 1 2.57 2.57 0 0 1-1.29-0.31 2.74 2.74 0 0 1-0.91-0.84 8.05 8.05 0 0 1-0.79-1.62q-0.49-1.09-0.79-1.93z m-12.68-10h9.44l-4.76-14.88zM797.2 711.47H795v11.59a5.29 5.29 0 0 1-0.88 3.37 2.84 2.84 0 0 1-2.31 1.08 2.78 2.78 0 0 1-2.37-1.13 5.52 5.52 0 0 1-0.84-3.32v-27.75a5.14 5.14 0 0 1 0.93-3.42 3.8 3.8 0 0 1 3-1.06h10.37a27.78 27.78 0 0 1 3.69 0.21 8.4 8.4 0 0 1 2.76 0.85 8 8 0 0 1 2.63 2 9.17 9.17 0 0 1 1.74 3.09 11.59 11.59 0 0 1 0.59 3.73 9.8 9.8 0 0 1-2 6.45 11 11 0 0 1-6 3.42 12.19 12.19 0 0 1 3.25 3.05 31.11 31.11 0 0 1 2.77 4.29 33.82 33.82 0 0 1 1.9 4.11 9 9 0 0 1 0.68 2.52 2.83 2.83 0 0 1-0.4 1.41 3 3 0 0 1-1.09 1.11 3.1 3.1 0 0 1-1.6 0.41 2.83 2.83 0 0 1-1.81-0.58 5.3 5.3 0 0 1-1.26-1.46q-0.53-0.89-1.43-2.61l-2.61-4.83a27.21 27.21 0 0 0-2.47-4.08A6.25 6.25 0 0 0 800 712a6.76 6.76 0 0 0-2.8-0.53z m3.67-15.15H795v9.91h5.73a14.14 14.14 0 0 0 3.88-0.46 4.45 4.45 0 0 0 2.4-1.55 4.88 4.88 0 0 0 0.83-3 5.15 5.15 0 0 0-0.67-2.64 4.2 4.2 0 0 0-1.85-1.71 11.78 11.78 0 0 0-4.45-0.55zM838.68 696.86h-7v26.2a5.3 5.3 0 0 1-0.88 3.36 2.81 2.81 0 0 1-2.29 1.09 2.84 2.84 0 0 1-2.32-1.11 5.25 5.25 0 0 1-0.89-3.35v-26.2h-7a3.25 3.25 0 0 1-2.44-0.82 3 3 0 0 1-0.8-2.18 3 3 0 0 1 0.83-2.21 3.3 3.3 0 0 1 2.4-0.81h20.35a3.29 3.29 0 0 1 2.47 0.84 3 3 0 0 1 0.81 2.19 3 3 0 0 1-0.82 2.18 3.33 3.33 0 0 1-2.42 0.82zM866.58 696.46h-14.42v8.86h13.28a2.91 2.91 0 0 1 2.19 0.75 2.74 2.74 0 0 1 0.72 2 2.59 2.59 0 0 1-2.91 2.78h-13.28v10.26h14.92a3 3 0 0 1 2.27 0.8 3 3 0 0 1 0.76 2.13 2.89 2.89 0 0 1-0.76 2.08 3 3 0 0 1-2.27 0.8h-17.4a3.79 3.79 0 0 1-3-1.06 5.18 5.18 0 0 1-0.92-3.42v-27.13a6.83 6.83 0 0 1 0.41-2.57 2.75 2.75 0 0 1 1.28-1.45 4.82 4.82 0 0 1 2.23-0.45h16.9a3 3 0 0 1 2.27 0.77 2.81 2.81 0 0 1 0.74 2 2.84 2.84 0 0 1-0.74 2.05 3 3 0 0 1-2.27 0.8zM883.81 711.47h-2.24v11.59a5.29 5.29 0 0 1-0.88 3.37 2.84 2.84 0 0 1-2.31 1.08 2.78 2.78 0 0 1-2.37-1.13 5.52 5.52 0 0 1-0.84-3.32v-27.75a5.14 5.14 0 0 1 0.93-3.42 3.8 3.8 0 0 1 3-1.06h10.4a27.78 27.78 0 0 1 3.69 0.21 8.4 8.4 0 0 1 2.76 0.85 8 8 0 0 1 2.63 2 9.17 9.17 0 0 1 1.74 3.09 11.59 11.59 0 0 1 0.59 3.73 9.8 9.8 0 0 1-2 6.45 11 11 0 0 1-6 3.42 12.19 12.19 0 0 1 3.25 3.05 31.11 31.11 0 0 1 2.77 4.29 33.82 33.82 0 0 1 1.9 4.11 9 9 0 0 1 0.68 2.52 2.83 2.83 0 0 1-0.4 1.41 3 3 0 0 1-1.11 1.14 3.1 3.1 0 0 1-1.6 0.41 2.83 2.83 0 0 1-1.81-0.58 5.3 5.3 0 0 1-1.26-1.46q-0.53-0.89-1.43-2.61l-2.59-4.86a27.21 27.21 0 0 0-2.47-4.08 6.25 6.25 0 0 0-2.21-1.92 6.76 6.76 0 0 0-2.82-0.53z m3.67-15.15h-5.91v9.91h5.73a14.14 14.14 0 0 0 3.88-0.46 4.45 4.45 0 0 0 2.4-1.55 4.88 4.88 0 0 0 0.83-3 5.15 5.15 0 0 0-0.67-2.64 4.2 4.2 0 0 0-1.85-1.71 11.78 11.78 0 0 0-4.42-0.55z" fill="#FFFFFF" p-id="6072"></path></svg>