<?xml version="1.0" standalone="no"?><!DOCTYPE svg PUBLIC "-//W3C//DTD SVG 1.1//EN" "http://www.w3.org/Graphics/SVG/1.1/DTD/svg11.dtd"><svg t="1552630554019" class="icon" style="" viewBox="0 0 1323 1024" version="1.1" xmlns="http://www.w3.org/2000/svg" p-id="25110" xmlns:xlink="http://www.w3.org/1999/xlink" width="258.3984375" height="200"><defs><style type="text/css"></style></defs><path d="M1273.593792 844.228904H1208.406078a197.20194 197.20194 0 0 1-392.831296 0H542.723311a197.218493 197.218493 0 0 1-392.84785 0H129.200129a49.197026 49.197026 0 0 1-35.10999-14.567087l-79.456838-79.456838a49.395668 49.395668 0 0 1-14.550533-35.093437V129.117362a129.266343 129.266343 0 0 1 129.117361-129.117362h618.78668a129.266343 129.266343 0 0 1 129.117362 129.117362v85.747171h242.806854a49.660524 49.660524 0 0 1 44.429615 27.478823l153.682768 291.67281a49.561203 49.561203 0 0 1 5.230908 22.1817v238.370514a49.660524 49.660524 0 0 1-49.660524 49.660524z m-927.277853 80.284513a98.989977 98.989977 0 1 0-99.006531-98.989977 99.056191 99.056191 0 0 0 99.006531 98.989977z m431.814808-651.380536a14.302231 14.302231 0 0 1-0.347624-1.655351v-142.360168a30.160491 30.160491 0 0 0-29.796314-29.796314H129.200129a30.143938 30.143938 0 0 0-29.796314 29.796314v565.46783l50.372325 50.322664H165.535079a197.748206 197.748206 0 0 1 361.644488 0h251.017394v-471.774975z m233.86796 651.380536a98.989977 98.989977 0 1 0-99.023085-98.989977 99.056191 99.056191 0 0 0 99.023085 98.989977z m211.884901-356.56256L1089.220821 314.18558H877.468348v372.288393a178.198513 178.198513 0 0 1 134.530359-59.261558 198.344132 198.344132 0 0 1 180.797413 117.695441h31.137149V567.950857z m-280.250889-187.551245h104.485742l76.146136 132.262528H943.632719v-132.262528z" fill="#32A0F0" p-id="25111"></path></svg>