<?xml version="1.0" standalone="no"?><!DOCTYPE svg PUBLIC "-//W3C//DTD SVG 1.1//EN" "http://www.w3.org/Graphics/SVG/1.1/DTD/svg11.dtd"><svg t="1532513731293" class="icon" style="" viewBox="0 0 1024 1024" version="1.1" xmlns="http://www.w3.org/2000/svg" p-id="18815" xmlns:xlink="http://www.w3.org/1999/xlink" width="200" height="200"><defs><style type="text/css"></style></defs><path d="M835.714 679.58h-222.65c-5.555-19.072-8.467-39.994-8.467-61.586 0-52.892 18.045-102.162 45.988-125.539a32.185 32.185 0 0 0 2.87-2.761l8.914-9.925c53.862-44.95 84.704-110.787 84.704-180.96 0-129.94-105.702-235.641-235.657-235.641S275.761 168.869 275.761 298.81c0 70.404 31.005 136.365 85.141 181.328l8.667 9.61a27.479 27.479 0 0 0 2.816 2.693c27.943 23.404 45.988 72.686 45.988 125.552 0 21.488-2.918 42.464-8.497 61.586H187.119c-46.316 0-83.993 37.677-83.993 83.994v111.99c0 46.317 37.677 83.994 83.993 83.994h648.594c46.316 0 83.992-37.676 83.992-83.994v-111.99c0.001-46.316-37.675-83.993-83.991-83.993zM409.898 450.856l-8.83-9.789a28.42 28.42 0 0 0-3.09-2.925c-42.079-34.313-66.22-85.1-66.22-139.332 0-99.058 80.602-179.647 179.66-179.647s179.66 80.589 179.66 179.647c0 54.067-24.006 104.744-65.894 139.044a29.92 29.92 0 0 0-3.09 2.94l-9.05 10.09c-39.808 34.422-64.443 98.196-64.443 167.11 0 21.135 2.283 41.903 6.69 61.587h-87.636c4.413-19.728 6.714-40.527 6.714-61.586 0-68.902-24.662-132.689-64.47-167.14z m453.813 424.708c0 15.434-12.55 27.998-27.997 27.998H187.12c-15.448 0-27.998-12.563-27.998-27.998v-111.99c0-15.434 12.55-27.997 27.998-27.997h648.594c15.448 0 27.997 12.563 27.997 27.997v111.99z" fill="#13227a" p-id="18816"></path></svg>