<?xml version="1.0" standalone="no"?><!DOCTYPE svg PUBLIC "-//W3C//DTD SVG 1.1//EN" "http://www.w3.org/Graphics/SVG/1.1/DTD/svg11.dtd"><svg t="1545048817440" class="icon" style="" viewBox="0 0 1179 1024" version="1.1" xmlns="http://www.w3.org/2000/svg" p-id="1643" xmlns:xlink="http://www.w3.org/1999/xlink" width="230.2734375" height="200"><defs><style type="text/css"></style></defs><path d="M911.657434 694.012232v-0.622176h-4.575591c1.581366 0.155544 2.981264 0.311088 4.575591 0.622176z m206.744147-353.513048a202.298175 202.298175 0 0 0-6.571742-280.744293A204.968351 204.968351 0 0 0 967.095974 0.181468c-49.514899 0-98.874254 17.680189-137.915844 53.05353 0 0-570.147213 566.103064-576.900423 572.545185-5.158882 5.21073-11.406574 6.779134-19.144897 6.779134-6.81802 0-14.893356-1.244353-24.459323-2.566479-50.694443-6.442122-134.597569-22.06135-134.597569-22.06135a58.97717 58.97717 0 0 0-8.567892-0.583291 58.121677 58.121677 0 0 0-40.959969 16.695076c-22.631679 22.644641-22.631679 59.106791 0 81.492191l231.644179 230.075775c34.219721 33.558658 79.236801 49.592671 125.342689 49.592671 54.362693 0 110.125283-22.074312 151.085253-62.736155l72.237312-71.978072a102.788783 102.788783 0 0 1 72.509515-29.747825c26.053651 0 52.431353 9.915942 72.328046 29.747825l148.492849 147.507736c19.313403 17.446873 43.941232 25.962917 68.569062 25.962917a102.866555 102.866555 0 0 0 72.846527-29.838559c26.960992-26.857296 34.453037-67.182126 26.209195-99.081647-8.321614-32.068026-72.911337-286.201302-72.911337-286.201301-19.222669-71.654022 6.325464-149.996443 46.274395-189.750945l79.249763-78.5887z m-184.851303 283.868139c2.903491 11.173257 64.913773 254.638794 72.911337 285.786517 3.162732 12.158371 0.661063 30.084838-10.239992 40.908121-7.829057 7.777209-18.224594 11.989864-29.384889 11.989865a41.47845 41.47845 0 0 1-26.468436-9.501158l-147.248495-146.211534c-30.875521-30.719977-71.991034-47.596521-115.76376-47.596521-43.785688 0-84.991935 16.863582-115.945229 47.777989l-72.250274 71.9003c-28.723826 28.4257-68.011695 44.783763-107.623615 44.783763-22.644641 0-55.347806-5.534781-81.906975-31.653242a147077.22865 147077.22865 0 0 0-223.724387-222.143021c26.053651 4.718174 84.719733 15.035938 124.759399 20.168896l4.497819 0.738835c8.904905 1.166581 18.056088 2.320201 27.881295 2.320201 25.055576 0 46.118851-8.347538 62.593573-24.550057 6.481008-6.610628 547.852546-543.795435 575.733841-571.637845a144.228346 144.228346 0 0 1 95.63375-36.202909c38.289794 0 74.246425 14.880394 101.375923 41.73769a141.324855 141.324855 0 0 1 5.418123 195.532003l-77.992447 77.603587c-59.754891 59.417879-85.484492 161.480789-62.256561 248.261482zM299.552178 403.403846l0.414784-0.324051a30.875521 30.875521 0 0 0 24.135273 11.562118 30.564432 30.564432 0 0 0 30.629242-30.499622c0-10.071486-4.990376-19.002315-12.573155-24.62783l-130.423799-129.33499c-13.57123-15.943279-12.573155-40.661843 2.592403-55.529275 7.064298-7.103184 18.548644-11.406574 30.460736-11.406573 3.73306 0 7.479083 0.32405 10.641815 1.322125 21.983578 5.534781 166.976683 42.308019 244.800624 61.828814 2.242429 0.479595 4.497819 0.725873 6.81802 0.725873a30.590357 30.590357 0 0 0 30.719977-30.48666 30.370002 30.370002 0 0 0-23.305704-29.501548l0.077772-0.414784C449.133836 150.255683 296.635724 111.991814 270.672807 105.381186a105.718198 105.718198 0 0 0-25.898107-3.227542c-26.053651 0-53.76644 9.254879-73.909412 29.255269-38.78235 38.510148-40.19521 100.58524-3.914529 140.417513l132.601419 131.564458z" p-id="1644" fill="#13227a"></path></svg>