<?xml version="1.0" standalone="no"?><!DOCTYPE svg PUBLIC "-//W3C//DTD SVG 1.1//EN" "http://www.w3.org/Graphics/SVG/1.1/DTD/svg11.dtd"><svg t="1586942924629" class="icon" viewBox="0 0 1024 1024" version="1.1" xmlns="http://www.w3.org/2000/svg" p-id="2067" xmlns:xlink="http://www.w3.org/1999/xlink" width="200" height="200"><defs><style type="text/css"></style></defs><path d="M1022.293364 470.409918a511.990827 511.990827 0 1 0-551.883445 551.883446 513.484133 513.484133 0 0 0 551.883445-551.883446zM736.00516 565.341551H618.673929a53.332378 53.332378 0 0 0-53.332378 53.332378v117.331231a53.332378 53.332378 0 0 1-106.664755 0V618.673929a53.332378 53.332378 0 0 0-53.332378-53.332378h-117.331231a53.332378 53.332378 0 0 1 0-106.664756H405.344418a53.332378 53.332378 0 0 0 53.332378-53.332377v-117.331232a53.332378 53.332378 0 0 1 106.664755 0V405.344418a53.332378 53.332378 0 0 0 53.332378 53.332377h117.331231a53.332378 53.332378 0 0 1 0 106.664756z" fill="#4A9FE1" p-id="2068"></path></svg>