<?xml version="1.0" standalone="no"?><!DOCTYPE svg PUBLIC "-//W3C//DTD SVG 1.1//EN" "http://www.w3.org/Graphics/SVG/1.1/DTD/svg11.dtd"><svg t="1545881311994" class="icon" style="" viewBox="0 0 1024 1024" version="1.1" xmlns="http://www.w3.org/2000/svg" p-id="1763" xmlns:xlink="http://www.w3.org/1999/xlink" width="200" height="200"><defs><style type="text/css"></style></defs><path d="M955.759067 691.088806c-2.947766-32.23191-18.272258-61.406498-43.135265-82.121746-24.876318-20.741869-56.331099-30.403251-88.576319-27.565041a26.361975 26.361975 0 0 0-4.366871 0.763818L622.737293 632.457037c-11.998912-28.995409-38.576927-51.03454-71.528628-55.502776l-234.547555-36.189227c-39.327435-5.185979-76.376726 15.447358-93.488921 48.988818l-125.884653-28.656503c-15.010159-3.493497-30.034652 6.004064-33.459549 21.041867-3.424896 15.037804 6.004064 30.021342 21.041868 33.432928l150.67906 34.306302c7.64228 1.774393 15.678756 0.163822 22.134352-4.257316a28.003264 28.003264 0 0 0 11.762395-19.213208c2.633433-19.295119 20.332315-32.969107 39.204569-30.32134l234.547555 36.189227c19.281808 2.620123 32.846241 20.414226 30.239429 39.682724-2.620123 19.322764-20.455181 32.995728-39.505591 30.267074l-226.059546-32.341466c-15.133025-2.238213-29.434655 8.406099-31.617579 23.71728-2.197258 15.283536 8.419409 29.447966 23.702946 31.631913l226.264322 32.368087c4.134449 0.545731 8.242277 0.819108 12.30915 0.819108 41.675204 0 78.436783-28.669813 88.451405-69.364135l204.187307-52.139313c16.579775-0.98293 32.791975 4.257315 45.673477 15.011183 8.242277 6.849793 14.546339 15.447358 18.5313 25.081095l-363.03902 152.835362a27.8548 27.8548 0 0 0-12.844641 10.955573c-27.752412 21.189307-67.718751 19.175324-93.075272-6.206792a28.064697 28.064697 0 0 0-4.345369-3.553906 27.812821 27.812821 0 0 0-12.725871-6.708497l-312.043387-71.286992c-15.024493-3.465852-30.034652 5.977443-33.473883 21.015246-3.424896 15.037804 5.977443 30.021342 21.028557 33.459549l305.331819 69.753212c24.265058 22.58691 55.290831 33.901867 86.322748 33.901867 30.704273 0 61.415713-11.075368 85.56712-33.189243l376.692531-158.591646c11.216664-4.724207 18.094101-16.186603 16.989329-28.304286zM190.066905 452.338202h640.926616c15.434047 0 27.94695-12.499592 27.94695-27.94695 0-15.447358-12.512903-27.94695-27.94695-27.94695H190.066905c-15.434047 0-27.94695 12.499592-27.94695 27.94695 0 15.446334 12.512903 27.94695 27.94695 27.94695zM190.066905 303.159134h640.926616c15.434047 0 27.94695-12.499592 27.94695-27.94695 0-15.447358-12.512903-27.94695-27.94695-27.94695H190.066905c-15.434047 0-27.94695 12.499592-27.94695 27.94695 0 15.447358 12.512903 27.94695 27.94695 27.94695zM190.066905 153.98109h640.926616c15.434047 0 27.94695-12.499592 27.94695-27.94695s-12.512903-27.94695-27.94695-27.94695H190.066905c-15.434047 0-27.94695 12.499592-27.94695 27.94695s12.512903 27.94695 27.94695 27.94695z" fill="#13227a" p-id="1764"></path></svg>