<?xml version="1.0" standalone="no"?><!DOCTYPE svg PUBLIC "-//W3C//DTD SVG 1.1//EN" "http://www.w3.org/Graphics/SVG/1.1/DTD/svg11.dtd"><svg class="icon" width="200px" height="199.61px" viewBox="0 0 1026 1024" version="1.1" xmlns="http://www.w3.org/2000/svg"><path fill="#13227a" d="M419.376838 552.03871c0 14.736803-8.055693 26.628539-18.061375 26.628539H284.380053c-9.973715 0-18.061374-11.987638-18.061374-26.628539 0-14.704836 8.08766-26.628539 18.061374-26.628539h116.871476c10.037649-0.031967 18.125308 11.923704 18.125309 26.628539z m0-103.061718c0 14.704836-8.055693 26.628539-18.061375 26.62854H284.380053c-9.973715 0-18.061374-11.923704-18.061374-26.62854 0-14.736803 8.08766-26.628539 18.061374-26.628539h116.871476c10.037649 0 18.125308 11.891737 18.125309 26.628539z m0-103.02975c0 14.704836-8.055693 26.628539-18.061375 26.628539H284.380053c-9.973715 0-18.061374-11.923704-18.061374-26.628539 0-14.704836 8.08766-26.628539 18.061374-26.628539h116.871476c10.037649-0.031967 18.125308 11.955671 18.125309 26.628539z m0-101.047795c0 14.76877-8.055693 26.628539-18.061375 26.62854H284.380053c-9.973715 0-18.061374-11.955671-18.061374-26.62854 0-14.704836 8.08766-26.628539 18.061374-26.628539h116.871476c10.037649 0 18.125308 11.923704 18.125309 26.628539z m178.312115 307.139263c0 14.736803-8.055693 26.628539-17.99744 26.628539h-116.93541c-10.005682 0-18.125308-11.955671-18.125309-26.628539 0-14.704836 8.119627-26.628539 18.125309-26.628539h116.93541c9.941748-0.031967 17.99744 11.923704 17.99744 26.628539z m0-103.061718c0 14.704836-8.055693 26.628539-17.99744 26.62854h-116.93541c-10.005682 0-18.125308-11.923704-18.125309-26.62854 0-14.736803 8.119627-26.628539 18.125309-26.628539h116.93541c9.941748 0 17.99744 11.891737 17.99744 26.628539z m0-103.02975c0 14.704836-8.055693 26.628539-17.99744 26.628539h-116.93541c-10.005682 0-18.125308-11.923704-18.125309-26.628539 0-14.704836 8.119627-26.628539 18.125309-26.628539h116.93541c9.941748-0.031967 17.99744 11.955671 17.99744 26.628539z m0-103.061718c0 14.736803-8.055693 26.628539-17.99744 26.62854h-116.93541c-10.005682 0-18.125308-11.923704-18.125309-26.62854 0-14.704836 8.119627-26.628539 18.125309-26.628539h116.93541c9.941748 0.031967 17.99744 11.987638 17.99744 26.628539z m0-109.93463c0 14.736803-8.055693 26.628539-17.99744 26.62854h-116.93541c-10.005682 0-18.125308-11.891737-18.125309-26.62854 0-14.736803 8.119627-26.628539 18.125309-26.628539h116.93541c9.941748-0.031967 17.99744 11.923704 17.99744 26.628539z m185.6006 419.087816c0 14.736803-8.08766 26.628539-18.061375 26.628539H648.292768c-9.973715 0-18.029407-11.955671-18.029407-26.628539 0-14.736803 8.08766-26.628539 18.029407-26.628539h116.903443c10.005682-0.063934 18.093341 11.891737 18.093342 26.628539z m0-103.061718c0 14.704836-8.08766 26.596572-18.061375 26.596573H648.292768c-9.973715 0-18.029407-11.891737-18.029407-26.596573 0-14.736803 8.08766-26.628539 18.029407-26.628539h116.903443c10.005682 0 18.093341 11.891737 18.093342 26.628539z m-7.736023-194.231698c5.274561 8.95077 7.86389 19.40399 7.863891 31.35966 0 18.349078-5.370462 33.62932-16.143352 45.904661-10.836825 12.243374-26.40477 19.467924-46.799738 21.641682v31.391627h-25.925265v-31.295726c-33.980957-3.548341-55.015266-23.527737-63.102925-59.970156l40.118628-10.613055c3.740143 22.95233 16.015484 34.396529 36.985858 34.396529 9.781912 0 16.974495-2.461462 21.545781-7.352418a24.838385 24.838385 0 0 0 6.904879-17.805638c0-7.160616-2.333593-12.626978-6.904879-16.27122-4.571286-3.708176-14.864671-8.40733-30.72032-14.129429-14.22533-4.986857-25.413792-9.909781-33.437517-14.896638a55.143134 55.143134 0 0 1-19.531858-20.522836 61.248837 61.248837 0 0 1-7.512253-30.848188c0-15.40811 4.475385-29.249836 13.394187-41.557144 8.982737-12.307308 23.048232-19.819561 42.260419-22.568726v-24.294946h25.925265v24.294946c29.026067 3.484407 47.822683 20.139231 56.389848 49.90054l-35.771111 14.896638c-7.00078-20.426935-17.709737-30.624419-32.350639-30.624419a23.463803 23.463803 0 0 0-17.645802 6.840946 22.696594 22.696594 0 0 0-6.681111 16.59089c0 6.617176 2.109824 11.667967 6.425374 15.248275 4.283583 3.516374 13.426154 7.927824 27.49165 13.106484 15.344176 5.722099 27.491649 11.124528 36.218649 16.17532 8.758967 5.050791 15.95155 12.275341 21.002341 21.002341zM675.240978 953.384822s50.667749 27.779353 64.701277 42.03665c14.001561 14.193363-30.944089 28.418693-30.944089 28.418693H329.613406c-36.570287 0-22.504792-34.140792-22.504792-34.140792l64.637343-33.437518v-105.938751l303.495021-0.831143v103.892861zM923.848601 0H99.067157c-54.663628 0-99.001904 45.904661-99.001904 102.550245v589.504074c0 56.677551 44.338276 102.614179 99.033871 102.614179h824.749477c54.663628 0 101.655168-45.936628 101.655168-102.614179V102.550245c-0.031967-56.645584-47.023507-102.550245-101.655168-102.550245z m50.348079 567.766491c0 40.406331-30.400649 73.108607-67.897981 73.108607H119.30229c-37.561265 0-67.993881-32.670309-67.993882-73.108607V124.351762c0-40.374364 30.432616-73.108607 67.993882-73.108607H906.266732c37.497331 0 67.89798 32.734243 67.897981 73.108607v443.414729h0.031967z" /></svg>