<?xml version="1.0" standalone="no"?><!DOCTYPE svg PUBLIC "-//W3C//DTD SVG 1.1//EN" "http://www.w3.org/Graphics/SVG/1.1/DTD/svg11.dtd"><svg t="1510206803892" class="icon" style="" viewBox="0 0 1024 1024" version="1.1" xmlns="http://www.w3.org/2000/svg" p-id="3027" xmlns:xlink="http://www.w3.org/1999/xlink" width="200" height="200"><defs><style type="text/css"></style></defs><path d="M512 51.2C258.56 51.2 51.2 258.56 51.2 512s207.36 460.8 460.8 460.8 460.8-207.36 460.8-460.8S765.44 51.2 512 51.2z m0 870.4c-225.28 0-409.6-184.32-409.6-409.6S286.72 102.4 512 102.4s409.6 184.32 409.6 409.6-184.32 409.6-409.6 409.6z" p-id="3028" fill="#ffffff"></path><path d="M537.6 384h-51.2v51.2h-179.2v281.6h51.2v-25.6h128v128h51.2v-128h128v25.6h51.2V435.2h-179.2v-51.2z m-51.2 256h-128v-51.2h128v51.2z m0-102.4h-128v-51.2h128v51.2z m179.2 102.4h-128v-51.2h128v51.2z m0-153.6v51.2h-128v-51.2h128zM537.6 204.8h-51.2v76.8h-230.4v102.4h51.2v-51.2h409.6v51.2h51.2v-102.4h-230.4z" p-id="3029" fill="#ffffff"></path></svg>