<?xml version="1.0" standalone="no"?><!DOCTYPE svg PUBLIC "-//W3C//DTD SVG 1.1//EN" "http://www.w3.org/Graphics/SVG/1.1/DTD/svg11.dtd"><svg t="1501208711055" class="icon" style="" viewBox="0 0 1024 1024" version="1.1" xmlns="http://www.w3.org/2000/svg" p-id="14334" xmlns:xlink="http://www.w3.org/1999/xlink" width="200" height="200"><defs><style type="text/css"></style></defs><path style="fill:#fff" d="M609.581 947.501H109.026c-15.059 0-27.708-9.035-27.708-18.673V126.494c0-10.24 13.251-18.673 27.708-18.673h53.61c9.637 0 16.865-7.83 16.865-16.866 0-9.637-7.83-16.866-16.866-16.866h-53.61c-34.333 0-62.041 23.492-62.041 53.007v801.732c0 28.913 27.708 53.007 62.042 53.007H609.58c9.638 0 16.866-7.83 16.866-16.866s-7.228-17.468-16.866-17.468z m149.384-839.68h39.755c15.059 0 27.708 9.035 27.708 18.673v381.892c0 9.638 7.83 16.866 16.866 16.866 9.638 0 16.866-7.83 16.866-16.866V126.494c0-28.913-27.708-53.007-62.042-53.007h-39.153c-9.638 0-16.866 7.83-16.866 16.866 0 9.638 7.228 17.468 16.866 17.468z m12.047 241.544c0-9.638-7.83-16.866-16.866-16.866H156.612c-9.638 0-16.866 7.83-16.866 16.866 0 9.637 7.83 16.866 16.866 16.866h597.534c9.638 0.602 16.866-7.229 16.866-16.866z m-156.01 205.402c0-9.638-7.83-16.866-16.866-16.866H156.612c-9.638 0-16.866 7.83-16.866 16.866 0 9.638 7.83 16.866 16.866 16.866h441.524c9.638 0 16.866-7.83 16.866-16.866zM156.612 742.1c-9.638 0-16.866 7.83-16.866 16.866 0 9.637 7.83 16.866 16.866 16.866h360.207c9.637 0 16.866-7.831 16.866-16.866 0-9.638-7.83-16.866-16.866-16.866H156.612z m82.522-597.534h438.513c28.31 0 51.802-23.492 51.802-51.803v-4.216c0-28.31-23.491-51.802-51.802-51.802H239.134c-28.31 0-51.802 23.491-51.802 51.802v4.216c0 28.913 23.492 51.803 51.802 51.803z m5.421-71.078h428.273c9.638 0 16.866 7.83 16.866 16.866 0 9.638-7.83 16.866-16.866 16.866H244.555c-9.637 0-16.866-7.83-16.866-16.866-0.602-9.035 7.229-16.866 16.866-16.866zM786.071 542.72c-119.869 0-216.847 97.581-216.847 216.847s97.58 216.847 216.847 216.847 216.847-97.581 216.847-216.847S905.336 542.72 786.07 542.72z m0 410.805c-107.22 0-193.958-87.341-193.958-193.958 0-107.219 87.341-193.958 193.958-193.958s193.957 87.342 193.957 193.958c0 106.617-87.34 193.958-193.957 193.958z m98.183-273.469l-120.47 122.88-77.102-72.884c-6.626-6.626-17.468-6.024-24.094 0.602-6.626 6.626-6.023 17.468 0.603 24.094l101.195 95.774 143.962-146.371c6.626-6.626 6.626-17.469 0-24.095-6.626-6.625-17.468-6.625-24.094 0z"  p-id="14335"></path></svg>