<?xml version="1.0" standalone="no"?><!DOCTYPE svg PUBLIC "-//W3C//DTD SVG 1.1//EN" "http://www.w3.org/Graphics/SVG/1.1/DTD/svg11.dtd"><svg t="1536292312372" class="icon" style="" viewBox="0 0 1024 1024" version="1.1" xmlns="http://www.w3.org/2000/svg" p-id="2701" xmlns:xlink="http://www.w3.org/1999/xlink" width="200" height="200"><defs><style type="text/css"></style></defs><path d="M704 96h-96v64h96V96z m128-64h-64v192h64V32z m-288 0h-64v192h64V32zM256 32H192v192h64V32z m160 64h-96v64h96V96z m480 0v64h64v128H64V160h64V96H0v896h1024V96h-128z m64 832H64V352h896v576z m-515.2-89.6l44.8-44.8 316.8-316.8-44.8-44.8-316.8 316.8-182.4-182.4-44.8 44.8 182.4 182.4 44.8 44.8z" fill="#13227a" p-id="2702"></path></svg>