<?xml version="1.0" standalone="no"?><!DOCTYPE svg PUBLIC "-//W3C//DTD SVG 1.1//EN" "http://www.w3.org/Graphics/SVG/1.1/DTD/svg11.dtd"><svg t="1536293888850" class="icon" style="" viewBox="0 0 1024 1024" version="1.1" xmlns="http://www.w3.org/2000/svg" p-id="3707" xmlns:xlink="http://www.w3.org/1999/xlink" width="200" height="200"><defs><style type="text/css"></style></defs><path d="M836.901339 63.756315h-649.266162c-35.338378 0-64.100341 28.748652-64.100341 64.100341v766.1396c0 35.351689 28.761963 64.100341 64.100341 64.100341h649.266162c35.338378 0 64.100341-28.748652 64.100341-64.100341V127.856656c0-35.351689-28.761963-64.100341-64.100341-64.100341z m7.515318 830.239941a7.522485 7.522485 0 0 1-7.515318 7.515319h-649.266162a7.522485 7.522485 0 0 1-7.515318-7.515319V127.856656a7.522485 7.522485 0 0 1 7.515318-7.515318h649.266162a7.522485 7.522485 0 0 1 7.515318 7.515318v766.1396z" fill="#13227a" p-id="3708"></path><path d="M510.651543 563.588462c0-15.62449-12.654199-28.293023-28.293023-28.293023h-161.466716c-15.637801 0-28.293023 12.668533-28.293023 28.293023s12.654199 28.293023 28.293023 28.293023h161.466716c15.638824 0 28.293023-12.668533 28.293023-28.293023zM320.891804 438.813701h382.751884c15.637801 0 28.293023-12.668533 28.293023-28.293023s-12.654199-28.293023-28.293023-28.293023H320.891804c-15.637801 0-28.293023 12.668533-28.293023 28.293023 0.001024 15.62449 12.655223 28.293023 28.293023 28.293023zM320.891804 291.340426h382.751884c15.637801 0 28.293023-12.668533 28.293023-28.293023s-12.654199-28.293023-28.293023-28.293023H320.891804c-15.637801 0-28.293023 12.668533-28.293023 28.293023 0.001024 15.625514 12.655223 28.293023 28.293023 28.293023zM804.658166 576.338906L688.58643 604.687219l-89.160958-79.531316-8.868894 119.138272-103.196378 60.218792 110.545827 45.256755 25.363687 116.748524 77.224503-91.150367 118.889468 11.936455-62.829699-101.607308 48.10418-109.35812zM676.56704 716.103348l-22.35244 26.358904-7.349449-33.776953-31.967748-13.096517 29.867759-17.420385 2.569952-34.453741 25.778361 23.001584 33.570128-8.206441-13.897195 31.636009 18.180108 29.411106-34.399476-3.453566z" fill="#13227a" p-id="3709"></path></svg>