<?xml version="1.0" standalone="no"?><!DOCTYPE svg PUBLIC "-//W3C//DTD SVG 1.1//EN" "http://www.w3.org/Graphics/SVG/1.1/DTD/svg11.dtd"><svg t="1557108515594" class="icon" style="" viewBox="0 0 1024 1024" version="1.1" xmlns="http://www.w3.org/2000/svg" p-id="4730" xmlns:xlink="http://www.w3.org/1999/xlink" width="200" height="200"><defs><style type="text/css"></style></defs><path d="M887.04 499.84H134.4a44.8 44.8 0 0 0-44.8 44.8V640a44.8 44.8 0 0 0 44.8 44.8h26.24v247.04a44.8 44.8 0 0 0 44.8 44.8h610.56a44.8 44.8 0 0 0 44.8-44.8v-247.68h26.24a44.8 44.8 0 0 0 44.8-44.8V544.64a44.8 44.8 0 0 0-44.8-44.8z m-90.24 412.16H224.64v-227.84h572.16z m71.04-291.84H153.6v-56.32h714.24z" fill="#ffffff" p-id="4731"></path><path d="M364.8 794.24h291.84a32 32 0 1 0 0-64H364.8a32 32 0 1 0 0 64zM364.8 281.6a32 32 0 0 0 32-32 140.16 140.16 0 0 1 280.32 0v26.24A140.16 140.16 0 0 1 536.96 416a32 32 0 0 0 0 64 204.16 204.16 0 0 0 204.16-204.16V249.6a204.16 204.16 0 0 0-408.32 0 32 32 0 0 0 32 32zM291.2 331.52a32 32 0 0 0 32-32V256A32 32 0 0 0 256 256v42.88a32 32 0 0 0 35.2 32.64zM783.36 331.52a32 32 0 0 0 32-32V256a32 32 0 0 0-64 0v42.88a32 32 0 0 0 32 32.64z" fill="#ffffff" p-id="4732"></path></svg>