<?xml version="1.0" standalone="no"?><!DOCTYPE svg PUBLIC "-//W3C//DTD SVG 1.1//EN" "http://www.w3.org/Graphics/SVG/1.1/DTD/svg11.dtd"><svg t="1557108148587" class="icon" style="" viewBox="0 0 1024 1024" version="1.1" xmlns="http://www.w3.org/2000/svg" p-id="1959" xmlns:xlink="http://www.w3.org/1999/xlink" width="200" height="200"><defs><style type="text/css"></style></defs><path d="M815.407407 381.402074V274.962963C815.407407 123.354074 679.291259 0 512 0S208.592593 123.354074 208.592593 274.962963v106.439111c-64.493037 11.112296-113.777778 67.318519-113.777778 134.959407v370.574223C94.814815 962.503111 156.311704 1024 231.898074 1024h560.203852C867.688296 1024 929.185185 962.503111 929.185185 886.916741V516.342519c0-67.621926-49.284741-123.828148-113.777778-134.940445zM246.518519 274.962963C246.518519 144.251259 365.605926 37.925926 512 37.925926s265.481481 106.325333 265.481481 237.037037V379.259259H246.518519v-104.296296z m644.74074 611.953778A99.271111 99.271111 0 0 1 792.101926 986.074074H231.898074A99.271111 99.271111 0 0 1 132.740741 886.916741V516.342519A99.271111 99.271111 0 0 1 231.898074 417.185185h560.203852A99.271111 99.271111 0 0 1 891.259259 516.342519v370.574222z" p-id="1960" fill="#ffffff"></path><path d="M512 530.962963c-41.832296 0-75.851852 34.019556-75.851852 75.851852v113.777778c0 41.832296 34.019556 75.851852 75.851852 75.851851s75.851852-34.019556 75.851852-75.851851v-113.777778c0-41.832296-34.019556-75.851852-75.851852-75.851852z m37.925926 189.62963c0 20.916148-17.009778 37.925926-37.925926 37.925926s-37.925926-17.009778-37.925926-37.925926v-113.777778c0-20.916148 17.009778-37.925926 37.925926-37.925926s37.925926 17.009778 37.925926 37.925926v113.777778z" p-id="1961" fill="#ffffff"></path></svg>