<?xml version="1.0" standalone="no"?><!DOCTYPE svg PUBLIC "-//W3C//DTD SVG 1.1//EN" "http://www.w3.org/Graphics/SVG/1.1/DTD/svg11.dtd"><svg t="1557109286952" class="icon" style="" viewBox="0 0 1024 1024" version="1.1" xmlns="http://www.w3.org/2000/svg" p-id="5979" xmlns:xlink="http://www.w3.org/1999/xlink" width="200" height="200"><defs><style type="text/css"></style></defs><path d="M951.4496 870.59456c-2.3808 32.43008-74.51136 20.46976-95.232 20.46976H127.43168c-11.89888 0-27.55072 2.50368-35.70688-8.30464-7.90528-10.48064-3.92704-33.53088-3.92704-45.44v-194.62656-244.84352-91.19232c0-13.5936-4.17792-37.72416 8.30464-47.14496 8.22272-6.20544 23.40864-3.92704 33.0496-3.92704h730.12224c19.36384 0 81.77152-10.58816 91.136 13.97248 4.24448 11.14112 1.03424 28.3648 1.03424 39.77728v93.01504l0.00512 468.24448c0 33.01376 51.2 33.01376 51.2 0V389.0176 301.60384c0-19.26144 1.91488-40.41728-7.7824-57.89184-25.55904-46.10048-74.14784-39.32672-118.37952-39.32672H108.93312c-39.99744 0-72.33536 32.96256-72.33536 72.77568V853.9136c0 26.34752 3.33312 49.54112 23.34208 69.55008 16.20992 16.20992 38.41024 18.80064 59.93984 18.80064h810.42944c41.28256 0 69.44256-32.38912 72.33536-71.66976 2.42688-32.95744-48.7936-32.72704-51.19488 0z" p-id="5980" fill="#ffffff"></path><path d="M77.99808 277.61664l415.44704 355.97824c11.30496 9.69216 24.8832 9.5232 36.20352 0l441.37472-371.15392c25.30304-21.27872-11.1104-57.30304-36.1984-36.20352a33642133.1456 33642133.1456 0 0 1-441.37984 371.15904h36.20352L114.20672 241.41312c-24.92416-21.36064-61.31712 14.68928-36.20864 36.20352z" p-id="5981" fill="#ffffff"></path><path d="M408.11008 539.08992l-330.45504 361.17504" p-id="5982" fill="#ffffff"></path><path d="M390.01088 520.99072l-330.46016 361.17504c-22.23616 24.29952 13.87008 60.61056 36.20352 36.1984l330.46016-361.17504c22.23616-24.29952-13.87008-60.61056-36.20352-36.1984z" p-id="5983" fill="#ffffff"></path><path d="M603.33568 538.08128l360.95488 362.18368" p-id="5984" fill="#ffffff"></path><path d="M585.23648 556.18048l360.95488 362.18368c23.32672 23.40864 59.52512-12.8 36.1984-36.1984l-360.95488-362.18368c-23.32672-23.41376-59.52512 12.8-36.1984 36.1984z" p-id="5985" fill="#ffffff"></path></svg>