<?xml version="1.0" standalone="no"?><!DOCTYPE svg PUBLIC "-//W3C//DTD SVG 1.1//EN" "http://www.w3.org/Graphics/SVG/1.1/DTD/svg11.dtd"><svg t="1557107810233" class="icon" style="" viewBox="0 0 1024 1024" version="1.1" xmlns="http://www.w3.org/2000/svg" p-id="1044" xmlns:xlink="http://www.w3.org/1999/xlink" width="200" height="200"><defs><style type="text/css"></style></defs><path d="M521.664 354.496c0-11.584 9.344-21.056 21.056-21.056h274.112a21.056 21.056 0 1 1-0.064 42.112H542.656a20.992 20.992 0 0 1-20.992-21.056z m20.992-83.648h274.112a21.056 21.056 0 1 0 0-42.112H542.656a21.056 21.056 0 1 0 0 42.112z m0 209.344h79.616a21.056 21.056 0 0 0 0.064-41.984H542.656a20.992 20.992 0 0 0 0 41.984z m443.968 261.312a244.48 244.48 0 1 1-489.088-0.128 244.48 244.48 0 0 1 489.088 0.128z m-76.608-83.904l-41.984-41.984-167.808 167.808-83.968-83.904-41.92 41.92 125.888 125.888 209.792-209.728zM429.12 272a109.696 109.696 0 1 0-219.392 0 109.696 109.696 0 0 0 219.392 0zM165.056 504.64v65.024H474.88V504.64c0-50.752-41.152-91.904-91.904-91.904H256.96c-50.752 0-91.904 41.152-91.904 91.904zM909.44 42.048H119.872c-42.624 0-77.184 34.56-77.184 77.184v509.568c0 42.624 34.56 77.184 77.184 77.184h343.424c3.52-27.968 11.136-54.656 22.272-79.36H121.984V121.344h785.408l-0.064 392.448c32.32 23.552 59.392 53.696 79.232 88.512V119.232c0-42.624-34.56-77.184-77.12-77.184z m0 0" p-id="1045" fill="#ffffff"></path></svg>