<?xml version="1.0" standalone="no"?><!DOCTYPE svg PUBLIC "-//W3C//DTD SVG 1.1//EN" "http://www.w3.org/Graphics/SVG/1.1/DTD/svg11.dtd"><svg t="1557109202092" class="icon" style="" viewBox="0 0 1024 1024" version="1.1" xmlns="http://www.w3.org/2000/svg" p-id="5012" xmlns:xlink="http://www.w3.org/1999/xlink" width="200" height="200"><defs><style type="text/css"></style></defs><path d="M323.072 660.48c-86.016 0-155.648-69.632-155.648-155.648 0-86.016 69.632-155.648 155.648-155.648s155.648 69.632 155.648 155.648c0 86.016-69.632 155.648-155.648 155.648z m0-260.096c-57.344 0-104.448 47.104-104.448 104.448S265.728 609.28 323.072 609.28s104.448-47.104 104.448-104.448-47.104-104.448-104.448-104.448z" p-id="5013" fill="#ffffff"></path><path d="M80 920c-13.44 0-24-10.56-24-24 0-155.52 126.24-281.76 281.76-281.76 70.08 0 137.76 25.92 190.08 73.44 9.6 9.12 10.56 24 1.44 34.08-9.12 9.6-24 10.56-34.08 1.44-43.2-39.36-99.36-60.96-157.44-60.96-129.12 0-233.76 104.64-233.76 233.76 0 13.44-10.56 24-24 24zM695.36 651.2c-80.64 0-145.92-65.28-145.92-145.92 0-80.64 65.28-145.92 145.92-145.92s145.92 65.28 145.92 145.92c0 80.64-65.28 145.92-145.92 145.92z m0-243.84c-53.76 0-97.92 44.16-97.92 97.92S641.6 603.2 695.36 603.2s97.92-44.16 97.92-97.92-44.16-97.92-97.92-97.92z" p-id="5014" fill="#ffffff"></path><path d="M956 920c-13.44 0-24-10.56-24-24 0-129.12-104.64-233.76-233.76-233.76S464.48 766.88 464.48 896c0 13.44-10.56 24-24 24s-24-10.56-24-24c0-155.52 126.24-281.76 281.76-281.76s281.76 126.24 281.76 281.76c0 13.44-10.56 24-24 24zM517.76 357.44c-80.64 0-145.92-65.28-145.92-145.92S437.12 65.6 517.76 65.6s145.92 65.28 145.92 145.92-65.28 145.92-145.92 145.92z m0-243.84C464 113.6 419.84 157.76 419.84 211.52s44.16 97.92 97.92 97.92 97.92-44.16 97.92-97.92S571.52 113.6 517.76 113.6z" p-id="5015" fill="#ffffff"></path><path d="M666.112 400.384c-4.608 0-9.216-1.024-13.312-4.096-39.424-24.576-84.992-37.376-131.584-37.376-46.592 0-91.648 12.8-131.584 37.376-11.776 7.68-27.648 3.584-35.328-8.192s-3.584-27.648 8.192-35.328c47.616-29.696 102.4-45.568 158.208-45.568 55.808 0 110.592 15.872 158.208 45.568 11.776 7.68 15.872 23.04 8.192 35.328-4.096 8.192-12.288 12.288-20.992 12.288z" p-id="5016" fill="#ffffff"></path></svg>