<?xml version="1.0" standalone="no"?><!DOCTYPE svg PUBLIC "-//W3C//DTD SVG 1.1//EN" "http://www.w3.org/Graphics/SVG/1.1/DTD/svg11.dtd"><svg t="1550569488606" class="icon" style="" viewBox="0 0 1024 1024" version="1.1" xmlns="http://www.w3.org/2000/svg" p-id="7136" xmlns:xlink="http://www.w3.org/1999/xlink" width="200" height="200"><defs><style type="text/css"></style></defs><path d="M512.386398 1024a512 512 0 1 1 512.113646-511.977271 512.045459 512.045459 0 0 1-512.113646 511.977271z m-0.681879-932.264583a419.605434 419.605434 0 1 0 419.696351 419.71908A419.650892 419.650892 0 0 0 511.704519 91.735417z m0.704608 699.562106a278.888396 278.888396 0 0 1-239.543993-136.17118l83.234662-41.617331a186.380183 186.380183 0 0 0 312.505016 0.295481l82.257303 43.185652a278.865666 278.865666 0 0 1-238.452988 134.307378z m162.44624-325.824381a68.756104 68.756104 0 0 1-69.278878-68.187872l0.636421-2.659327a69.324336 69.324336 0 0 1 138.648672 0l-0.63642 2.659327a68.756104 68.756104 0 0 1-69.369795 68.187872z m-162.44624-232.702477h1.386487-2.750244c0.500044 0.068188 0.909172 0 1.363757 0z m-163.40087 232.702477a68.756104 68.756104 0 0 1-69.278878-68.187872l0.636421-2.659327a69.324336 69.324336 0 0 1 138.648672 0l-0.63642 2.659327a68.756104 68.756104 0 0 1-69.369795 68.187872z" fill="#338CFA" p-id="7137"></path></svg>