<?xml version="1.0" standalone="no"?><!DOCTYPE svg PUBLIC "-//W3C//DTD SVG 1.1//EN" "http://www.w3.org/Graphics/SVG/1.1/DTD/svg11.dtd"><svg t="1501156060365" class="icon" style="" viewBox="0 0 1024 1024" version="1.1" xmlns="http://www.w3.org/2000/svg" p-id="1656" xmlns:xlink="http://www.w3.org/1999/xlink" width="200" height="200"><defs><style type="text/css"></style></defs><path fill="#13227a" d="M697.897 510.22l1.733 21.728c0.079 0.995 0.177 1.988 0.276 2.982 0.146 1.459 0.283 2.837 0.283 3.786 0 70.003-88.801 177.963-206.792 177.963-117.992 0-206.791-107.96-206.791-177.963 0-0.949 0.139-2.327 0.286-3.786 0.098-0.991 0.196-1.984 0.276-2.98l1.737-21.729H12v495.945h1000V510.22H697.897z m273.851 455.694H52.25V550.47h194.638c3.995 44.865 30.352 93.991 72.211 133.674 49.511 46.937 111.411 72.785 174.3 72.785 62.891 0 124.79-25.852 174.301-72.785 41.86-39.683 68.216-88.809 72.21-133.674h231.839v415.444h-0.001zM175.95 58.619h445.18v217.609h239.929v197.48h40.25V235.977h-1.336l0.481-0.531L661.38 18.611v-0.243h-0.267l-0.586-0.533-0.483 0.533H135.701v455.34h40.249V58.619z m665.177 177.358H661.38V72.952l179.747 163.025z" p-id="1657"></path></svg>