<?xml version="1.0" standalone="no"?><!DOCTYPE svg PUBLIC "-//W3C//DTD SVG 1.1//EN" "http://www.w3.org/Graphics/SVG/1.1/DTD/svg11.dtd"><svg t="1501156137271" class="icon" style="" viewBox="0 0 1024 1024" version="1.1" xmlns="http://www.w3.org/2000/svg" p-id="2462" xmlns:xlink="http://www.w3.org/1999/xlink" width="200" height="200"><defs><style type="text/css"></style></defs><path fill="#13227a" d="M369.9712 350.208c-1.604267 3.310933-9.045333 8.669867-12.629333 9.181867l-311.227733 45.021867c-6.314667 0.9216-7.68 4.608-3.072 9.181867l224.836267 218.999467c2.594133 2.491733 5.461333 11.229867 4.846933 14.813867l-52.872533 309.998933c-1.1264 6.485333 2.082133 8.704 7.816533 5.666133l-0.068267 0.068267c92.842667-48.913067 185.309867-98.167467 278.186667-147.012267 3.1744-1.706667 12.356267-1.706667 15.598933 0l278.084267 146.944c5.973333 3.208533 8.874667 0.580267 7.850667-5.597867l-53.8624-310.0672c-0.648533-3.584 2.184533-12.253867 4.881067-14.813867l224.631467-218.794667c4.744533-4.608 3.515733-8.2944-2.935467-9.181867l-310.4768-45.2608c-3.584-0.477867-11.127467-5.973333-12.731733-9.250133l-138.478933-281.8048C515.549867 62.464 511.624533 62.464 508.7232 68.266667L369.9712 350.208 369.9712 350.208zM343.8592 327.543467l134.894933-274.0224c15.121067-30.651733 54.4768-30.685867 69.666133 0.034133l0.068267 0.068267 134.656 273.954133 301.6704 43.963733c33.860267 4.846933 46.114133 42.461867 21.538133 66.286933l-218.350933 212.616533 52.3264 301.397333c5.666133 33.0752-25.7024 57.1392-56.4224 40.891733l-270.336-142.916267c-90.248533 47.479467-180.087467 95.402667-270.370133 142.916267l-0.034133 0.136533c-30.276267 15.872-62.088533-7.441067-56.285867-41.028267l51.370667-301.3632-218.453333-212.8896c-24.4736-23.893333-12.1856-61.405867 21.674667-66.2528L343.8592 327.543467 343.8592 327.543467z" p-id="2463"></path></svg>