<?xml version="1.0" standalone="no"?><!DOCTYPE svg PUBLIC "-//W3C//DTD SVG 1.1//EN" "http://www.w3.org/Graphics/SVG/1.1/DTD/svg11.dtd"><svg t="1501207628474" class="icon" style="" viewBox="0 0 1024 1024" version="1.1" xmlns="http://www.w3.org/2000/svg" p-id="8516" xmlns:xlink="http://www.w3.org/1999/xlink" width="200" height="200"><defs><style type="text/css"></style></defs><path d="M576.92622 313.920666l279.118022 0 0 58.898435-279.118022 0 0-58.898435Z" p-id="8517"></path><path d="M576.92622 470.662523l279.118022 0 0 58.898435-279.118022 0 0-58.898435Z" p-id="8518"></path><path d="M650.135592 612.727099l205.90865 0 0 58.898435-205.90865 0 0-58.898435Z" p-id="8519"></path><path d="M632.565425 804.51617c0-132.404566-90.962711-243.658416-213.583446-275.413654 73.624834-28.607548 126.014018-100.048647 126.014018-183.677323 0-108.744703-88.436168-197.195198-197.179848-197.195198-108.747773 0-197.180871 88.452541-197.180871 197.195198 0 83.629699 52.386114 155.069775 126.012995 183.677323C154.023444 560.855708 63.060733 672.111604 63.060733 804.51617l0.053212 0c-0.001023 0.345877-0.014326 0.689708-0.014326 1.035586 0 1.456165 0.033769 2.904143 0.056282 4.355191l58.993602 0c-0.026606-1.449002-0.055259-2.899026-0.055259-4.355191 0-124.672464 101.066837-225.739301 225.739301-225.739301s225.739301 101.066837 225.739301 225.739301c0 1.456165-0.026606 2.90619-0.055259 4.355191l58.993602 0c0.021489-1.451048 0.055259-2.899026 0.055259-4.355191 0-0.345877-0.01228-0.689708-0.013303-1.035586L632.565425 804.51617zM210.523249 345.425194c0-75.707262 61.59587-137.288806 137.291876-137.288806 75.693959 0 137.289829 61.581544 137.289829 137.288806 0 75.68475-61.59587 137.28369-137.289829 137.28369C272.120143 482.708883 210.523249 421.109943 210.523249 345.425194z" p-id="8520"></path><path d="M908.157133 111.952768 518.469853 111.952768l0 58.898435 361.487008 0c11.30344 0 20.466124 9.162684 20.466124 20.466124l0 641.367393c0 11.30344-9.162684 20.466124-20.466124 20.466124L730.976782 853.150844l0 58.898435 177.181375 0c28.256554 0 51.16531-22.907733 51.16531-51.16531L959.323467 163.118078C959.322443 134.859477 936.414711 111.952768 908.157133 111.952768z" p-id="8521"></path><path d="M92.509439 783.904737c16.265452 0 29.449729 13.1853 29.449729 29.448706l0 54.100152c0 16.264429-13.1853 29.448706-29.449729 29.448706l0 0c-16.264429 0-29.448706-13.1853-29.448706-29.448706l0-54.100152C63.060733 797.090037 76.246033 783.904737 92.509439 783.904737L92.509439 783.904737z" p-id="8522"></path><path d="M603.116719 783.904737c16.265452 0 29.449729 13.1853 29.449729 29.448706l0 54.100152c0 16.264429-13.1853 29.448706-29.449729 29.448706l0 0c-16.265452 0-29.449729-13.1853-29.449729-29.448706l0-54.100152C573.66699 797.090037 586.851267 783.904737 603.116719 783.904737L603.116719 783.904737z"  p-id="8523"></path></svg>