<?xml version="1.0" standalone="no"?><!DOCTYPE svg PUBLIC "-//W3C//DTD SVG 1.1//EN" "http://www.w3.org/Graphics/SVG/1.1/DTD/svg11.dtd"><svg t="1501057043101" class="icon" style="" viewBox="0 0 1024 1024" version="1.1" xmlns="http://www.w3.org/2000/svg" p-id="3627" xmlns:xlink="http://www.w3.org/1999/xlink" width="200" height="200"><defs><style type="text/css"></style></defs><path d="M733.956306 476.113337c-14.748868 0-26.735454 11.987608-26.735454 26.708874 0 103.710295-84.362054 188.097906-188.071326 188.097906L504.84843 690.920117c-103.709273 0-188.070304-84.387611-188.070304-188.097906 0-14.721266-11.988631-26.708874-26.736477-26.708874-14.747846 0-26.735454 11.987608-26.735454 26.708874 0 126.344241 96.821969 230.395987 221.93126 240.46472l0 48.398206L369.539551 791.685136c-14.747846 0-26.762034 12.013166-26.762034 26.787592 0 14.748868 12.014189 26.735454 26.762034 26.735454l284.945433 0c14.747846 0 26.735454-11.987608 26.735454-26.735454 0-14.774426-11.988631-26.787592-26.735454-26.787592L538.761523 791.685136l0-48.398206c125.10929-10.069755 221.93126-114.120479 221.93126-240.46472C760.691761 488.100945 748.704152 476.113337 733.956306 476.113337zM510.710356 663.238004c95.98163 0 174.059544-79.498924 174.059544-177.187813L684.769899 356.945713c0-97.663331-78.077913-177.108072-174.059544-177.108072-96.007188 0-174.111681 79.444742-174.111681 177.108072L336.598674 486.050191C336.599697 583.739079 414.70419 663.238004 510.710356 663.238004zM510.710356 233.360687c66.484916 0 120.561033 55.442945 120.561033 123.584004L631.271388 486.050191c0 68.194219-54.076116 123.662722-120.561033 123.662722-66.484916 0-120.587613-55.469525-120.587613-123.662722L390.122743 356.945713C390.123765 288.804654 444.225439 233.360687 510.710356 233.360687zM511.998467 1.045823c-282.026738 0-511.476066 229.449328-511.476066 511.477088 0 282.02776 229.449328 511.477088 511.476066 511.477088 282.02776 0 511.477088-229.449328 511.477088-511.477088C1023.475555 230.496174 794.026227 1.045823 511.998467 1.045823zM511.998467 970.16106c-252.34703 0-457.637126-205.290095-457.637126-457.637126 0-252.34703 205.290095-457.637126 457.637126-457.637126 252.348053 0 457.637126 205.290095 457.637126 457.637126C969.635592 764.870964 764.346519 970.16106 511.998467 970.16106z" p-id="3628"></path></svg>