<?xml version="1.0" standalone="no"?><!DOCTYPE svg PUBLIC "-//W3C//DTD SVG 1.1//EN" "http://www.w3.org/Graphics/SVG/1.1/DTD/svg11.dtd"><svg class="icon" width="200px" height="200.00px" viewBox="0 0 1024 1024" version="1.1" xmlns="http://www.w3.org/2000/svg"><path fill="#ec6c25" d="M896 0h-768C87.04 0 51.2 25.6 51.2 61.44v906.24l25.6 25.6c25.6 25.6 71.68 25.6 102.4 0L256 916.48l76.8 76.8c25.6 25.6 71.68 25.6 102.4 0l76.8-76.8 76.8 76.8c25.6 25.6 71.68 25.6 102.4 0l76.8-76.8 76.8 76.8c25.6 25.6 71.68 25.6 102.4 0l25.6-25.6V61.44c0-35.84-35.84-61.44-76.8-61.44zM614.4 614.4H256c-25.6 0-51.2-25.6-51.2-51.2s25.6-51.2 51.2-51.2h358.4c25.6 0 51.2 25.6 51.2 51.2s-25.6 51.2-51.2 51.2z m153.6-256H256c-25.6 0-51.2-25.6-51.2-51.2s25.6-51.2 51.2-51.2h512c25.6 0 51.2 25.6 51.2 51.2s-25.6 51.2-51.2 51.2z" /></svg>