<?xml version="1.0" standalone="no"?><!DOCTYPE svg PUBLIC "-//W3C//DTD SVG 1.1//EN" "http://www.w3.org/Graphics/SVG/1.1/DTD/svg11.dtd"><svg class="icon" width="200px" height="200.00px" viewBox="0 0 1024 1024" version="1.1" xmlns="http://www.w3.org/2000/svg"><path fill="#ec6c25" d="M859.776 929.344 165.312 929.344 165.312 156.352l92.928-46.4L351.488 165.76c19.456 11.712 49.088 11.712 68.544 0l93.184-55.808L606.336 165.76c19.584 11.712 49.152 11.712 68.608 0l93.184-55.808 91.648 46.4 0 774.336L859.776 929.344zM898.816 112.768l-115.712-72.192c-18.304-11.392-46.08-11.392-64.32 0L631.424 95.04 544.128 40.576c-18.368-11.392-46.08-11.392-64.384 0L392.512 95.04 305.152 40.576c-18.304-11.392-46.016-11.392-64.32 0L127.424 111.36C113.408 117.248 104.064 127.872 104.064 140.096l0 818.304c0 18.56 21.568 33.6 48.192 33.6L871.68 992c26.624 0 48.256-15.04 48.256-33.6L919.936 140.096C919.936 128.832 911.424 118.848 898.816 112.768L898.816 112.768zM660.416 638.976 350.272 638.976c-16 0-28.928 8.896-28.928 19.968 0 11.008 12.928 19.968 28.928 19.968l310.144 0c16.064 0 28.992-8.96 28.992-19.968C689.408 647.872 676.48 638.976 660.416 638.976M660.416 777.92 350.272 777.92c-16 0-28.928 8.96-28.928 19.968 0 11.008 12.928 19.904 28.928 19.904l310.144 0c16.064 0 28.992-8.96 28.992-19.904C689.408 786.88 676.48 777.92 660.416 777.92M479.488 500.736 410.944 500.736c-6.4-0.448-11.328-3.136-14.72-8-3.456-4.864-5.504-10.24-6.208-16.192 0.704-5.952 2.752-10.752 6.208-14.592 3.456-3.776 8.32-5.888 14.72-6.4l68.544 0 0-22.4L410.944 432.896c-6.4-0.448-11.328-2.752-14.72-6.72C392.768 422.08 390.72 417.024 390.016 410.88c0.704-5.952 2.752-10.752 6.208-14.592 3.456-3.776 8.32-5.952 14.72-6.4L462.08 389.888l-47.616-83.84C412.16 303.232 409.856 299.584 407.744 295.232 405.632 290.816 404.672 286.016 404.928 280.832 406.08 274.176 408.448 268.8 412.032 264.704c3.584-4.16 10.176-6.784 19.904-8 5.696 0.448 10.752 2.432 15.296 5.888 4.48 3.456 8.192 7.168 11.008 11.2L512.192 372.48 571.52 273.024c2.816-4.032 6.528-7.552 11.008-10.688 4.48-3.072 9.6-4.992 15.296-5.696 3.52 0.256 6.784 0.704 9.792 1.408 2.944 0.704 5.568 1.92 7.808 3.584C617.6 263.296 619.52 265.664 621.056 268.736 622.592 271.808 623.744 275.84 624.448 280.832c0 6.848-2.368 13.376-7.104 19.52l-55.04 89.536 52.224 0c6.144 0.448 11.008 2.624 14.592 6.4C632.64 400.064 634.624 404.928 635.072 410.88c-0.448 6.144-2.56 11.392-6.208 15.616C625.216 430.72 620.288 433.088 614.144 433.6L546.304 433.92l0 21.696 68.224 0C620.672 456.064 625.536 458.432 629.056 462.72c3.52 4.288 5.568 9.344 6.016 15.296C634.624 484.16 632.64 489.28 629.056 493.44 625.536 497.6 620.672 499.904 614.464 500.352L546.304 500.032l0 37.632C545.344 557.824 534.336 567.872 513.28 567.872c-10.432 0-18.56-2.496-24.32-7.488C483.136 555.456 480 547.84 479.488 537.664L479.488 500.736 479.488 500.736z" /></svg>