<?xml version="1.0" standalone="no"?><!DOCTYPE svg PUBLIC "-//W3C//DTD SVG 1.1//EN" "http://www.w3.org/Graphics/SVG/1.1/DTD/svg11.dtd"><svg class="icon" width="200px" height="200.00px" viewBox="0 0 1024 1024" version="1.1" xmlns="http://www.w3.org/2000/svg"><path fill="#13227a" d="M790.208 588.672H344.864c-12.32 0-20.544 8.192-20.544 20.48 0 12.352 8.224 20.576 20.544 20.576h445.344c12.288 0 20.48-8.224 20.48-20.576a20.48 20.48 0 0 0-20.48-20.48z m-445.344 184.672c-12.32 0-20.544 8.16-20.544 20.512s8.224 20.544 20.544 20.544h256.48c12.384 0 20.576-8.192 20.576-20.544s-10.272-20.512-20.576-20.512h-256.48zM847.616 5.792H108.864A82.336 82.336 0 0 0 26.784 87.872v788.064a82.304 82.304 0 0 0 82.08 82.048h525.184a252.128 252.128 0 0 1-7.616-38.976H108.864a41.184 41.184 0 0 1-41.056-41.088V87.872c0-22.56 18.496-41.024 41.056-41.024h740.864c22.56 0 41.024 18.464 41.024 41.024v557.472c14.048 1.024 27.744 3.264 41.056 6.528V87.872C929.728 42.752 892.8 5.792 847.616 5.792zM287.392 557.824a19.872 19.872 0 0 0-28.736 0L207.36 609.12l-26.688-26.688a19.872 19.872 0 0 0-28.736 0 19.872 19.872 0 0 0 0 28.736l41.056 41.024a22.208 22.208 0 0 0 14.368 6.144c4.096 0 10.24-2.048 14.368-6.144l65.696-65.664a19.808 19.808 0 0 0-0.032-28.704z m-28.736 186.784L207.36 795.904l-26.688-26.72a19.872 19.872 0 0 0-28.736 0 19.872 19.872 0 0 0 0 28.736l41.056 41.056a22.144 22.144 0 0 0 14.368 6.112c4.096 0 10.24-2.016 14.368-6.112l65.696-65.664a19.872 19.872 0 0 0 0-28.736 19.872 19.872 0 0 0-28.768 0.032zM825.888 672.256a173.088 173.088 0 0 0-172.928 172.864 173.12 173.12 0 0 0 172.928 172.928 173.12 173.12 0 0 0 172.928-172.928 173.12 173.12 0 0 0-172.928-172.864m0 325.504c-84.128 0-152.544-68.512-152.544-152.64s68.416-152.608 152.544-152.608c84.224 0 152.608 68.48 152.608 152.608s-68.416 152.64-152.608 152.64m89.28-221.088M826.528 775.232c43.424 0 80.896 26.496 98.432 64.768h17.088c-18.56-47.424-63.264-80.896-115.52-80.896-52.32 0-97.024 33.472-115.552 80.896h17.088c17.568-38.272 55.008-64.768 98.464-64.768m0 129.376c-43.456 0-80.896-26.4-98.464-64.608h-17.088c18.528 47.36 63.264 80.8 115.552 80.8 52.288 0 96.992-33.44 115.52-80.8h-17.088c-17.536 38.176-54.944 64.608-98.432 64.608M784.96 840c0 23.776 18.56 43.104 41.568 43.104 22.976 0 41.6-19.328 41.6-43.104 0-23.84-18.624-43.136-41.6-43.136-23.008 0-41.568 19.296-41.568 43.136m67.584 0c0 14.88-11.648 26.944-26.016 26.944s-26.016-12.064-26.016-26.944c0-14.944 11.648-26.976 26.016-26.976s26.016 12.032 26.016 26.976m0 0M226.656 504.064h464.128v16.576H226.656v-16.576zM248.768 321.696h40.448v143.328H248.768zM339.936 178.336h40.512v286.688h-40.512zM431.136 274.464h40.48v190.592h-40.48zM522.336 201.952h40.448v263.104h-40.448zM613.44 142.912h40.576v322.144H613.44z" /></svg>