<?xml version="1.0" standalone="no"?><!DOCTYPE svg PUBLIC "-//W3C//DTD SVG 1.1//EN" "http://www.w3.org/Graphics/SVG/1.1/DTD/svg11.dtd"><svg t="1532514106140" class="icon" style="" viewBox="0 0 1024 1024" version="1.1" xmlns="http://www.w3.org/2000/svg" p-id="23612" xmlns:xlink="http://www.w3.org/1999/xlink" width="200" height="200"><defs><style type="text/css"></style></defs><path d="M217.018 141.382H179.2c-20.886 0-37.818 16.932-37.818 37.818v665.6c0 20.886 16.932 37.818 37.818 37.818h37.818V141.382zM246.4 928h-67.2c-45.95 0-83.2-37.25-83.2-83.2V179.2c0-45.95 37.25-83.2 83.2-83.2h67.2c8.837 0 16 7.163 16 16v800c0 8.837-7.163 16-16 16z m96.364-786.618v741.236H844.8c20.886 0 37.818-16.932 37.818-37.818V179.2c0-20.886-16.932-37.818-37.818-37.818H342.764zM844.8 96c45.95 0 83.2 37.25 83.2 83.2v665.6c0 45.95-37.25 83.2-83.2 83.2H313.382c-8.837 0-16-7.163-16-16V112c0-8.837 7.163-16 16-16H844.8zM410.836 517.673h395.2c8.355 0 15.128 6.772 15.128 15.127v30.255c0 8.354-6.773 15.127-15.128 15.127h-395.2c-8.354 0-15.127-6.773-15.127-15.127V532.8c0-8.355 6.773-15.127 15.127-15.127z m0 121.018h395.2c8.355 0 15.128 6.773 15.128 15.127v30.255c0 8.354-6.773 15.127-15.128 15.127h-395.2c-8.354 0-15.127-6.773-15.127-15.127v-30.255c0-8.354 6.773-15.127 15.127-15.127z m0 121.018h395.2c8.355 0 15.128 6.773 15.128 15.127v30.255c0 8.354-6.773 15.127-15.128 15.127h-395.2c-8.354 0-15.127-6.773-15.127-15.127v-30.255c0-8.354 6.773-15.127 15.127-15.127zM642.132 330.78c-17.566 11.3-40.966 6.22-52.266-11.347a37.818 37.818 0 0 1-6.011-20.46V96h238.254v202.974c0 20.886-16.932 37.818-37.818 37.818a37.818 37.818 0 0 1-20.46-6.012l-60.85-39.141-60.85 39.141z m-12.896-189.398v143.733l53.287-34.276a37.818 37.818 0 0 1 40.918 0l53.286 34.276V141.382h-147.49z" p-id="23613" fill="#13227a"></path></svg>