<?xml version="1.0" standalone="no"?><!DOCTYPE svg PUBLIC "-//W3C//DTD SVG 1.1//EN" "http://www.w3.org/Graphics/SVG/1.1/DTD/svg11.dtd"><svg t="1501486989669" class="icon" style="" viewBox="0 0 1024 1024" version="1.1" xmlns="http://www.w3.org/2000/svg" p-id="1171" xmlns:xlink="http://www.w3.org/1999/xlink" width="200" height="200"><defs><style type="text/css"></style></defs><path d="M550.567387 514.14485L656.051837 408.6604c5.092995-5.092995 7.885598-11.870352 7.864108-19.083637-0.022513-7.16212-2.820232-13.860682-7.864108-18.848277-5.071506-5.072529-11.821233-7.866155-19.004843-7.866155-7.191796 0-13.919011 2.797719-18.927071 7.865132L512.63445 476.212936 406.626068 370.307907c-5.071506-5.072529-11.821233-7.866155-19.004843-7.866155-7.191796 0-13.919011 2.797719-18.926048 7.865132-5.092995 5.092995-7.886621 11.872399-7.866155 19.084661 0.022513 7.16212 2.820232 13.860682 7.866155 18.84623l105.905028 105.902982-106.428961 106.431007c-5.092995 5.092995-7.886621 11.870352-7.866155 19.084661 0.022513 7.16212 2.820232 13.860682 7.866155 18.848277 5.071506 5.072529 11.821233 7.865131 19.004843 7.865131 7.190773 0 13.916964-2.797719 18.926048-7.865131l106.429984-106.429985 105.902982 105.905029c5.071506 5.072529 11.821233 7.866155 19.004843 7.866154 7.191796 0 13.919011-2.799766 18.927071-7.866154 5.092995-5.092995 7.886621-11.872399 7.866155-19.084661-0.022513-7.16212-2.820232-13.860682-7.865132-18.84623L550.567387 514.14485z" p-id="1172"></path><path d="M512.268106 111.627357c54.394864 0 107.138112 10.642384 156.766417 31.633464 47.957245 20.283975 91.036389 49.332569 128.042211 86.337367 37.004799 37.004799 66.053392 80.083943 86.337367 128.042212 20.99108 49.627281 31.633465 102.371552 31.633465 156.766416 0 54.394864-10.642384 107.138112-31.633465 156.766417-20.283975 47.957245-49.332569 91.036389-86.337367 128.042211-37.004799 37.004799-80.083943 66.053392-128.042211 86.337367-49.627281 20.99108-102.371552 31.633465-156.766417 31.633465s-107.138112-10.642384-156.766416-31.633465c-47.957245-20.283975-91.036389-49.332569-128.042212-86.337367-37.004799-37.004799-66.053392-80.083943-86.337367-128.042211-20.99108-49.627281-31.633465-102.371552-31.633464-156.766417s10.642384-107.138112 31.633464-156.766416c20.283975-47.957245 49.332569-91.036389 86.337367-128.042212 37.004799-37.004799 80.083943-66.053392 128.042212-86.337367 49.627281-20.99108 102.372575-31.633465 156.766416-31.633464m0-45.122687c-247.368924 0-447.901123 200.531176-447.901123 447.901123s200.531176 447.901123 447.901123 447.901123 447.901123-200.531176 447.901123-447.901123-200.531176-447.901123-447.901123-447.901123z" p-id="1173"></path></svg>