<?xml version="1.0" standalone="no"?><!DOCTYPE svg PUBLIC "-//W3C//DTD SVG 1.1//EN" "http://www.w3.org/Graphics/SVG/1.1/DTD/svg11.dtd"><svg t="1501156196002" class="icon" style="" viewBox="0 0 1024 1024" version="1.1" xmlns="http://www.w3.org/2000/svg" p-id="3162" xmlns:xlink="http://www.w3.org/1999/xlink" width="200" height="200"><defs><style type="text/css"></style></defs><path fill="#13227a" d="M400.832 739.584l515.456-630.72a26.24 26.24 0 0 0-0.32-36.352 25.344 25.344 0 0 0-36.224 0l-515.456 630.656a26.112 26.112 0 0 0 0.256 36.416 25.28 25.28 0 0 0 36.288 0z m472.448-207.04v337.408a36.864 36.864 0 0 1-36.48 37.184H216.192a36.864 36.864 0 0 1-36.48-37.184V237.312a36.864 36.864 0 0 1 36.48-37.248h289.664a25.792 25.792 0 0 0 25.6-25.984 25.792 25.792 0 0 0-25.6-25.984H216.128c-48.448 0-87.68 40-87.68 89.216v632.576c0 49.28 39.232 89.216 87.68 89.216h620.736c48.448 0 87.68-40 87.68-89.216V532.48a25.792 25.792 0 0 0-25.6-25.984 25.792 25.792 0 0 0-25.6 26.048z"  p-id="3163"></path></svg>