<?xml version="1.0" standalone="no"?><!DOCTYPE svg PUBLIC "-//W3C//DTD SVG 1.1//EN" "http://www.w3.org/Graphics/SVG/1.1/DTD/svg11.dtd"><svg t="1501207665280" class="icon" style="" viewBox="0 0 1024 1024" version="1.1" xmlns="http://www.w3.org/2000/svg" p-id="8926" xmlns:xlink="http://www.w3.org/1999/xlink" width="200" height="200"><defs><style type="text/css"></style></defs><path d="M262.9 850.7v-91.1-111.1-121.3-123.3-114.2-96.8-69.6c0-11 0.1-21.9 0-32.9V89c0-12.4-10.5-23-23-23H88c-12.4 0-23 10.5-23 23v811.6c0 11-0.1 21.9 0 32.9v1.4c0 12.4 10.5 23 23 23h151.8c12 0 23.6-10.6 23-23v-22.8c0.1-20.4 0.1-40.9 0.1-61.4z m-173-582c4.2-4.2 10.4-6.7 16.3-6.7h115.6c6.2 0 11.8 2.6 16.3 6.7s6.5 10.3 6.7 16.3c0.3 5.7-2.7 12.3-6.7 16.3-4.2 4.2-10.4 6.7-16.3 6.7H106.2c-6.2 0-11.8-2.6-16.3-6.7S83.4 291 83.2 285c-0.3-5.8 2.7-12.3 6.7-16.3z m0 98.8c4.2-4.2 10.4-6.7 16.3-6.7h115.6c6.2 0 11.8 2.6 16.3 6.7s6.5 10.3 6.7 16.3c0.3 5.7-2.7 12.3-6.7 16.3-4.2 4.2-10.4 6.7-16.3 6.7H106.2c-6.2 0-11.8-2.6-16.3-6.7s-6.5-10.3-6.7-16.3c-0.3-5.7 2.7-12.3 6.7-16.3z m-6.7 112.7c-0.3-5.7 2.7-12.3 6.7-16.3 4.2-4.2 10.4-6.7 16.3-6.7h115.6c6.2 0 11.8 2.6 16.3 6.7s6.5 10.3 6.7 16.3c0.3 5.7-2.7 12.3-6.7 16.3-4.2 4.2-10.4 6.7-16.3 6.7H106.2c-6.2 0-11.8-2.6-16.3-6.7-4.5-4.2-6.5-10.4-6.7-16.3zM491.4 849.7v-91.1-111.1-121.3-123.3-114.2-96.8-69.6c0-11 0.1-21.9 0-32.9V88c0-12.4-10.5-23-23-23H316.2c-12.4 0-23 10.5-23 23v811.6c0 11-0.1 21.9 0 32.9v1.4c0 12.4 10.5 23 23 23H468.4c12 0 23.6-10.6 23-23v-22.8-61.4zM318.1 331.5c4.2-4.2 10.4-6.7 16.3-6.7H450.3c6.2 0 11.8 2.6 16.3 6.7s6.5 10.3 6.7 16.3c0.3 5.7-2.7 12.3-6.7 16.3-4.2 4.2-10.4 6.7-16.3 6.7H334.4c-6.2 0-11.8-2.6-16.3-6.7s-6.5-10.3-6.7-16.3c-0.3-5.7 2.7-12.3 6.7-16.3z m-6.8 112.7c-0.3-5.7 2.7-12.3 6.7-16.3 4.2-4.2 10.4-6.7 16.3-6.7H450.2c6.2 0 11.8 2.6 16.3 6.7s6.5 10.3 6.7 16.3c0.3 5.7-2.7 12.3-6.7 16.3-4.2 4.2-10.4 6.7-16.3 6.7H334.3c-6.2 0-11.8-2.6-16.3-6.7-4.4-4.2-6.4-10.4-6.7-16.3z" fill="white" p-id="8927"></path><path fill="white" d="M956.5 878.6c-2.5-7.1-4.9-14.2-7.4-21.3-6.7-19.3-13.4-38.7-20-58-9.9-28.6-19.7-57.2-29.6-85.8-12-34.9-24.1-69.8-36.1-104.7l-39.6-114.6c-13.3-38.6-26.6-77.1-40-115.7-12.4-36-24.8-71.9-37.2-107.9-10.5-30.3-20.9-60.6-31.4-90.8-7.5-21.9-15.1-43.7-22.6-65.6-3.6-10.3-7.1-20.7-10.7-31.1-0.2-0.4-0.3-0.9-0.5-1.3-3.9-11.2-15.9-20.3-28.3-16.1-16.3 5.6-32.5 11.1-48.8 16.7-25.8 8.8-51.5 17.7-77.3 26.5-6 2-11.9 4.1-17.9 6.1-11.2 3.8-20.3 15.9-16.1 28.3 2.5 7.1 4.9 14.2 7.4 21.3 6.7 19.3 13.4 38.7 20 58 9.9 28.6 19.7 57.2 29.6 85.8 12 34.9 24.1 69.8 36.1 104.7l39.6 114.6c13.3 38.6 26.6 77.1 40 115.7 12.4 36 24.8 71.9 37.2 107.9 10.5 30.3 20.9 60.6 31.4 90.8 7.5 21.9 15.1 43.7 22.6 65.6 3.6 10.3 7.1 20.7 10.7 31.1 0.2 0.4 0.3 0.9 0.5 1.3 3.9 11.2 15.9 20.3 28.3 16.1 16.3-5.6 32.5-11.1 48.8-16.7 25.8-8.8 51.5-17.7 77.3-26.5 6-2 11.9-4.1 17.9-6.1 11.3-3.7 20.3-16.2 16.1-28.3z"  p-id="8928"></path></svg>