<?xml version="1.0" standalone="no"?><!DOCTYPE svg PUBLIC "-//W3C//DTD SVG 1.1//EN" "http://www.w3.org/Graphics/SVG/1.1/DTD/svg11.dtd"><svg class="icon" width="200px" height="200.00px" viewBox="0 0 1024 1024" version="1.1" xmlns="http://www.w3.org/2000/svg"><path fill="#bfbfbf" d="M512.001 71.68c-243.18 0-440.321 197.142-440.321 440.321 0 96.944 31.703 186.256 84.762 259.007l33.097-34.443c-44.448-63.7-70.672-141.001-70.672-224.564 0-217.127 176.006-393.133 393.133-393.133 217.103 0 393.133 176.006 393.133 393.133S729.104 905.135 512.001 905.135c-82.756 0-159.47-25.71-222.803-69.4l-29.624 36.693c71.503 50.197 158.442 79.894 252.426 79.894 243.18 0 440.321-197.142 440.321-440.321S755.181 71.68 512.001 71.68L512.001 71.68zM496.272 291.841l0 204.431-204.431 0 0 47.163 204.431 0 0 204.431 47.163 0L543.435 543.435l204.431 0 0-47.163L543.435 496.272 543.435 291.841 496.272 291.841z" /></svg>