<?xml version="1.0" standalone="no"?><!DOCTYPE svg PUBLIC "-//W3C//DTD SVG 1.1//EN" "http://www.w3.org/Graphics/SVG/1.1/DTD/svg11.dtd"><svg t="1576810363086" class="icon" viewBox="0 0 1024 1024" version="1.1" xmlns="http://www.w3.org/2000/svg" p-id="2104" xmlns:xlink="http://www.w3.org/1999/xlink" width="200" height="200"><defs><style type="text/css"></style></defs><path d="M234.2 725c0-15.7 12.7-28.4 28.4-28.4h199.1c5.3 0 10.3 1.5 14.6 4h4.5l8-7.9L602 582.8H262.7c-15.7 0-28.4-12.7-28.4-28.4S247 526 262.7 526H662.3l156.9-153V114.1c0-15.9-13.3-29.1-29.3-29.1H334.4l-207.7 2.6C105.3 85 92 103.5 92 119.3v779.4c0 15.8 16 34.3 32 31.7h245l50.6-150.6v-2.6c0-3.7 2.7-15.4 4.2-23.7H262.7c-15.7-0.1-28.5-12.8-28.5-28.5z m28.5-384h398.2c15.7 0 28.4 12.7 28.4 28.4s-12.7 28.4-28.4 28.4H262.7c-15.7 0-28.4-12.7-28.4-28.4-0.1-15.7 12.7-28.4 28.4-28.4z" fill="#1296db" p-id="2105"></path><path d="M534.1 732.3l-50.6 44.9c-2.7 0-5.3 5.3-5.3 10.6v2.6l-45.3 134.7c-2.7 5.3 0 7.9 2.7 10.6 2.7 2.6 8 2.6 10.7 2.6L584.8 896h2.7c5.3 0 8-5.3 10.7-5.3l266.3-256.3-112-108.2-218.4 206.1zM925.7 534.1l-74.6-71.3c-10.7-10.6-29.3-7.9-42.6 2.6l-40 39.6 111.9 108.3 40-39.6c13.2-10.5 13.2-29 5.3-39.6z" fill="#1296db" p-id="2106"></path></svg>