<?xml version="1.0" standalone="no"?><!DOCTYPE svg PUBLIC "-//W3C//DTD SVG 1.1//EN" "http://www.w3.org/Graphics/SVG/1.1/DTD/svg11.dtd"><svg t="1576810468072" class="icon" viewBox="0 0 1024 1024" version="1.1" xmlns="http://www.w3.org/2000/svg" p-id="2318" xmlns:xlink="http://www.w3.org/1999/xlink" width="200" height="200"><defs><style type="text/css"></style></defs><path d="M751.7184 107.246933a17.066667 17.066667 0 1 1 0-34.133333h77.653333a85.333333 85.333333 0 0 1 85.333334 85.333333v301.226667a17.066667 17.066667 0 0 1-34.133334 0V158.446933a51.2 51.2 0 0 0-51.2-51.2h-77.653333z m-254.6688 856.200534a17.066667 17.066667 0 0 1 0 34.133333H195.3792a85.333333 85.333333 0 0 1-85.333333-85.333333V158.446933a85.333333 85.333333 0 0 1 85.333333-85.333333h79.7696a17.066667 17.066667 0 0 1 0 34.133333H195.3792a51.2 51.2 0 0 0-51.2 51.2v753.800534a51.2 51.2 0 0 0 51.2 51.2h301.6704z" p-id="2319" fill="#1296db"></path><path d="M311.3984 37.444267a17.066667 17.066667 0 0 0-17.066667 17.066666V166.570667a17.066667 17.066667 0 0 0 17.066667 17.066666h401.954133a17.066667 17.066667 0 0 0 17.066667-17.066666V54.510933a17.066667 17.066667 0 0 0-17.066667-17.066666H311.3984z m0-34.133334h401.954133a51.2 51.2 0 0 1 51.2 51.2V166.570667a51.2 51.2 0 0 1-51.2 51.2H311.3984a51.2 51.2 0 0 1-51.2-51.2V54.510933a51.2 51.2 0 0 1 51.2-51.2zM298.973867 482.986667a17.066667 17.066667 0 0 1 0-34.133334h173.397333a17.066667 17.066667 0 1 1 0 34.133334H299.008zM298.973867 606.890667a17.066667 17.066667 0 0 1 0-34.133334h136.635733a17.066667 17.066667 0 0 1 0 34.133334H298.973867zM298.973867 359.082667a17.066667 17.066667 0 1 1 0-34.133334h432.059733a17.066667 17.066667 0 0 1 0 34.133334H299.008zM626.414933 821.1456a17.066667 17.066667 0 0 0-17.066666 17.066667v38.229333a17.066667 17.066667 0 0 0 17.066666 17.066667h306.414934a17.066667 17.066667 0 0 0 17.066666-17.066667v-38.229333a17.066667 17.066667 0 0 0-17.066666-17.066667h-306.414934z m0-34.133333h306.414934a51.2 51.2 0 0 1 51.2 51.2v38.229333a51.2 51.2 0 0 1-51.2 51.2h-306.414934a51.2 51.2 0 0 1-51.2-51.2v-38.229333a51.2 51.2 0 0 1 51.2-51.2zM594.056533 992.597333a17.066667 17.066667 0 0 1 0-34.133333h374.715734a17.066667 17.066667 0 0 1 0 34.133333H594.056533z" p-id="2320" fill="#1296db"></path><path d="M839.645867 604.910933a70.587733 70.587733 0 1 0-119.125334-4.778666c40.7552 32.802133 52.974933 93.696 29.218134 147.080533-6.8608 15.36-16.213333 29.0816-27.409067 40.516267h121.002667a138.888533 138.888533 0 0 1-27.374934-40.516267c-22.528-50.653867-12.8-108.373333 23.688534-142.336z m24.234666 24.064c-26.282667 23.517867-33.792 66.116267-16.725333 104.3456 12.356267 27.7504 35.259733 47.889067 61.166933 55.022934 19.182933 5.290667 15.36 33.518933-4.539733 33.518933h-241.902933c-19.8656 0-23.688533-28.228267-4.539734-33.518933 25.941333-7.133867 48.810667-27.272533 61.201067-55.022934 18.056533-40.516267 8.430933-85.674667-21.265067-108.066133l-4.130133-4.471467a104.721067 104.721067 0 1 1 173.1584 5.5296l-2.423467 2.6624z" p-id="2321" fill="#1296db"></path></svg>