<?xml version="1.0" standalone="no"?><!DOCTYPE svg PUBLIC "-//W3C//DTD SVG 1.1//EN" "http://www.w3.org/Graphics/SVG/1.1/DTD/svg11.dtd"><svg class="icon" width="200px" height="200.00px" viewBox="0 0 1024 1024" version="1.1" xmlns="http://www.w3.org/2000/svg"><path d="M580.4 506.9l71.1-79.1 165 151.4c35.5 15.1 37.6 56.5 20.8 77-16.9 20.5-45.6 11.2-74.5-12.6l-182.4-136.7z m-66.5 73.5l58-63L741.6 669.9c34.6 17.2 41.1 54.4 27.5 70.9-13.6 16.5-41.4 5.1-70.7-19.1l-184.5-141.3z m-60.6 75l45.5-49.6 168.2 131.5c32.5 15.9 38 51.1 25 66.9-13 15.8-39.1 5.4-66.5-17.2l-172.2-131.6z m-56.4 64.4l40-44.2 128.5 99.4c25.4 11.2 27.7 40.4 16.1 54.4-11.6 14-32.1 7-53-10.3l-131.6-99.3z m0 0" fill="#FFFFFF" /><path d="M255.3 265.8h96.6l197.1 71.4L710.7 484l-256.6 276.9-241.9-179.1-49.2-114.5 92.3-201.5z m0 0" fill="#FFFFFF" /><path d="M690.1 763.3c-5.4-1.7-15.2-6.6-28.8-17.9l-0.4-0.3-176.6-128.8 27.7-21.3 159.2 144.6 2.5 1.2c10.5 5.1 14.1 12.6 15.4 16.6 0.8 2.4 1.1 4.4 1 5.9z m88-54.6c-4.9-1.3-26.3-14-43.9-28.6l-0.4-0.3-161.4-123.6 19.9-21.6 152.6 137.1 3.3 1.6c12.5 6.2 23.5 11.3 24.9 16.1 0.9 3.1 5.1 17.7 5 19.3z m59.7-83.9c-5.8 0-23.5-9.6-39.3-22.7l-0.5-0.4-159.2-119.3-23.7-89.6 205.1 188.8 4.3 1.8c7.4 3.2 12.1 9.6 17.1 15.2 10.8 12 15.6 23.2 12.2 26.2-1.3 1.1-14.5 0-16 0z" fill="#C0E3FF" /><path d="M248.3 324.7l16-42.7c14.9-32.4 50.9-47.3 86.6-47.3 10.6 0 21.1 1.8 31.1 5.5l155.6 56.4c11.2 4.1 21.5 10.3 30.3 18.3l55.9 50.8c37.6 34.1 40.1 92.3 5.6 129.6l-103.4 111.6c-31.6 34.1-51.7-0.4-89.1-28.1l-127.2-98c-13.6-12.4-88.1-68.8-61.4-156.1z" fill="#C0E3FF" /><path d="M142.9 510.8l20-43.5 72 94.6s44.6-10.6 60.4 18.5c0 0 14.7 17.7 8.2 51.1 0 0 9.3 7 9.9 11.4 0 0 30.7-7.8 49.2 15 0 0 17 14.1 15 41.6 0 0 12.2 5.5 14.8 13 0 0 30.2-7.9 44.9 10.6 0 0 18 17.4 16.6 37.9l28.1 21.4s26.1 2.2 30.4 23.5l25.2 19.4s40.3 16.6 42.5-25.4l-88.6-70.3c-5.5-4.3-8.4-11.3-7.3-18.2 1-6.3 5.2-12.4 17.6-12.5 4.3-0.1 8.4 1.3 11.9 3.8l136.3 100s23 10.2 37-12.5c0 0 13.5-19.6-5.7-40.9l-143.8-108.2c-4.9-3.7-8.1-9.3-8.5-15.4-0.4-6.6 1.3-14.2 10.5-17.1 6.4-2 13.3-0.7 18.7 3.3l171.7 126.6s25.2 10.5 35.9-9.1c0 0 14.4-19.5 0-39.8l-188.9-143.5c-6.5-5-10.1-13-8.9-21.1 0.9-6.1 4.3-11.7 13.6-12.4 6.5-0.5 13 1.6 18.3 5.5l196.8 146.1s30.6 10 44.2-16c0 0 17.3-28-5.9-51l-286.1-260s-53.2-26.5-84.9 28.9c0 0-5.6 90.2-101.9 106.6 0 0-65.6-5.2-50.4-50.1 0 0 19.2-26.6 17.6-82.5 0 0 2.1-40.1 28.9-74.4h-103.1l22.6-48.9h155.6s63.9-37.7 112.1-34.2c0 0 62.9 3.5 79.7 13.5 0 0 83.2 27.7 120.5 21.3l139.4 300.9-22.1 52.5s40.8 43.6 10.6 96.5c-8.4 17.7-29.9 34.9-65 36.6 0 0 5.4 35.7-19.2 55.7 0 0-18.1 25.9-62 18.7 0 0 2.5 31.5-26.6 52.5 0 0-34.6 31-88-6.8 0 0-8.5 35.5-51.1 42.8 0 0-31.1 5.1-49.2-13.2 0 0-32.6 64-79 28 0 0-29.4-25.4-8.8-61.2 0 0-39.6 65.1-86.5 16.1 0 0-26.1-20.4-2-63.1 0 0-37.2 44.2-78.4 4.1 0 0-28-23.9-5.6-68.2 0 0-38.1 47.1-82.6 2.3 0 0-18.6-17.9-7.9-57.7l43-61.2-58.2-77.5-3.5-4.4z m0 0" fill="#0069D1" /><path d="M40.7 501.4l58 31.1s26.4 15.9 40.4-13.6l144.1-313.1s13.6-26.7-8.6-39.4l-63.4-32.2s-19.6-11.4-32.5 12.6c-0.4 9.6-148 319-148 319s-9.1 25.4 10 35.6z m877.2 32l59.2-28.4s28.4-12 14.6-41.6l-147.9-311.2s-11.9-27.5-35-17.2l-63.4 32s-20.8 9.1-10.6 34.4c7.1 6.4 150.1 318.1 150.1 318.1s13.4 23.3 33 13.9z m0 0" fill="#0069D1" /></svg>