<?xml version="1.0" standalone="no"?><!DOCTYPE svg PUBLIC "-//W3C//DTD SVG 1.1//EN" "http://www.w3.org/Graphics/SVG/1.1/DTD/svg11.dtd"><svg class="icon" width="200px" height="200.00px" viewBox="0 0 1024 1024" version="1.1" xmlns="http://www.w3.org/2000/svg"><path fill="red" d="M408.708496 928.542928c-9.05933 0-17.898649-2.656503-25.572422-7.782244L87.330998 723.158211c-21.234627-14.185071-26.970258-43.001373-12.786211-64.236l281.57191-421.518243c6.851035-10.255575 17.320481-17.237593 29.478382-19.657712 12.155854-2.421142 24.502044 0.020466 34.758641 6.871501L716.158796 422.219207c21.23565 14.185071 26.971281 43.001373 12.787235 64.237024L447.373097 907.974473c-6.851035 10.256598-17.319457 17.238616-29.478382 19.658736a47.092551 47.092551 0 0 1-9.186219 0.909719z m-10.793834-29.9051c4.348028 2.90312 9.600659 3.935636 14.785751 2.901073 5.188162-1.032516 9.644661-3.994987 12.548804-8.341993l281.572934-421.518242c6.034437-9.035794 3.594875-21.298072-5.440919-27.334555L405.575132 246.741637c-4.347005-2.904143-9.595542-3.935636-14.786775-2.901073-5.188162 1.032516-9.644661 3.994987-12.54778 8.341992L96.668667 673.699776c-6.03546 9.036817-3.595898 21.298072 5.440919 27.335578l295.805076 197.602474z"  /><path fill="red" d="M151.029762 776.71908m-38.595017 0a38.595017 38.595017 0 1 0 77.190033 0 38.595017 38.595017 0 1 0-77.190033 0Z"  /><path fill="red" d="M313.478598 880.551914m-38.595017 0a38.595017 38.595017 0 1 0 77.190033 0 38.595017 38.595017 0 1 0-77.190033 0Z"  /><path fill="red" d="M632.428813 392.062374a26.343995 26.343995 0 0 1-14.663978-4.444219l-128.018675-85.199451c-12.172227-8.131191-15.456017-24.623817-7.337105-36.777625L588.217892 107.235326c3.925403-5.875824 9.91686-9.873882 16.87125-11.257391 6.952342-1.385557 14.019295 0.01535 19.895119 3.940752l127.998209 85.186148c12.173251 8.131191 15.456017 24.623817 7.338129 36.777625L654.512784 380.287189c-5.105275 7.641027-13.518898 11.775184-22.083971 11.775185z m0.075725-26.591635l-7.368828 11.072173 7.389294-11.06194-0.020466-0.010233z m-127.915321-85.133959l127.861086 85.095073 105.69218-158.24714-127.853923-85.089957-105.699343 158.242024zM326.677201 871.375927a24.685215 24.685215 0 0 1-13.762445-4.190439v-0.001023l-149.134599-99.621928c-5.520737-3.687996-9.277294-9.31618-10.577916-15.84999s0.014326-13.171997 3.702322-18.693758l77.791737-116.456338c7.628748-11.419074 23.125697-14.503319 34.544771-6.876618l149.134598 99.621928c5.520737 3.687996 9.278317 9.31618 10.577916 15.84999 1.300622 6.53381-0.014326 13.171997-3.702321 18.693758l-77.791738 116.456338c-3.687996 5.52176-9.317203 9.278317-15.849989 10.57894-1.644453 0.328481-3.295046 0.48914-4.932336 0.48914zM179.972954 746.384192l146.307204 97.731881 75.902714-113.628943-146.307204-97.731882-75.902714 113.628944zM580.86953 544.852222c-2.539846 0-5.107321-0.725524-7.378037-2.242064L363.768981 402.51033c-6.109138-4.080945-7.753591-12.342096-3.672646-18.451234 4.081968-6.110161 12.343119-7.753591 18.451234-3.672646l209.723535 140.099828c6.109138 4.080945 7.752568 12.342096 3.671623 18.451234a13.290701 13.290701 0 0 1-11.073197 5.91471z"  /><path fill="red" d="M807.214628 616.043634a7.163143 7.163143 0 0 1-6.266727-3.696182l-33.141818-59.920717-38.740326 42.996256a7.163143 7.163143 0 1 1-10.643407-9.589402l45.467541-50.461275a7.184633 7.184633 0 0 1 6.136767-2.321882 7.16519 7.16519 0 0 1 5.453199 3.650133l29.903053 54.06536 17.039072-54.422494a7.16519 7.16519 0 0 1 10.570753-3.972475l46.439682 28.372188-20.437472-50.809199a7.16519 7.16519 0 0 1 6.228865-9.824763l60.48149-3.523243-46.791699-30.988782a7.163143 7.163143 0 0 1 0.025582-11.961426l49.212842-32.286334-57.740052-3.581572a7.16519 7.16519 0 0 1-6.392594-9.28855l17.426904-55.701626-52.63887 35.342949a7.153934 7.153934 0 0 1-6.245238 0.852414 7.161097 7.161097 0 0 1-4.501524-4.410449l-18.589381-52.54268-23.567765 56.340169a7.160073 7.160073 0 0 1-10.816346 3.032056l-53.027727-38.495756a7.163143 7.163143 0 0 1 8.41567-11.593036l45.703925 33.178657 27.242457-65.123206a7.147794 7.147794 0 0 1 6.80908-4.396124 7.160073 7.160073 0 0 1 6.551206 4.770654l21.705348 61.34516 61.885465-41.550325a7.163143 7.163143 0 1 1 10.82965 8.086166l-20.781302 66.419735 70.099544 4.348028a7.163143 7.163143 0 0 1 3.485381 13.138228l-58.122769 38.131459 55.658648 36.861536a7.163143 7.163143 0 0 1-3.538593 13.122879l-71.999824 4.194532 24.786522 61.620429a7.163143 7.163143 0 0 1-10.380418 8.786107l-57.05853-34.857902-19.299555 61.641919a7.163143 7.163143 0 0 1-6.836709 5.022386z"  /></svg>