<?xml version="1.0" standalone="no"?><!DOCTYPE svg PUBLIC "-//W3C//DTD SVG 1.1//EN" "http://www.w3.org/Graphics/SVG/1.1/DTD/svg11.dtd"><svg t="1591582632242" class="icon" viewBox="0 0 1024 1024" version="1.1" xmlns="http://www.w3.org/2000/svg" p-id="3269" xmlns:xlink="http://www.w3.org/1999/xlink" width="200" height="200"><defs><style type="text/css"></style></defs><path d="M129.02058125 195.55661622L357.60708125 425.61391396a8.17109912 8.17109912 0 0 1 2.41047422 5.76062491v376.15655039c0 25.77981797 13.48231377 49.68028301 35.54428096 62.9991747l134.16944853 80.89388262a73.53989297 73.53989297 0 0 0 111.5355041-62.99917471V433.1313248a8.17109912 8.17109912 0 0 1 2.77817344-6.12832412l260.90319727-227.89195664A73.53989297 73.53989297 0 0 0 856.53439737 70.17109912H181.19304951a73.53989297 73.53989297 0 0 0-52.17246826 125.38551709zM175.39156865 149.43076104a8.17109912 8.17109912 0 0 1 5.80148086-13.93172403h675.34134786a8.17109912 8.17109912 0 0 1 5.39292568 14.29942413L601.06498086 377.77212793a73.53989297 73.53989297 0 0 0-25.16698565 55.40005283v455.33450215a8.17109912 8.17109912 0 0 1-12.42007031 7.02714462l-134.16944853-80.89388173a8.17109912 8.17109912 0 0 1-3.92212793-7.02714551V431.41539395a73.53989297 73.53989297 0 0 0-21.36742383-51.84562413L175.35071357 149.471617z" p-id="3270" fill="#1296db"></path><path d="M736.70522802 584.95034815h163.42198331a32.68439648 32.68439648 0 1 0 0-65.36879385h-163.4219833a32.68439648 32.68439648 0 1 0-1e-8 65.36879385zM735.15271836 707.51683584h163.42198418a32.68439648 32.68439648 0 1 0-1e-8-65.36879385h-163.42198417a32.68439648 32.68439648 0 1 0 0 65.36879385zM728.0438627 830.08332354h163.42198329a32.68439648 32.68439648 0 1 0 0-65.36879385h-163.42198329a32.68439648 32.68439648 0 1 0 0 65.36879385z" p-id="3271" fill="#1296db"></path></svg>