<?xml version="1.0" standalone="no"?><!DOCTYPE svg PUBLIC "-//W3C//DTD SVG 1.1//EN" "http://www.w3.org/Graphics/SVG/1.1/DTD/svg11.dtd"><svg t="1532513889972" class="icon" style="" viewBox="0 0 1024 1024" version="1.1" xmlns="http://www.w3.org/2000/svg" p-id="21423" xmlns:xlink="http://www.w3.org/1999/xlink" width="200" height="200"><defs><style type="text/css"></style></defs><path d="M832 768V192a128 128 0 0 0-128-128H192A160.128 160.128 0 0 0 35.2 192H32v64H192v576c0 59.584 40.896 109.184 96 123.52V960c5.504 0 10.688-1.088 16-1.6 5.312 0.64 10.56 1.6 16 1.6h544v-3.264A160 160 0 0 0 988.736 832h3.264v-64H832zM101.888 192c13.184-37.184 48.384-64 90.112-64v64H101.888zM256 832V128h448a64 64 0 0 1 64 64v576H384v32a96 96 0 0 1-75.456 93.696A63.104 63.104 0 0 1 256 832z m576 64H415.296c14.144-18.688 24.64-40.192 29.504-64h477.312c-13.248 37.184-48.384 64-90.112 64z" p-id="21424" fill="#13227a"></path><path d="M352 512a32 32 0 0 0 0 64h128v128a32 32 0 0 0 64 0V576h128a32 32 0 0 0 0-64h-128V448h128a32 32 0 0 0 0-64H558.272l17.472-17.472-16-16 101.952-101.952a33.472 33.472 0 0 0-47.296-47.296L512.448 303.168 410.88 201.6a34.816 34.816 0 0 0-49.216 49.28l101.504 101.568-5.888 6.016A32.64 32.64 0 0 0 447.872 384H352a32 32 0 0 0 0 64h128v64h-128z" p-id="21425" fill="#13227a"></path></svg>