<?xml version="1.0" standalone="no"?><!DOCTYPE svg PUBLIC "-//W3C//DTD SVG 1.1//EN" "http://www.w3.org/Graphics/SVG/1.1/DTD/svg11.dtd"><svg t="1532517261209" class="icon" style="" viewBox="0 0 1024 1024" version="1.1" xmlns="http://www.w3.org/2000/svg" p-id="25315" xmlns:xlink="http://www.w3.org/1999/xlink" width="200" height="200"><defs><style type="text/css"></style></defs><path d="M914.691674 224.375808H799.636471V109.322653c0-47.58262-38.704433-86.304449-86.288076-86.304449H310.651605c-47.583643 0-86.289099 38.721829-86.2891 86.304449v115.053155H109.30935c-47.583643 0-86.289099 38.693177-86.2891 86.27682V914.69065c0 47.583643 38.705456 86.290123 86.2891 86.290123h805.382324c47.58262 0 86.288076-38.70648 86.288076-86.290123V310.652628c0-47.583643-38.705456-86.27682-86.288076-86.27682zM281.885502 109.322653c0-15.856098 12.893632-28.76201 28.76508-28.76201h402.69679c15.841772 0 28.76508 12.905912 28.76508 28.76201v115.053155H281.885502V109.322653z m632.806172 834.132054H109.30935c-15.872471 0-28.76508-12.921262-28.76508-28.764057V621.750394c9.047032 3.230571 18.625159 5.308902 28.76508 5.308902h287.630331v28.763033c0 47.581597 38.707503 86.288076 86.288076 86.288076h57.542439c47.580573 0 86.289099-38.70648 86.2891-86.288076V627.060319H914.69065c10.110245 0 19.719071-2.078331 28.763033-5.308902V914.69065c0.001023 15.842795-12.920238 28.764056-28.762009 28.764057zM454.466771 655.823352V540.77122c0-15.841772 12.893632-28.763033 28.760986-28.763034h57.542439c15.839725 0 28.76201 12.921262 28.76201 28.763034v115.053155c0 15.840748-12.922285 28.76201-28.76201 28.76201h-57.542439c-15.868378 0-28.760987-12.921262-28.760986-28.763033z m488.987936-115.052132c0 15.841772-12.921262 28.76201-28.763033 28.762009H627.060319v-28.762009c0-47.58262-38.708526-86.303426-86.289099-86.303426h-57.54244c-47.580573 0-86.288076 38.720806-86.288076 86.303426v28.762009H109.30935c-15.872471 0-28.76508-12.920238-28.76508-28.762009V310.652628c0-15.842795 12.893632-28.763033 28.76508-28.763033H914.692697c15.841772 0 28.763033 12.920238 28.763033 28.763033V540.77122z" p-id="25316" fill="#13227a"></path><path d="M138.070336 339.427941h57.52709v172.579222h-57.52709zM138.070336 684.586385h57.52709v201.343279h-57.52709z" p-id="25317" fill="#13227a"></path></svg>