<?xml version="1.0" standalone="no"?><!DOCTYPE svg PUBLIC "-//W3C//DTD SVG 1.1//EN" "http://www.w3.org/Graphics/SVG/1.1/DTD/svg11.dtd"><svg class="icon" width="200px" height="200.00px" viewBox="0 0 1024 1024" version="1.1" xmlns="http://www.w3.org/2000/svg"><path fill="#13227a" d="M838.8 98.2H185.2c-27.9 0-50.6 22.7-50.6 50.6V908c0 27.9 22.7 50.6 50.6 50.6h653.7c27.9 0 50.6-22.7 50.6-50.6V148.8c-0.1-27.9-22.7-50.6-50.7-50.6z m2.6 809.8c0 1.4-1.2 2.6-2.6 2.6H185.2c-1.4 0-2.6-1.2-2.6-2.6V148.8c0-1.4 1.2-2.6 2.6-2.6h653.7c1.4 0 2.6 1.2 2.6 2.6V908zM261 305h500c13.3 0 24-10.7 24-24s-10.7-24-24-24H261c-13.3 0-24 10.7-24 24s10.7 24 24 24zM261 479h500c13.3 0 24-10.7 24-24s-10.7-24-24-24H261c-13.3 0-24 10.7-24 24s10.7 24 24 24zM505 629c0-13.3-10.7-24-24-24H261c-13.3 0-24 10.7-24 24s10.7 24 24 24h220c13.3 0 24-10.7 24-24zM752.6 728.4l39.1-76.4c3.5-6.8 2.8-14.9-1.8-21s-12.2-9.1-19.6-7.7l-84.5 15.5-60.6-60.8c-5.4-5.4-13.3-7.3-20.6-4.8-7.2 2.4-12.4 8.8-13.4 16.3l-11.4 85.1-76.6 38.9c-6.8 3.4-11 10.4-10.9 18.1 0.1 7.6 4.5 14.5 11.3 17.8l77.4 37.1 13.3 84.8c1.2 7.5 6.5 13.7 13.8 16 2 0.6 4 0.9 6 0.9 5.4 0 10.6-2.2 14.5-6.2l59.2-62.1 84.8 13.6c7.5 1.2 15.1-2 19.5-8.2 4.4-6.2 4.9-14.4 1.3-21.1l-40.8-75.8z m-68.8 50.1c-6.5-1-13.1 1.2-17.6 5.9l-38.5 40.4-8.6-55.2c-1-6.5-5.2-12.1-11.1-14.9l-50.4-24.2 49.8-25.3c5.9-3 9.9-8.7 10.8-15.2l7.4-55.4 39.4 39.6c4.6 4.7 11.3 6.7 17.8 5.6l54.9-10.1-25.4 49.7c-3 5.9-2.9 12.8 0.2 18.6l26.5 49.1-55.2-8.6z" /></svg>