<?xml version="1.0" standalone="no"?><!DOCTYPE svg PUBLIC "-//W3C//DTD SVG 1.1//EN" "http://www.w3.org/Graphics/SVG/1.1/DTD/svg11.dtd"><svg class="icon" width="200px" height="200.00px" viewBox="0 0 1024 1024" version="1.1" xmlns="http://www.w3.org/2000/svg"><path fill="#0099FF" d="M558.8 921.8H115.7V80.1h733.7v499.6c22 13.9 41.4 31.6 57.4 52.1V78.9c0-31.1-25.1-56.3-56-56.3H114.3c-30.9 0-56 25.3-56 56.3V923c0 31.1 25.1 56.3 56 56.3h520.3l0.7-0.9c-29.4-13.3-55.4-32.7-76.5-56.6zM368.6 575.4l-19.1-59.6-20.7 59.6h-70.9l55.7 43.9-25.5 73.6 59.9-46.6 58.1 45.8-23.5-72.7 56.4-43.9-70.4-0.1z m-16.3-137.1c-93.1 0-168.8 75.8-168.8 169s75.7 169 168.8 169c93.1 0 168.8-75.8 168.8-169 0.1-93.2-75.7-169-168.8-169z m-0.7 305.5c-76.2 0-138.2-62.1-138.2-138.3s62-138.3 138.2-138.3c76.2 0 138.2 62.1 138.2 138.3 0 76.1-62 138.3-138.2 138.3zM724 399.4c15.8 0 28.7-11.1 28.7-25 0-13.7-12.8-25-28.7-25H529c-15.8 0-28.7 11.1-28.7 25 0 13.7 12.8 25 28.7 25h195z m0-193.3H241.3c-15.8 0-28.7 11.1-28.7 25 0 13.7 12.8 25 28.7 25H724c15.8 0 28.7-11.1 28.7-25-0.1-13.9-12.9-25-28.7-25z m242.6 759.1l-99.1-95.7c21.7-28.7 33.8-62.2 33.8-100.5 0-93.2-74.8-167.4-169-167.4-94.3 0-169.1 74.2-169.1 167.4 0 93.3 74.8 167.5 169.1 167.5 38.6 0 72.4-11.9 101.5-33.5l101.4 98.1c9.7 9.6 24.1 9.6 33.9 0 7.2-9.6 7.2-26.3-2.5-35.9z m-234.2-76.5c-67.6 0-120.8-52.7-120.8-119.7s53.1-119.6 120.8-119.6c67.6 0 120.7 52.6 120.7 119.6 0 67.1-53.1 119.7-120.7 119.7z m0 0"  /></svg>