<?xml version="1.0" standalone="no"?><!DOCTYPE svg PUBLIC "-//W3C//DTD SVG 1.1//EN" "http://www.w3.org/Graphics/SVG/1.1/DTD/svg11.dtd"><svg t="1545050205930" class="icon" style="" viewBox="0 0 1024 1024" version="1.1" xmlns="http://www.w3.org/2000/svg" p-id="825" xmlns:xlink="http://www.w3.org/1999/xlink" width="200" height="200"><defs><style type="text/css"></style></defs><path d="M353.745455 325.818182a93.090909 93.090909 0 1 1 93.090909-93.090909 93.090909 93.090909 0 0 1-93.090909 93.090909z m0-139.636364a46.545455 46.545455 0 1 0 46.545454 46.545455 46.545455 46.545455 0 0 0-46.545454-46.545455z" fill="#13227a" p-id="826"></path><path d="M493.381818 418.909091h-46.545454a93.090909 93.090909 0 1 0-186.181819 0h-46.545454a139.636364 139.636364 0 0 1 279.272727 0zM670.254545 325.818182a93.090909 93.090909 0 1 1 93.09091-93.090909 93.090909 93.090909 0 0 1-93.09091 93.090909z m0-139.636364a46.545455 46.545455 0 1 0 46.545455 46.545455 46.545455 46.545455 0 0 0-46.545455-46.545455z" fill="#13227a" p-id="827"></path><path d="M809.890909 418.909091h-46.545454a93.090909 93.090909 0 1 0-186.181819 0h-46.545454a139.636364 139.636364 0 1 1 279.272727 0zM353.745455 744.727273a93.090909 93.090909 0 1 1 93.090909-93.090909 93.090909 93.090909 0 0 1-93.090909 93.090909z m0-139.636364a46.545455 46.545455 0 1 0 46.545454 46.545455 46.545455 46.545455 0 0 0-46.545454-46.545455z" fill="#13227a" p-id="828"></path><path d="M493.381818 837.818182h-46.545454a93.090909 93.090909 0 1 0-186.181819 0h-46.545454a139.636364 139.636364 0 0 1 279.272727 0zM670.254545 744.727273a93.090909 93.090909 0 1 1 93.09091-93.090909 93.090909 93.090909 0 0 1-93.09091 93.090909z m0-139.636364a46.545455 46.545455 0 1 0 46.545455 46.545455 46.545455 46.545455 0 0 0-46.545455-46.545455z" fill="#13227a" p-id="829"></path><path d="M809.890909 837.818182h-46.545454a93.090909 93.090909 0 1 0-186.181819 0h-46.545454a139.636364 139.636364 0 1 1 279.272727 0z" fill="#13227a" p-id="830"></path><path d="M830.370909 884.363636H193.629091a69.818182 69.818182 0 0 1-69.818182-69.818181v-325.818182A69.818182 69.818182 0 0 1 193.629091 418.909091h636.741818a69.818182 69.818182 0 0 1 69.818182 69.818182v325.818182a69.818182 69.818182 0 0 1-69.818182 69.818181zM193.629091 465.454545a23.272727 23.272727 0 0 0-23.272727 23.272728v325.818182a23.272727 23.272727 0 0 0 23.272727 23.272727h636.741818a23.272727 23.272727 0 0 0 23.272727-23.272727v-325.818182a23.272727 23.272727 0 0 0-23.272727-23.272728z" fill="#13227a" p-id="831"></path></svg>