<?xml version="1.0" standalone="no"?><!DOCTYPE svg PUBLIC "-//W3C//DTD SVG 1.1//EN" "http://www.w3.org/Graphics/SVG/1.1/DTD/svg11.dtd"><svg t="1590120262317" class="icon" viewBox="0 0 1024 1024" version="1.1" xmlns="http://www.w3.org/2000/svg" p-id="2191" xmlns:xlink="http://www.w3.org/1999/xlink" width="200" height="200"><defs><style type="text/css"></style></defs><path d="M822.9 954.7c-7 0-14-1.8-20.3-5.4L514.4 782.8c-12.5-7.2-16.8-23.2-9.6-35.7 7.2-12.5 23.2-16.8 35.7-9.6L813.4 895l92.2-765-776.3 370.1L465.4 693c12.5 7.2 16.8 23.1 9.7 35.6-7.2 12.5-23.1 16.8-35.6 9.7L84 534.4c-12.6-7.3-20.4-20.7-20.4-35.2 0-14.5 7.8-27.9 20.3-35.2l1.8-1L900.6 74.6c12.3-6.6 27.3-6.4 39.5 0.6 12.5 7.2 20.3 20.7 20.3 35.2l-0.2 3.1L863.4 916c-0.7 13.7-8.3 26.3-20.2 33.2-6.3 3.6-13.3 5.5-20.3 5.5z" fill="#1296db" p-id="2192"></path><path d="M437.5 928.2c-14.4 0-26.1-11.7-26.1-26.1V748.2c0-12.4 4.2-24.6 11.8-34.4l486-618.4c8.9-11.3 25.3-13.3 36.7-4.4 11.3 8.9 13.3 25.3 4.4 36.7L464.4 745.9c-0.5 0.6-0.7 1.4-0.7 2.2V902c-0.1 14.5-11.8 26.2-26.2 26.2z" fill="#1296db" p-id="2193"></path></svg>