<?xml version="1.0" standalone="no"?><!DOCTYPE svg PUBLIC "-//W3C//DTD SVG 1.1//EN" "http://www.w3.org/Graphics/SVG/1.1/DTD/svg11.dtd"><svg t="1590455786045" class="icon" viewBox="0 0 1024 1024" version="1.1" xmlns="http://www.w3.org/2000/svg" p-id="3568" xmlns:xlink="http://www.w3.org/1999/xlink" width="200" height="200"><defs><style type="text/css"></style></defs><path d="M834.37778 716.13833l-85.74999 0c-11.879562 0-21.505803-9.657964-21.505803-21.441335 0-11.879562 9.625218-21.537526 21.505803-21.537526l85.74999 0c23.663956 0 42.97886-19.266809 42.97886-42.97886l0-429.788603c0-23.712051-19.314904-42.97886-42.97886-42.97886l-644.682905 0c-23.712051 0-42.97886 19.266809-42.97886 42.97886l0 429.788603c0 23.712051 19.266809 42.97886 42.97886 42.97886l365.224122 0c5.692652 0 11.17655 2.318812 15.173584 6.299473l193.46934 193.404871c8.394181 8.425903 8.394181 22.032806 0 30.379914-4.14132 4.204765-9.673313 6.347568-15.141862 6.347568-5.516644 0-11.048637-2.142803-15.189957-6.347568L546.029536 716.13833 189.694875 716.13833c-47.455825 0-86.005816-38.533618-86.005816-85.957721l0-429.788603c0-47.376007 38.549991-85.957721 86.005816-85.957721l644.682905 0c47.424102 0 85.957721 38.581714 85.957721 85.957721l0 429.788603C920.335501 677.604712 881.801882 716.13833 834.37778 716.13833L834.37778 716.13833zM318.631456 458.265168c-23.760147 0-42.97886-19.218714-42.97886-42.97886s19.218714-42.97886 42.97886-42.97886c23.712051 0 42.97886 19.218714 42.97886 42.97886S342.343507 458.265168 318.631456 458.265168L318.631456 458.265168zM512.004605 458.265168c-23.743774 0-42.97886-19.218714-42.97886-42.97886s19.235087-42.97886 42.97886-42.97886c23.760147 0 42.97886 19.218714 42.97886 42.97886S535.763728 458.265168 512.004605 458.265168L512.004605 458.265168zM705.441199 458.265168c-23.760147 0-42.97886-19.218714-42.97886-42.97886s19.218714-42.97886 42.97886-42.97886c23.712051 0 42.97886 19.218714 42.97886 42.97886S729.15325 458.265168 705.441199 458.265168L705.441199 458.265168z" p-id="3569" fill="#1296db"></path></svg>