<?xml version="1.0" standalone="no"?><!DOCTYPE svg PUBLIC "-//W3C//DTD SVG 1.1//EN" "http://www.w3.org/Graphics/SVG/1.1/DTD/svg11.dtd"><svg t="1585299992876" class="icon" viewBox="0 0 1024 1024" version="1.1" xmlns="http://www.w3.org/2000/svg" p-id="3371" xmlns:xlink="http://www.w3.org/1999/xlink" width="200" height="200"><defs><style type="text/css"></style></defs><path d="M511.7 63.8c-163.5 0-296.5 132.9-296.5 296.4 0 123.1 75.8 232.6 189.9 276.5v23.5c0 20.4 16.6 37.1 37.1 37.1h138.2c20.5 0 37.2-16.7 37.1-37.1V637C732 593.3 808.1 483.7 808.1 360.2c0-163.4-132.9-296.4-296.4-296.4z m81.9 543c-7.4 2.5-12.5 9.5-12.5 17.4l-0.6 36.6-138.8-0.6v-36.3c0-7.8-5-14.8-12.5-17.3C323.1 571 251.8 472.1 251.8 360.3c0-143.3 116.6-259.9 259.9-259.9s259.9 116.5 259.9 259.8c0 112.2-71.6 211.2-178 246.6zM596.8 754.3H426.7c-10.1 0-18.3 8.2-18.3 18.3s8.2 18.3 18.3 18.3h170.1c10.1 0 18.2-8.2 18.3-18.3 0-10.1-8.2-18.3-18.3-18.3zM582.7 845.9h-142c-10.1 0-18.3 8.2-18.3 18.3s8.2 18.3 18.3 18.3h142c10.1 0 18.3-8.2 18.3-18.3s-8.2-18.3-18.3-18.3zM552.2 923.2h-81.1c-10.1 0-18.3 8.2-18.3 18.3s8.2 18.3 18.3 18.3h81.1c10.1 0 18.3-8.2 18.3-18.3s-8.2-18.3-18.3-18.3z" fill="#1296db" p-id="3372"></path><path d="M688.2 248.1C649 163.3 544.8 146.4 540.4 145.7c-10-1.5-19.4 5.3-20.9 15.3s5.3 19.4 15.3 20.9c0.9 0.2 89.1 14.5 120.2 81.7 3.1 6.7 9.7 10.6 16.6 10.6 2.6 0 5.2-0.5 7.7-1.8 9.1-4.3 13.1-15.1 8.9-24.3zM712.1 309.4c-4.3-9.1-15.1-12.9-24.2-8.7-9.1 4.2-13.1 15-8.9 24.2 0.2 0.3 13.3 29.8 2.9 68.4-2.6 9.8 3.2 19.8 12.9 22.4 1.4 0.4 2.9 0.6 4.3 0.6 8.2 0.2 15.8-5.2 18.1-13.5 14-52.1-4.3-91.7-5.1-93.4z" fill="#1296db" p-id="3373"></path></svg>