<?xml version="1.0" standalone="no"?><!DOCTYPE svg PUBLIC "-//W3C//DTD SVG 1.1//EN" "http://www.w3.org/Graphics/SVG/1.1/DTD/svg11.dtd"><svg t="1585300059664" class="icon" viewBox="0 0 1024 1024" version="1.1" xmlns="http://www.w3.org/2000/svg" p-id="4074" xmlns:xlink="http://www.w3.org/1999/xlink" width="200" height="200"><defs><style type="text/css"></style></defs><path d="M492.654908 877.195469c-47.443545 0-93.477998-9.295714-136.821155-27.628244-41.856293-17.704221-79.4454-43.045375-111.720478-75.320453s-57.617256-69.863161-75.320453-111.720478c-18.332531-43.343157-27.628244-89.376587-27.628244-136.820132 0-47.444569 9.295714-93.476975 27.628244-136.821155 17.704221-41.856293 43.045375-79.4454 75.320453-111.720478s69.863161-57.617256 111.720478-75.320453c43.343157-18.333554 89.37761-27.628244 136.821155-27.628244l16.226566 0.062422 0 340.54607 335.432609 0-0.201591 15.549138c-1.210571 92.904946-38.307468 180.056865-104.456027 245.400083C673.447531 841.177138 585.727677 877.195469 492.654908 877.195469zM478.182288 205.238384c-170.198334 7.589862-306.319547 148.431587-306.319547 320.467779 0 176.884616 143.906527 320.79012 320.791144 320.79012 169.383782 0 309.87042-133.629463 320.181253-300.971749l-334.652849 0L478.182288 205.238384z" p-id="4075" fill="#1296db"></path><path d="M543.013853 127.477346l0 359.266433 353.60141 0c0.021489-1.568728 0.031722-3.139503 0.031722-4.713348C896.648009 286.521642 738.405985 127.97672 543.013853 127.477346z" p-id="4076" fill="#1296db"></path></svg>