<?xml version="1.0" standalone="no"?><!DOCTYPE svg PUBLIC "-//W3C//DTD SVG 1.1//EN" "http://www.w3.org/Graphics/SVG/1.1/DTD/svg11.dtd"><svg t="1585299917959" class="icon" viewBox="0 0 1028 1024" version="1.1" xmlns="http://www.w3.org/2000/svg" p-id="2695" xmlns:xlink="http://www.w3.org/1999/xlink" width="200.78125" height="200"><defs><style type="text/css"></style></defs><path d="M1000.727273 293.236364L521.309091 65.163636c-9.309091-4.654545-18.618182-4.654545-27.927273 0L27.927273 293.236364c-18.618182 4.654545-23.272727 18.618182-23.272728 32.581818s9.309091 23.272727 18.618182 32.581818l153.6 74.472727v330.472728c0 111.709091 148.945455 200.145455 339.781818 200.145454s339.781818-88.436364 339.781819-200.145454V428.218182l65.163636-27.927273v218.763636h-13.963636c-13.963636 0-23.272727 9.309091-23.272728 23.272728V791.272727c0 13.963636 9.309091 23.272727 23.272728 23.272728h74.472727c13.963636 0 23.272727-9.309091 23.272727-23.272728v-153.6c0-13.963636-9.309091-23.272727-23.272727-23.272727h-13.963636V377.018182l41.890909-18.618182c13.963636-4.654545 18.618182-18.618182 18.618181-32.581818s-13.963636-27.927273-27.927272-32.581818z m-51.2 474.763636h-27.927273v-107.054545h27.927273v107.054545z m-167.563637-9.309091c0 60.509091-111.709091 130.327273-269.963636 130.327273s-269.963636-69.818182-269.963636-130.327273V460.8l246.690909 116.363636c4.654545 0 9.309091 4.654545 13.963636 4.654546 4.654545 0 9.309091 0 13.963636-4.654546l260.654546-121.018181v302.545454z m-279.272727-246.690909L116.363636 325.818182l386.327273-186.181818 400.290909 186.181818-400.290909 186.181818z" fill="#1296db" p-id="2696"></path></svg>