<?xml version="1.0" standalone="no"?><!DOCTYPE svg PUBLIC "-//W3C//DTD SVG 1.1//EN" "http://www.w3.org/Graphics/SVG/1.1/DTD/svg11.dtd"><svg class="icon" width="200px" height="200.00px" viewBox="0 0 1024 1024" version="1.1" xmlns="http://www.w3.org/2000/svg"><path fill="#ec6c25" d="M681.236426 175.990247 206.180849 175.990247c-11.506055 0-20.844747 9.337669-20.844747 20.844747 0 11.505032 9.337669 20.844747 20.844747 20.844747l475.082182 0c11.506055 0 20.844747-9.338692 20.844747-20.844747C702.107779 185.328939 692.742481 175.990247 681.236426 175.990247L681.236426 175.990247zM702.08015 346.219279c0-11.506055-9.337669-20.844747-20.844747-20.844747L206.180849 325.374532c-11.506055 0-20.844747 9.337669-20.844747 20.844747 0 11.505032 9.337669 20.844747 20.844747 20.844747l475.082182 0C692.742481 367.063003 702.08015 357.724311 702.08015 346.219279L702.08015 346.219279zM206.15322 474.758818c-11.506055 0-20.844747 9.337669-20.844747 20.844747 0 11.505032 9.337669 20.843724 20.844747 20.843724l304.881802 0c11.506055 0 20.844747-9.338692 20.844747-20.843724 0-11.506055-9.337669-20.844747-20.844747-20.844747L206.15322 474.758818 206.15322 474.758818zM445.001073 624.14208 206.15322 624.14208c-11.506055 0-20.844747 9.337669-20.844747 20.844747 0 11.505032 9.337669 20.844747 20.844747 20.844747l238.847853 0c11.506055 0 20.844747-9.338692 20.844747-20.844747C465.845821 633.480772 456.507128 624.14208 445.001073 624.14208L445.001073 624.14208zM911.106814 836.920184l-53.362348 0L753.60771 691.205475c42.856064-15.09172 73.817216-55.55734 73.817216-103.499236 0-60.753689-49.386804-110.168122-110.142539-110.168122-60.753689 0-110.140493 49.414433-110.140493 110.168122 0 47.941895 30.987758 88.407516 73.816193 103.499236L576.792679 836.920184l-53.333696 0c-26.819832 0-48.63672 21.816888-48.63672 48.63672l0 78.347392c0 26.819832 21.816888 48.63672 48.63672 48.63672l387.620202 0c26.819832 0 48.63672-21.816888 48.63672-48.63672l0-78.347392C959.743534 858.737072 937.926646 836.920184 911.106814 836.920184L911.106814 836.920184zM648.829342 587.706239c0-37.740556 30.682813-68.479651 68.452022-68.479651 37.771255 0 68.454068 30.710442 68.454068 68.479651 0 37.519522-30.349215 68.035536-67.813478 68.397786-0.445138 0-0.835018 0-1.280156 0C679.20721 655.741775 648.829342 625.254414 648.829342 587.706239L648.829342 587.706239zM710.890816 721.081922l12.257162-0.778736 83.34829 116.616998L628.069529 836.920184 710.890816 721.081922 710.890816 721.081922zM918.055063 963.931926c0 3.780093-3.169179 6.948249-6.948249 6.948249L523.485589 970.880175c-3.77907 0-6.948249-3.168156-6.948249-6.948249l0-78.346369c0-3.77907 3.169179-6.948249 6.948249-6.948249l64.089667 0L847.045799 878.637308l0.554632 0 63.532989 0c3.781116 0 6.948249 3.169179 6.948249 6.948249l0 78.346369L918.055063 963.931926 918.055063 963.931926zM108.018156 876.496551 108.018156 60.095703c0-3.77907 3.169179-6.948249 6.948249-6.948249l663.542438 0c3.77907 0 6.948249 3.169179 6.948249 6.948249l0 392.121725c15.646352 7.893784 29.709649 18.399045 41.688471 30.989805L827.145563 60.095703c0-26.818809-21.816888-48.63672-48.63672-48.63672l-663.542438 0c-26.819832 0-48.63672 21.816888-48.63672 48.63672l0 816.400848c0 26.818809 21.816888 48.63672 48.63672 48.63672l318.167387 0 0-39.577391c0-0.721431 0.194428-1.38965 0.222057-2.111081L114.966405 883.4448C111.213941 883.4448 108.018156 880.276644 108.018156 876.496551L108.018156 876.496551z" /></svg>