<?xml version="1.0" standalone="no"?><!DOCTYPE svg PUBLIC "-//W3C//DTD SVG 1.1//EN" "http://www.w3.org/Graphics/SVG/1.1/DTD/svg11.dtd"><svg t="1532517420803" class="icon" style="" viewBox="0 0 1024 1024" version="1.1" xmlns="http://www.w3.org/2000/svg" p-id="28307" xmlns:xlink="http://www.w3.org/1999/xlink" width="200" height="200"><defs><style type="text/css"></style></defs><path d="M832 608c17.6 0 32 14.4 32 32v320a32 32 0 0 1-64 0v-320c0-17.6 14.4-32 32-32zM256 224h384a32 32 0 0 1 0 64H256a32 32 0 0 1 0-64zM256 416h384a32 32 0 0 1 0 64H256a32 32 0 0 1 0-64zM256 608h224a32 32 0 0 1 0 64H256a32 32 0 0 1 0-64z" p-id="28308" fill="#13227a"></path><path d="M672 768h320a32 32 0 0 1 0 64h-320a32 32 0 0 1 0-64z" p-id="28309" fill="#13227a"></path><path d="M736 32h-576a128 128 0 0 0-128 128v704a128 128 0 0 0 128 128H576v-64H160a64 64 0 0 1-64-64v-704a64 64 0 0 1 64-64h576a64 64 0 0 1 64 64v384h64v-384a128 128 0 0 0-128-128z" p-id="28310" fill="#13227a"></path></svg>