<?xml version="1.0" standalone="no"?><!DOCTYPE svg PUBLIC "-//W3C//DTD SVG 1.1//EN" "http://www.w3.org/Graphics/SVG/1.1/DTD/svg11.dtd"><svg t="1532513346971" class="icon" style="" viewBox="0 0 1189 1024" version="1.1" xmlns="http://www.w3.org/2000/svg" p-id="8649" xmlns:xlink="http://www.w3.org/1999/xlink" width="232.2265625" height="200"><defs><style type="text/css"></style></defs><path d="M315.342775 533.549285 315.342775 580.91035 462.546087 580.91035 462.546087 757.554325 521.427412 757.554325 521.427412 580.91035 664.790638 580.91035 664.790638 533.549285 521.427412 533.549285 521.427412 455.467528 664.790638 455.467528 664.790638 405.546405 521.101005 405.546405 678.749352 222.502286 609.34747 222.502286 493.705828 366.022956 373.132235 222.502286 301.902473 222.502286 460.829569 405.546405 316.622804 405.546405 316.622804 455.467528 462.546087 455.467528 462.546087 533.549285Z" p-id="8650" fill="#13227a"></path><path d="M959.706713 567.155161c-126.166039 0-228.419859 102.255101-228.419859 228.419859 0 126.166039 102.255101 228.42498 228.419859 228.42498S1188.127853 921.741059 1188.127853 795.57502C1188.127853 669.437142 1085.872752 567.155161 959.706713 567.155161zM1061.599566 817.715679 856.794958 817.715679l0-43.520979 204.804608 0L1061.599566 817.715679z" p-id="8651" fill="#13227a"></path><path d="M684.661805 885.557205l-257.096345 0-0.226565-29.951394-81.32663 60.673365 82.22137 56.072942-0.200965-26.377553 271.893478 0.199684C693.007593 926.639729 687.843956 906.037666 684.661805 885.557205z" p-id="8652" fill="#13227a"></path><path d="M203.057369 885.557205l-25.261368 0-86.273941 0C66.506456 885.557205 61.897073 866.502696 60.617044 854.419224l0-732.154713c0-28.096632 29.624987-30.325162 30.903735-30.325162L474.066346 91.939349l0 25.043763 81.32663-60.830809L474.066346 0 474.066346 30.497966l-321.291069 0-45.79047 0-15.250263 0c-50.151528 1.280029-91.305734 27.858547-91.612941 96.466811l-0.121603 727.363566c0.791058 56.924161 33.189867 92.483361 91.520779 91.56558l30.750132-0.339208 141.804151 0.688655C264.375868 912.564533 253.455943 886.837234 203.057369 885.557205z" p-id="8653" fill="#13227a"></path><path d="M741.961014 91.848467c-0.921621 0.030721 29.540505 0.090882 30.504366 0.090882l116.782148 0C915.909248 91.939349 919.516369 124.644084 919.516369 152.773997l0 348.975532c1.280029-0.0128 2.497336-0.044801 3.691603-0.044801 19.5486 0 38.759272 1.701158 57.383691 4.933231l-0.096002-410.20059C980.188454 64.8949 958.129718 31.777995 919.694293 30.497966l-45.730309 0-69.501724 0-123.518939 0.121603C682.805763 67.929848 710.721911 93.495864 741.961014 91.848467z" p-id="8654" fill="#13227a"></path></svg>