<?xml version="1.0" standalone="no"?><!DOCTYPE svg PUBLIC "-//W3C//DTD SVG 1.1//EN" "http://www.w3.org/Graphics/SVG/1.1/DTD/svg11.dtd"><svg class="icon" width="200px" height="195.05px" viewBox="0 0 1050 1024" version="1.1" xmlns="http://www.w3.org/2000/svg"><path fill="#ec6c25" d="M652.099368 279.659789l-140.126315 176.666948-140.126316-176.666948a27.863579 27.863579 0 0 0-37.726316-5.01221 24.576 24.576 0 0 0-5.308632 35.705263l149.477053 188.416h-101.052631c-14.928842 0-26.947368 11.398737-26.947369 25.519158s12.018526 25.519158 26.947369 25.519158h107.789473v51.011368h-107.789473c-14.928842 0-26.947368 11.398737-26.947369 25.519158s12.018526 25.492211 26.947369 25.492211h107.789473v76.530526h0.080842l-0.080842 0.646737c0 14.120421 12.018526 25.519158 26.947369 25.519158 14.901895 0 26.947368-11.398737 26.947368-25.519158 0-0.161684-0.107789-0.458105-0.107789-0.61979H538.947368v-76.530526h107.789474c14.928842 0 26.947368-11.398737 26.947369-25.519158s-12.018526-25.519158-26.947369-25.519158h-107.789474v-51.011368h107.789474c14.928842 0 26.947368-11.398737 26.947369-25.519158s-12.018526-25.519158-26.947369-25.519158h-101.052631l149.557894-188.416a24.656842 24.656842 0 0 0-5.281684-35.705263 28.106105 28.106105 0 0 0-37.834105 5.01221z"  /><path fill="#ec6c25" d="M1010.526316 505.263158a33.684211 33.684211 0 0 1-67.368421 0C943.157895 263.410526 747.115789 67.368421 505.263158 67.368421S67.368421 263.410526 67.368421 505.263158 263.410526 943.157895 505.263158 943.157895a33.684211 33.684211 0 0 1 0 67.368421C226.223158 1010.526316 0 784.303158 0 505.263158S226.223158 0 505.263158 0 1010.526316 226.223158 1010.526316 505.263158z"  /><path fill="#ec6c25" d="M619.789474 1013.328842l136.919579-39.289263-97.818948-98.304L619.789474 1013.328842z m365.729684-269.20421l-97.818947-98.304-215.174737 216.225684 97.818947 98.277052 215.174737-216.198736z m45.46021-82.566737l-61.143579-61.44c-10.132211-10.159158-27.082105-9.620211-37.888 1.239579l-29.372631 29.480421 97.818947 98.277052 29.372632-29.480421c10.778947-10.859789 11.317895-27.890526 1.212631-38.076631z"  /></svg>