<?xml version="1.0" standalone="no"?><!DOCTYPE svg PUBLIC "-//W3C//DTD SVG 1.1//EN" "http://www.w3.org/Graphics/SVG/1.1/DTD/svg11.dtd"><svg class="icon" width="200px" height="200.00px" viewBox="0 0 1024 1024" version="1.1" xmlns="http://www.w3.org/2000/svg"><path fill="#ec6c25" d="M868.893898 366.475626c-14.145162 0-25.611308 11.467169-25.611308 25.611308l0 500.905314c0 11.520381-5.207605 12.474103-11.008728 12.474103L148.713508 905.46635c-4.813632 0-10.268878 0-10.268878-12.474103L138.444631 215.842907c0-8.647961 7.312546-15.954367 15.966647-15.954367l459.84106 0c14.145162 0 25.611308-11.467169 25.611308-25.611308s-11.466146-25.611308-25.611308-25.611308L154.411277 148.665925c-37.048801 0-67.190285 30.135344-67.190285 67.176982l0 677.149341c0 37.504172 25.285896 63.697741 61.491493 63.697741l683.561377 0c36.641525 0 62.231343-26.193569 62.231343-63.697741L894.505205 392.086933C894.506229 377.942795 883.040083 366.475626 868.893898 366.475626zM933.995615 182.084035c-3.295046-17.73492-13.299911-33.123398-28.16855-43.331901l-91.026156-62.499449c-9.162684-6.28924-21.559015-9.897418-34.009582-9.897418-17.492396 0-32.328289 6.979972-40.72554 19.152199C738.086713 88.36556 541.633413 372.2 485.480508 455.295534c-12.372795 18.320251-19.628036 39.70735-20.979824 61.84044l-7.082302 115.365494c-1.297552 13.337773 3.351328 26.683732 13.141298 37.670971 9.556657 10.724249 22.718421 17.72878 36.195364 19.514449l-270.091438 0c-14.145162 0-25.611308 11.466146-25.611308 25.611308s11.467169 25.611308 25.611308 25.611308l508.403079 0c14.145162 0 25.611308-11.466146 25.611308-25.611308s-11.466146-25.611308-25.611308-25.611308L520.140912 689.686888c5.265934-0.723477 10.279111-2.301416 14.954597-4.753257 0.427742-0.225127 0.848321-0.460488 1.26276-0.708128 0.624217-0.373507 62.908772-37.669948 103.418394-62.528102 18.750039-11.489682 34.58775-26.532283 47.072085-44.712341l204.347085-297.633724c0.001023-0.001023 0.00307-0.00307 0.004093-0.005117 0.002047-0.002047 0.00307-0.004093 0.004093-0.00614l32.057113-46.691415C933.478845 217.777979 937.289638 199.819978 933.995615 182.084035zM512.646218 638.719076c-1.407046-0.503467-3.247974-1.797949-4.111644-2.911306l7.023974-114.405633 59.222823 18.285458 31.756261 42.300408C571.359434 603.499947 524.14204 631.829156 512.646218 638.719076zM644.834866 547.680641l-29.842679-39.750329c-0.122797-0.163729-0.24764-0.325411-0.37453-0.487094-6.175653-7.827269-14.480806-13.527085-24.042579-16.488533l-55.723116-17.204847c41.034579-60.412928 131.25437-191.162808 190.640921-277.104155l108.983133 74.822103L644.834866 547.680641zM881.038496 203.648167l-17.570167 25.589818-108.84908-74.730005c12.598946-18.219967 21.684882-31.352055 25.533536-36.912701 0.195451-0.010233 0.408299-0.016373 0.63752-0.016373 2.470261 0 4.507664 0.653893 5.126764 0.977257l90.917686 62.424748c3.588735 2.464121 6.003737 6.178723 6.798846 10.458189C884.427686 195.71959 883.508757 200.053292 881.038496 203.648167z" /></svg>