<?xml version="1.0" standalone="no"?><!DOCTYPE svg PUBLIC "-//W3C//DTD SVG 1.1//EN" "http://www.w3.org/Graphics/SVG/1.1/DTD/svg11.dtd"><svg t="1532513875428" class="icon" style="" viewBox="0 0 1024 1024" version="1.1" xmlns="http://www.w3.org/2000/svg" p-id="21087" xmlns:xlink="http://www.w3.org/1999/xlink" width="200" height="200"><defs><style type="text/css"></style></defs><path d="M930.133333 128H93.866667a8.533333 8.533333 0 0 0-8.533334 8.533333v315.733334a8.533333 8.533333 0 0 0 8.533334 8.533333h128V418.133333H136.533333a8.533333 8.533333 0 0 1-8.533333-8.533333V179.2a8.533333 8.533333 0 0 1 8.533333-8.533333h750.933334a8.533333 8.533333 0 0 1 8.533333 8.533333v230.4a8.533333 8.533333 0 0 1-8.533333 8.533333h-85.333334v42.666667h128a8.533333 8.533333 0 0 0 8.533334-8.533333V136.533333a8.533333 8.533333 0 0 0-8.533334-8.533333z" fill="#13227a" p-id="21088"></path><path d="M832 320H192a8.533333 8.533333 0 0 1-8.533333-8.533333v-25.6a8.533333 8.533333 0 0 1 8.533333-8.533334h640a8.533333 8.533333 0 0 1 8.533333 8.533334v25.6a8.533333 8.533333 0 0 1-8.533333 8.533333zM691.2 554.666667H332.8a8.533333 8.533333 0 0 1-8.533333-8.533334v-25.6a8.533333 8.533333 0 0 1 8.533333-8.533333h358.4a8.533333 8.533333 0 0 1 8.533333 8.533333v25.6a8.533333 8.533333 0 0 1-8.533333 8.533334zM691.2 640H332.8a8.533333 8.533333 0 0 1-8.533333-8.533333v-25.6a8.533333 8.533333 0 0 1 8.533333-8.533334h358.4a8.533333 8.533333 0 0 1 8.533333 8.533334v25.6a8.533333 8.533333 0 0 1-8.533333 8.533333zM691.2 469.333333H332.8a8.533333 8.533333 0 0 1-8.533333-8.533333v-25.6a8.533333 8.533333 0 0 1 8.533333-8.533333h358.4a8.533333 8.533333 0 0 1 8.533333 8.533333v25.6a8.533333 8.533333 0 0 1-8.533333 8.533333z" fill="#13227a" p-id="21089"></path><path d="M251.733333 896h-25.6a8.533333 8.533333 0 0 1-8.533333-8.533333V285.866667a8.533333 8.533333 0 0 1 8.533333-8.533334h25.6a8.533333 8.533333 0 0 1 8.533334 8.533334v601.6a8.533333 8.533333 0 0 1-8.533334 8.533333zM797.866667 896h-25.6a8.533333 8.533333 0 0 1-8.533334-8.533333V285.866667a8.533333 8.533333 0 0 1 8.533334-8.533334h25.6a8.533333 8.533333 0 0 1 8.533333 8.533334v601.6a8.533333 8.533333 0 0 1-8.533333 8.533333z" fill="#13227a" p-id="21090"></path><path d="M347.3664 815.982933l73.2672 73.2672a8.533333 8.533333 0 0 0 12.066133 0l73.2672-73.2672a8.533333 8.533333 0 0 1 12.066134 0l73.2672 73.2672a8.533333 8.533333 0 0 0 12.066133 0l73.2672-73.2672a8.533333 8.533333 0 0 1 12.066133 0l77.521067 77.521067a8.533333 8.533333 0 0 0 6.033067 2.500267H797.866667a8.533333 8.533333 0 0 0 8.533333-8.533334v-13.521066l-117.700267-117.700267a8.533333 8.533333 0 0 0-12.066133 0l-73.2672 73.2672a8.533333 8.533333 0 0 1-12.066133 0l-73.2672-73.2672a8.533333 8.533333 0 0 0-12.066134 0l-73.2672 73.2672a8.533333 8.533333 0 0 1-12.066133 0l-73.2672-73.2672a8.533333 8.533333 0 0 0-12.066133 0L217.6 873.9456V887.466667a8.533333 8.533333 0 0 0 8.533333 8.533333h25.6128a8.533333 8.533333 0 0 0 6.033067-2.500267l77.521067-77.521066a8.533333 8.533333 0 0 1 12.066133 0.004266z" fill="#13227a" p-id="21091"></path></svg>