<?xml version="1.0" standalone="no"?><!DOCTYPE svg PUBLIC "-//W3C//DTD SVG 1.1//EN" "http://www.w3.org/Graphics/SVG/1.1/DTD/svg11.dtd"><svg t="1537953738358" class="icon" style="" viewBox="0 0 1024 1024" version="1.1" xmlns="http://www.w3.org/2000/svg" p-id="1395" xmlns:xlink="http://www.w3.org/1999/xlink" width="200" height="200"><defs><style type="text/css"></style></defs><path d="M294.19695 323.105862 294.19695 323.105862z" p-id="1396" fill="#13227a"></path><path d="M118.170888 185.520297c0-40.593534 37.594223-68.505233 83.804684-68.505233l731.12158 0c15.105023 0 27.350928-15.872502 27.350928-29.142737 0-13.269211-12.245905-24.02723-27.350928-24.02723l-731.12158 0c-76.370365 0-138.502447 54.584176-138.502447 121.6752L63.473125 836.688917c0 67.092048 62.132082 121.674177 138.502447 121.674177l758.471484 0L960.447057 259.142062 201.975573 259.142062C155.766135 259.142062 118.170888 226.116901 118.170888 185.520297L118.170888 185.520297zM908.479475 910.309658 196.327946 910.309658c-46.759977 0-84.802408-32.862455-84.802408-73.261561L111.525538 285.406239c23.560602 15.515369 52.958142 24.738427 84.802408 24.738427l712.151529 0L908.479475 910.309658 908.479475 910.309658z" p-id="1397" fill="#13227a"></path><path d="M875.025549 156.188248 238.056326 156.188248c-13.270235 0-24.026206 12.339026-24.026206 27.555589 0 15.21861 10.755971 27.557636 24.026206 27.557636l636.969223 0c13.270235 0 24.026206-12.339026 24.026206-27.557636C899.051755 168.527275 888.29476 156.188248 875.025549 156.188248L875.025549 156.188248z" p-id="1398" fill="#13227a"></path><path d="M371.821889 447.756837l410.67529 0c14.761192 0 26.719548-12.33698 26.719548-27.556613s-11.95938-27.556613-26.719548-27.556613L371.821889 392.643612c-14.755052 0-26.718525 12.33698-26.718525 27.556613S357.066837 447.756837 371.821889 447.756837L371.821889 447.756837z" p-id="1399" fill="#13227a"></path><path d="M371.821889 617.769952l410.67529 0c14.761192 0 26.719548-11.68718 26.719548-26.106588s-11.95938-26.107611-26.719548-26.107611L371.821889 565.555753c-14.755052 0-26.718525 11.688203-26.718525 26.107611S357.066837 617.769952 371.821889 617.769952L371.821889 617.769952z" p-id="1400" fill="#13227a"></path><path d="M371.821889 790.685163l410.67529 0c14.761192 0 26.719548-12.338003 26.719548-27.556613s-11.95938-27.556613-26.719548-27.556613L371.821889 735.571938c-14.755052 0-26.718525 12.338003-26.718525 27.556613S357.066837 790.685163 371.821889 790.685163L371.821889 790.685163z" p-id="1401" fill="#13227a"></path><path d="M260.443196 447.756837c15.195074 0 27.557636-12.361539 27.557636-27.557636 0-15.195074-12.362562-27.555589-27.557636-27.555589-15.195074 0-27.555589 12.361539-27.555589 27.555589C232.886583 435.394275 245.248122 447.756837 260.443196 447.756837L260.443196 447.756837z" p-id="1402" fill="#13227a"></path><path d="M260.443196 616.60236c15.196097 0 27.557636-12.361539 27.557636-27.557636 0-15.195074-12.361539-27.555589-27.557636-27.555589-15.195074 0-27.555589 12.361539-27.555589 27.555589C232.887606 604.240821 245.248122 616.60236 260.443196 616.60236L260.443196 616.60236z" p-id="1403" fill="#13227a"></path><path d="M262.489808 790.564413c15.196097 0 27.557636-12.361539 27.557636-27.557636 0-15.195074-12.361539-27.555589-27.557636-27.555589-15.195074 0-27.555589 12.361539-27.555589 27.555589C234.934219 778.202874 247.294734 790.564413 262.489808 790.564413L262.489808 790.564413z" p-id="1404" fill="#13227a"></path></svg>